<svg xmlns="http://www.w3.org/2000/svg" xmlns:xlink="http://www.w3.org/1999/xlink" viewBox="0 0 218.17 243.44"><defs><style>.cls-1{fill:none;}.cls-2{fill:#6d6e71;}.cls-3{opacity:0.2;}.cls-4{clip-path:url(#clip-path);}.cls-5{fill:#231f20;}.cls-6{fill:#772a2a;}.cls-7{fill:#39b54a;}.cls-8{fill:#bae27a;}.cls-9{clip-path:url(#clip-path-2);}.cls-10{fill:#414042;}.cls-11,.cls-13{fill:#ecad00;}.cls-12{fill:#fdd66f;}.cls-13{font-size:34.78px;font-family:SofiaPro-Black, SofiaPro Black;font-weight:800;}.cls-14{opacity:0.3;}.cls-15{clip-path:url(#clip-path-3);}.cls-16{fill:#fff;}.cls-17{clip-path:url(#clip-path-4);}.cls-18{fill:#883733;}.cls-19{opacity:0.5;}.cls-20{clip-path:url(#clip-path-5);}.cls-21{fill:#9b4949;}.cls-22{fill:#a35252;}.cls-23{fill:#944;}.cls-24{fill:#939598;}.cls-25{fill:#e6e7e8;}.cls-26{clip-path:url(#clip-path-6);}.cls-27{clip-path:url(#clip-path-7);}.cls-28{opacity:0.23;}.cls-29{clip-path:url(#clip-path-8);}.cls-30{fill:#a7a6a7;}.cls-31{fill:#218400;}</style><clipPath id="clip-path" transform="translate(0 0)"><rect class="cls-1" x="33.31" y="122.22" width="162.63" height="17.11"/></clipPath><clipPath id="clip-path-2" transform="translate(0 0)"><rect class="cls-1" x="60.46" width="79.73" height="109.25"/></clipPath><clipPath id="clip-path-3" transform="translate(0 0)"><rect class="cls-1" x="115.24" y="11.72" width="36.04" height="36.04"/></clipPath><clipPath id="clip-path-4" transform="translate(0 0)"><rect class="cls-1" x="115.38" y="36.39" width="7.57" height="7.57"/></clipPath><clipPath id="clip-path-5" transform="translate(0 0)"><rect class="cls-1" x="50.83" y="37.43" width="95.8" height="23.58"/></clipPath><clipPath id="clip-path-6" transform="translate(0 0)"><rect class="cls-1" x="68.7" y="76.6" width="4.42" height="4.42"/></clipPath><clipPath id="clip-path-7" transform="translate(0 0)"><rect class="cls-1" x="134.77" y="112.87" width="27.41" height="7.45"/></clipPath><clipPath id="clip-path-8" transform="translate(0 0)"><rect class="cls-1" x="10.69" y="170.44" width="206.34" height="68.69"/></clipPath></defs><g id="Capa_2" data-name="Capa 2"><g id="Capa_1-2" data-name="Capa 1"><path class="cls-2" d="M65.79,216.65a2.19,2.19,0,0,1-.54,1.52,5.46,5.46,0,0,1-1.62,1.17,16.17,16.17,0,0,1-3.56,1.06,22.76,22.76,0,0,1-4.59.46,21.57,21.57,0,0,1-6.6-1,13.89,13.89,0,0,1-5.15-3,13.11,13.11,0,0,1-3.35-5,19.46,19.46,0,0,1-1.19-7.13,18.88,18.88,0,0,1,1.24-7.1,14.1,14.1,0,0,1,3.38-5,13.89,13.89,0,0,1,5-3,18.16,18.16,0,0,1,6-1,20.72,20.72,0,0,1,4,.36,14.31,14.31,0,0,1,3.12.93,7.05,7.05,0,0,1,2,1.3,2,2,0,0,1,.72,1.42,1.86,1.86,0,0,1-.42,1.22,2.73,2.73,0,0,1-1,.76A19.48,19.48,0,0,0,60,193a12.88,12.88,0,0,0-4.9-.79,12.73,12.73,0,0,0-4.59.81,10.15,10.15,0,0,0-3.66,2.39,10.85,10.85,0,0,0-2.42,3.95,16,16,0,0,0-.88,5.48,15.7,15.7,0,0,0,.91,5.66A10.28,10.28,0,0,0,47,214.37a10.13,10.13,0,0,0,3.82,2.25,14.62,14.62,0,0,0,4.76.74,19.61,19.61,0,0,0,3.51-.3,10.75,10.75,0,0,0,2.58-.76V207H53.83a5,5,0,0,1-.31-.68,2.85,2.85,0,0,1-.15-.94,2.05,2.05,0,0,1,.41-1.35,1.49,1.49,0,0,1,1.19-.48h8.6a2.28,2.28,0,0,1,1.58.59,2,2,0,0,1,.64,1.54Z" transform="translate(0 0)"/><path class="cls-2" d="M81.1,196.11a11.54,11.54,0,0,1,7.11,2c1.76,1.31,2.63,3.39,2.63,6.23v12a2.76,2.76,0,0,1-.44,1.7,4.48,4.48,0,0,1-1.31,1.09,14.12,14.12,0,0,1-3.27,1.24,18.81,18.81,0,0,1-4.67.53q-4.84,0-7.5-1.88A6.23,6.23,0,0,1,71,213.61a6,6,0,0,1,2.21-5.05,12.27,12.27,0,0,1,6.24-2.11l7.32-.71v-1.42a4.34,4.34,0,0,0-1.55-3.7,6.75,6.75,0,0,0-4.17-1.17,13.49,13.49,0,0,0-4.07.61,23.94,23.94,0,0,0-3.41,1.37,4.43,4.43,0,0,1-.74-.81,1.62,1.62,0,0,1-.34-1,1.82,1.82,0,0,1,.36-1.17,3.53,3.53,0,0,1,1.14-.86,12.33,12.33,0,0,1,3.19-1.09A18.56,18.56,0,0,1,81.1,196.11Zm.05,21.45a12.42,12.42,0,0,0,3.58-.43,8.12,8.12,0,0,0,2-.83v-7.36l-6.39.66a8.18,8.18,0,0,0-4,1.19,3.21,3.21,0,0,0-1.29,2.77,3.38,3.38,0,0,0,1.5,3A7.9,7.9,0,0,0,81.15,217.56Z" transform="translate(0 0)"/><path class="cls-2" d="M114.19,214a6,6,0,0,1-2.42,5.07c-1.62,1.22-4,1.83-7,1.83a18.41,18.41,0,0,1-3.61-.33,13,13,0,0,1-2.81-.86,5.78,5.78,0,0,1-1.8-1.22,2.05,2.05,0,0,1-.65-1.39,2.18,2.18,0,0,1,.34-1.17,2.89,2.89,0,0,1,1-1,16.9,16.9,0,0,0,3.25,1.8,10.85,10.85,0,0,0,4.23.78q5.36,0,5.36-3.55,0-2.9-3.56-3.75l-4.28-1.12a9.27,9.27,0,0,1-4.58-2.36,5.57,5.57,0,0,1-1.45-4,6.15,6.15,0,0,1,.54-2.53,5.53,5.53,0,0,1,1.68-2.13,8.37,8.37,0,0,1,2.81-1.45,12.87,12.87,0,0,1,3.94-.53,13.74,13.74,0,0,1,5.83,1c1.47.69,2.21,1.49,2.21,2.41a2,2,0,0,1-.33,1.16,2.14,2.14,0,0,1-.9.76,18.1,18.1,0,0,0-2.63-1.32,10.5,10.5,0,0,0-4-.71,6.81,6.81,0,0,0-3.69.87,2.71,2.71,0,0,0-1.37,2.43,2.75,2.75,0,0,0,.78,2,5,5,0,0,0,2.58,1.22l3.55.86a11.4,11.4,0,0,1,5.26,2.56A6.08,6.08,0,0,1,114.19,214Z" transform="translate(0 0)"/><path class="cls-2" d="M127.59,220.86a10,10,0,0,1-5.85-1.57q-2.23-1.57-2.24-5.23V190a6.75,6.75,0,0,1,.8-.23,5.35,5.35,0,0,1,1.16-.13q2.16,0,2.16,1.83v5.83h8.46a4.71,4.71,0,0,1,.31.69,2.85,2.85,0,0,1,.15.94c0,1.15-.51,1.72-1.54,1.72h-7.38v13.19a3.32,3.32,0,0,0,1.16,2.87,5.62,5.62,0,0,0,3.28.83,7.49,7.49,0,0,0,2-.3,8.13,8.13,0,0,0,1.8-.71,3.35,3.35,0,0,1,.57.76,2.13,2.13,0,0,1,.25,1.06,2.07,2.07,0,0,1-1.34,1.83A8,8,0,0,1,127.59,220.86Z" transform="translate(0 0)"/><path class="cls-2" d="M146.41,196.11a11.54,11.54,0,0,1,7.11,2q2.63,2,2.63,6.23v12a2.82,2.82,0,0,1-.44,1.7,4.48,4.48,0,0,1-1.31,1.09,14,14,0,0,1-3.28,1.24,18.67,18.67,0,0,1-4.66.53q-4.85,0-7.5-1.88a6.23,6.23,0,0,1-2.66-5.42,6,6,0,0,1,2.22-5.05,12.27,12.27,0,0,1,6.24-2.11l7.32-.71v-1.42a4.34,4.34,0,0,0-1.55-3.7,6.75,6.75,0,0,0-4.17-1.17,13.51,13.51,0,0,0-4.08.61,24.28,24.28,0,0,0-3.4,1.37,4.87,4.87,0,0,1-.75-.81,1.67,1.67,0,0,1-.33-1,1.82,1.82,0,0,1,.36-1.17,3.58,3.58,0,0,1,1.13-.86,12.54,12.54,0,0,1,3.2-1.09A18.56,18.56,0,0,1,146.41,196.11Zm.05,21.45a12.42,12.42,0,0,0,3.58-.43,8.12,8.12,0,0,0,2-.83v-7.36l-6.39.66a8.18,8.18,0,0,0-4,1.19,3.21,3.21,0,0,0-1.29,2.77,3.4,3.4,0,0,0,1.49,3A8,8,0,0,0,146.46,217.56Z" transform="translate(0 0)"/><path class="cls-2" d="M166.77,220.1a6.77,6.77,0,0,1-.78.23,5,5,0,0,1-1.13.12c-1.48,0-2.22-.6-2.22-1.82v-17.2a3.44,3.44,0,0,1,.44-1.85,4.76,4.76,0,0,1,1.47-1.34,13.13,13.13,0,0,1,3.64-1.5,19.5,19.5,0,0,1,5.18-.63c2.74,0,4.12.67,4.12,2a2.56,2.56,0,0,1-.16.93,2.29,2.29,0,0,1-.41.74c-.34-.07-.79-.13-1.34-.2a13,13,0,0,0-1.65-.1,16.26,16.26,0,0,0-4.17.48,13,13,0,0,0-3,1.14Z" transform="translate(0 0)"/><g class="cls-3"><g class="cls-4"><path class="cls-5" d="M195.94,130.77c0,4.73-36.41,8.56-81.32,8.56s-81.31-3.83-81.31-8.56,36.4-8.55,81.31-8.55,81.32,3.83,81.32,8.55" transform="translate(0 0)"/></g></g><path class="cls-6" d="M167.2,116.93a9.55,9.55,0,0,1-10.41,8.63l-95.92-9.73a9.57,9.57,0,0,1-8.47-10.54l7.08-69.77A9.56,9.56,0,0,1,69.9,26.89l95.91,9.73a9.56,9.56,0,0,1,8.47,10.54Z" transform="translate(0 0)"/><rect class="cls-7" x="68.05" y="6.75" width="58.74" height="95.75" transform="translate(-12.14 32.92) rotate(-18.08)"/><path class="cls-8" d="M93.48,100.06,127.4,89a6.71,6.71,0,0,1,4.2-8.28L109.71,13.65a6.71,6.71,0,0,1-8.32-4.34.5.5,0,0,1,0-.13L67.43,20.26a.61.61,0,0,0,0,.12,6.71,6.71,0,0,1-4.17,8.41L85.2,95.86a6.71,6.71,0,0,1,8.28,4.2" transform="translate(0 0)"/><path class="cls-7" d="M80.46,60.37A17.9,17.9,0,1,1,103,71.84,17.89,17.89,0,0,1,80.46,60.37" transform="translate(0 0)"/><path class="cls-8" d="M109.67,49l.73,2.16-3.08,1.05c.65,3.41-.76,6.33-4.1,7.47L101.63,55c1.21-.41,1.56-1.28,1.11-2.63s-1.32-1.84-2.24-1.52c-.7.24-1,1-1,2.33l0,2.45c.12,3.94-1.23,6.4-4.07,7.37a5.27,5.27,0,0,1-4.69-.38,8.06,8.06,0,0,1-3.17-3.71l-3.37,1.15-.73-2.16,3.33-1.14c-.9-3.85.55-6.94,3.89-8.08l1.61,4.74c-1.09.47-1.59,1.48-1.07,3,.45,1.32,1.43,2.18,2.55,1.8a2.11,2.11,0,0,0,.4-.2,3.51,3.51,0,0,0,.54-2.28V53.22c-.3-4.75,2.21-6.36,4-7a5.69,5.69,0,0,1,4.53.25A7.34,7.34,0,0,1,106.61,50Z" transform="translate(0 0)"/><g class="cls-3"><g class="cls-9"><path class="cls-10" d="M84.35,109.25,140.19,91,110.48,0l-2.55.83c-4.76,8.29-18.51,27.35-47.47,35.22Z" transform="translate(0 0)"/></g></g><path class="cls-11" d="M155.15,43a24.72,24.72,0,1,1-16.9-30.61A24.72,24.72,0,0,1,155.15,43" transform="translate(0 0)"/><path class="cls-11" d="M155.15,43a24.72,24.72,0,1,1-16.9-30.61A24.72,24.72,0,0,1,155.15,43" transform="translate(0 0)"/><path class="cls-12" d="M151.39,42a20.81,20.81,0,1,1-14.23-25.77A20.81,20.81,0,0,1,151.39,42" transform="translate(0 0)"/><text class="cls-13" transform="translate(118.92 44.63) rotate(16.09)">$</text><g class="cls-14"><g class="cls-15"><path class="cls-16" d="M150.56,34.73a18,18,0,1,1-12.31-22.3,18,18,0,0,1,12.31,22.3" transform="translate(0 0)"/></g></g><g class="cls-14"><g class="cls-17"><path class="cls-16" d="M122.8,41.23a3.78,3.78,0,1,1-2.59-4.69,3.78,3.78,0,0,1,2.59,4.69" transform="translate(0 0)"/></g></g><path class="cls-18" d="M61.08,37.43H165.21a10.25,10.25,0,0,1,10.25,10.25v74.68a10.25,10.25,0,0,1-10.25,10.25H61.08a10.26,10.26,0,0,1-10.26-10.26V47.68A10.26,10.26,0,0,1,61.08,37.43Z"/><path class="cls-6" d="M175.46,122.36V47.68A10.25,10.25,0,0,0,170.6,39c-12.68,58.07-83,62.76-119.77,61.11v22.28a10.25,10.25,0,0,0,10.25,10.25H165.21a10.25,10.25,0,0,0,10.25-10.25" transform="translate(0 0)"/><g class="cls-19"><g class="cls-20"><path class="cls-21" d="M61.08,37.43A10.25,10.25,0,0,0,50.83,47.68v9.67c25.61,5.16,71.56,9.25,95.8-19.92Z" transform="translate(0 0)"/></g></g><path class="cls-22" d="M161.29,127.48h-11a.38.38,0,0,1-.39-.39.39.39,0,0,1,.39-.4h11a.4.4,0,0,1,.4.4.39.39,0,0,1-.4.39m-22.08,0H128.16a.39.39,0,0,1-.39-.39.4.4,0,0,1,.39-.4h11.05a.39.39,0,0,1,.39.4.38.38,0,0,1-.39.39m-22.09,0h-11a.39.39,0,0,1-.4-.39.4.4,0,0,1,.4-.4h11a.39.39,0,0,1,.39.4.38.38,0,0,1-.39.39m-22.09,0H84a.38.38,0,0,1-.39-.39.39.39,0,0,1,.39-.4H95a.4.4,0,0,1,.4.4.39.39,0,0,1-.4.39m-22.08,0H61.9a.38.38,0,0,1-.39-.39.39.39,0,0,1,.39-.4H73a.4.4,0,0,1,.39.4.39.39,0,0,1-.39.39m-11.87,0A5.13,5.13,0,0,1,56,122.36v-3.61a.39.39,0,1,1,.78,0v3.61a4.34,4.34,0,0,0,4.34,4.33.4.4,0,0,1,.4.4.39.39,0,0,1-.4.39m108.85-4.42h0a.4.4,0,0,1-.37-.43c0-.09,0-.18,0-.27V111.62a.39.39,0,1,1,.78,0v10.74c0,.11,0,.22,0,.33a.39.39,0,0,1-.39.37m-113.58-15a.39.39,0,0,1-.39-.39v-11a.39.39,0,0,1,.78,0v11a.39.39,0,0,1-.39.39M169.94,101a.39.39,0,0,1-.39-.4v-11a.39.39,0,1,1,.78,0v11a.39.39,0,0,1-.39.4M56.35,86a.38.38,0,0,1-.39-.39V74.57a.39.39,0,0,1,.78,0V85.62a.38.38,0,0,1-.39.39m113.59-7.13a.38.38,0,0,1-.39-.39v-11a.39.39,0,0,1,.78,0v11a.38.38,0,0,1-.39.39M56.35,63.93a.39.39,0,0,1-.39-.4v-11a.39.39,0,1,1,.78,0v11a.39.39,0,0,1-.39.4m113.59-7.14a.38.38,0,0,1-.39-.39V47.68a4.27,4.27,0,0,0-.52-2,.4.4,0,0,1,.17-.54.4.4,0,0,1,.53.16,5.22,5.22,0,0,1,.6,2.42V56.4a.38.38,0,0,1-.39.39m-110-13.3a.39.39,0,0,1-.1-.77,5.06,5.06,0,0,1,1.28-.17h9.85a.39.39,0,0,1,.39.4.38.38,0,0,1-.39.39H61.08a4.32,4.32,0,0,0-1.08.14h-.1m99.38-.15H148.23a.38.38,0,0,1-.39-.39.39.39,0,0,1,.39-.4h11.05a.4.4,0,0,1,.39.4.39.39,0,0,1-.39.39m-22.09,0h-11a.39.39,0,0,1-.4-.39.4.4,0,0,1,.4-.4h11a.39.39,0,0,1,.39.4.38.38,0,0,1-.39.39m-22.09,0h-11a.39.39,0,0,1-.4-.39.4.4,0,0,1,.4-.4h11a.4.4,0,0,1,.4.4.39.39,0,0,1-.4.39M93,43.34H82a.38.38,0,0,1-.39-.39.39.39,0,0,1,.39-.4H93a.4.4,0,0,1,.39.4.39.39,0,0,1-.39.39" transform="translate(0 0)"/><path class="cls-23" d="M79,84.76A10.25,10.25,0,0,1,68.71,95H50.83c-5.66,0-5.52-4.59-5.52-10.25V81.34c0-5.67-.14-10.26,5.52-10.26H68.71A10.25,10.25,0,0,1,79,81.34Z" transform="translate(0 0)"/><path class="cls-24" d="M75.41,83a7.58,7.58,0,1,1-7.58-7.57A7.58,7.58,0,0,1,75.41,83" transform="translate(0 0)"/><path class="cls-25" d="M74.72,81.82a6.09,6.09,0,1,1-6.09-6.08,6.09,6.09,0,0,1,6.09,6.08" transform="translate(0 0)"/><g class="cls-14"><g class="cls-26"><path class="cls-16" d="M73.12,78.81a2.21,2.21,0,1,1-2.21-2.21,2.21,2.21,0,0,1,2.21,2.21" transform="translate(0 0)"/></g></g><path class="cls-25" d="M136.35,110.85h24.26a1.57,1.57,0,0,1,1.57,1.57v6.31a1.58,1.58,0,0,1-1.58,1.58H136.35a1.58,1.58,0,0,1-1.58-1.58v-6.31A1.58,1.58,0,0,1,136.35,110.85Z"/><g class="cls-19"><g class="cls-27"><path class="cls-24" d="M162.18,118.74v-2.87c-3.74.92-16.58,3.35-27.41-3v5.87a1.58,1.58,0,0,0,1.58,1.58H160.6a1.58,1.58,0,0,0,1.58-1.58" transform="translate(0 0)"/></g></g><g class="cls-28"><g class="cls-29"><path class="cls-30" d="M190.29,240.13H11.83V171.44H190.29a27.87,27.87,0,0,1,27.88,27.87v12.95a27.87,27.87,0,0,1-27.88,27.87" transform="translate(0 0)"/></g></g><path class="cls-31" d="M25.75,205.39l-11,32.86a7.59,7.59,0,1,1-14.4-4.8L9.77,205.3.37,176a7.59,7.59,0,1,1,14.45-4.64Z" transform="translate(0 0)"/></g></g></svg>