<svg xmlns="http://www.w3.org/2000/svg" xmlns:xlink="http://www.w3.org/1999/xlink" viewBox="0 0 217.11 265.28"><defs><style>.cls-1{fill:none;}.cls-2{fill:#6d6e71;}.cls-3{opacity:0.2;}.cls-4{clip-path:url(#clip-path);}.cls-5{fill:#231f20;}.cls-6{fill:#a7e5ea;}.cls-7{fill:#fdd66f;}.cls-17,.cls-21,.cls-24,.cls-8{fill:#ecad00;}.cls-9{clip-path:url(#clip-path-2);}.cls-10{fill:#fff;}.cls-11{clip-path:url(#clip-path-3);}.cls-12{clip-path:url(#clip-path-4);}.cls-13{clip-path:url(#clip-path-5);}.cls-14{clip-path:url(#clip-path-6);}.cls-15{clip-path:url(#clip-path-7);}.cls-16{clip-path:url(#clip-path-8);}.cls-17{font-size:26.96px;}.cls-17,.cls-21,.cls-24{font-family:SofiaPro-Black, SofiaPro Black;font-weight:800;}.cls-18{opacity:0.3;}.cls-19{clip-path:url(#clip-path-9);}.cls-20{clip-path:url(#clip-path-10);}.cls-21{font-size:26.96px;}.cls-22{clip-path:url(#clip-path-11);}.cls-23{clip-path:url(#clip-path-12);}.cls-24{font-size:26.96px;}.cls-25{clip-path:url(#clip-path-13);}.cls-26{clip-path:url(#clip-path-14);}.cls-27{clip-path:url(#clip-path-15);}.cls-28{fill:#cdf8f9;}.cls-29{fill:#a97c50;}.cls-30{opacity:0.8;}.cls-31{clip-path:url(#clip-path-16);}.cls-32{clip-path:url(#clip-path-17);}.cls-33{fill:#726658;}.cls-34{opacity:0.23;}.cls-35{fill:#a7a6a7;}.cls-36{fill:#218400;}</style><clipPath id="clip-path" transform="translate(0 -0.13)"><rect class="cls-1" x="47.34" y="145" width="118" height="16"/></clipPath><clipPath id="clip-path-2" transform="translate(0 -0.13)"><rect class="cls-1" x="85.34" y="143" width="44" height="6"/></clipPath><clipPath id="clip-path-3" transform="translate(0 -0.13)"><rect class="cls-1" x="91.34" y="137" width="44" height="6"/></clipPath><clipPath id="clip-path-4" transform="translate(0 -0.13)"><rect class="cls-1" x="84.34" y="131" width="44" height="6"/></clipPath><clipPath id="clip-path-5" transform="translate(0 -0.13)"><rect class="cls-1" x="90.34" y="124" width="44" height="6"/></clipPath><clipPath id="clip-path-6" transform="translate(0 -0.13)"><rect class="cls-1" x="90.34" y="111" width="44" height="9"/></clipPath><clipPath id="clip-path-7" transform="translate(0 -0.13)"><rect class="cls-1" x="86.34" y="118" width="44" height="6"/></clipPath><clipPath id="clip-path-8" transform="translate(0 -0.13)"><rect class="cls-1" x="86.34" y="102" width="44" height="10"/></clipPath><clipPath id="clip-path-9" transform="translate(0 -0.13)"><rect class="cls-1" x="104.34" y="63" width="28" height="28"/></clipPath><clipPath id="clip-path-10" transform="translate(0 -0.13)"><rect class="cls-1" x="104.34" y="83" width="6" height="6"/></clipPath><clipPath id="clip-path-11" transform="translate(0 -0.13)"><rect class="cls-1" x="91.34" width="28" height="28"/></clipPath><clipPath id="clip-path-12" transform="translate(0 -0.13)"><rect class="cls-1" x="96.34" y="23" width="6" height="6"/></clipPath><clipPath id="clip-path-13" transform="translate(0 -0.13)"><rect class="cls-1" x="74.34" y="111" width="28" height="28"/></clipPath><clipPath id="clip-path-14" transform="translate(0 -0.13)"><rect class="cls-1" x="81.34" y="135" width="6" height="6"/></clipPath><clipPath id="clip-path-15" transform="translate(0 -0.13)"><rect class="cls-1" x="51.34" y="38" width="111" height="113"/></clipPath><clipPath id="clip-path-16" transform="translate(0 -0.13)"><rect class="cls-1" x="55.34" y="44" width="30" height="96"/></clipPath><clipPath id="clip-path-17" transform="translate(0 -0.13)"><rect class="cls-1" x="137.34" y="44" width="24" height="23"/></clipPath></defs><g id="Capa_2" data-name="Capa 2"><g id="Capa_1-2" data-name="Capa 1"><path class="cls-2" d="M53.19,234H39.37c-.24.68-.5,1.41-.77,2.21s-.54,1.57-.8,2.33-.51,1.47-.75,2.13-.43,1.21-.57,1.65a4.38,4.38,0,0,1-1.7.3,2.51,2.51,0,0,1-1.46-.43,1.54,1.54,0,0,1-.65-1.39,2.86,2.86,0,0,1,.16-.94c.1-.32.22-.67.36-1q.77-2.13,2-5.48c.81-2.23,1.68-4.61,2.63-7.12s1.91-5.06,2.89-7.61,1.88-4.85,2.7-6.88a6.69,6.69,0,0,1,1.24-.4,6.88,6.88,0,0,1,1.7-.21,6.62,6.62,0,0,1,2,.31,1.75,1.75,0,0,1,1.21,1c.82,2,1.7,4.21,2.65,6.72s1.9,5.1,2.86,7.74,1.88,5.23,2.76,7.79,1.66,4.86,2.34,6.92a3.18,3.18,0,0,1-1,.73,2.84,2.84,0,0,1-1.29.28,2.27,2.27,0,0,1-1.5-.43,3.29,3.29,0,0,1-.87-1.44Zm-6.91-19.43L45,218c-.48,1.3-1,2.66-1.49,4.08s-1,2.86-1.55,4.31-1,2.84-1.44,4.16H52.1q-.76-2.28-1.59-4.59t-1.58-4.44c-.49-1.42-1-2.73-1.39-3.93s-.78-2.22-1.06-3.07Z" transform="translate(0 -0.13)"/><path class="cls-2" d="M67.93,242.29a4.52,4.52,0,0,1-1.14.13c-1.47,0-2.21-.61-2.21-1.82V209.3a6.75,6.75,0,0,1,.8-.23,5.28,5.28,0,0,1,1.16-.13q2.16,0,2.16,1.83v9.13a16.5,16.5,0,0,1,2.91-1.27,12,12,0,0,1,3.79-.56,13.23,13.23,0,0,1,3.95.56,8.32,8.32,0,0,1,3.06,1.7,7.74,7.74,0,0,1,2,2.89,10.71,10.71,0,0,1,.72,4.09v14.76a6.87,6.87,0,0,1-.79.22,4.67,4.67,0,0,1-1.11.13c-1.48,0-2.22-.61-2.22-1.82V227.41a5.67,5.67,0,0,0-1.7-4.52,6.62,6.62,0,0,0-4.49-1.47,8.79,8.79,0,0,0-3.37.64,11.42,11.42,0,0,0-2.76,1.54v18.47A7.59,7.59,0,0,1,67.93,242.29Z" transform="translate(0 -0.13)"/><path class="cls-2" d="M114,230.45a15,15,0,0,1-.83,5.12,11,11,0,0,1-2.34,3.91,10.06,10.06,0,0,1-3.69,2.48,13.93,13.93,0,0,1-9.69,0,10.3,10.3,0,0,1-3.71-2.48,10.94,10.94,0,0,1-2.37-3.91,15,15,0,0,1-.82-5.12,14.51,14.51,0,0,1,.85-5.12,11.22,11.22,0,0,1,2.39-3.91,10.3,10.3,0,0,1,3.71-2.48,13.65,13.65,0,0,1,9.59,0,10.06,10.06,0,0,1,3.69,2.48,11.64,11.64,0,0,1,2.37,3.91A14.51,14.51,0,0,1,114,230.45Zm-11.7-9a6.84,6.84,0,0,0-5.52,2.39,12.07,12.07,0,0,0,0,13.31,6.85,6.85,0,0,0,5.54,2.36,6.72,6.72,0,0,0,5.51-2.38,12.19,12.19,0,0,0,0-13.29A6.75,6.75,0,0,0,102.31,221.42Z" transform="translate(0 -0.13)"/><path class="cls-2" d="M123.49,242.07a7.59,7.59,0,0,1-.77.22,4.44,4.44,0,0,1-1.13.13c-1.48,0-2.22-.61-2.22-1.82V223.4a3.42,3.42,0,0,1,.44-1.85,4.53,4.53,0,0,1,1.47-1.34,13,13,0,0,1,3.63-1.5,19.59,19.59,0,0,1,5.18-.64q4.13,0,4.13,2a2.85,2.85,0,0,1-.16.94,2.4,2.4,0,0,1-.41.74c-.35-.07-.79-.14-1.34-.21a15.22,15.22,0,0,0-1.65-.1,15.94,15.94,0,0,0-4.18.49,13.18,13.18,0,0,0-3,1.14Z" transform="translate(0 -0.13)"/><path class="cls-2" d="M142,242.07a8,8,0,0,1-.78.22,4.44,4.44,0,0,1-1.13.13c-1.48,0-2.22-.61-2.22-1.82V223.4a3.42,3.42,0,0,1,.44-1.85,4.53,4.53,0,0,1,1.47-1.34,13,13,0,0,1,3.63-1.5,19.59,19.59,0,0,1,5.18-.64q4.13,0,4.13,2a2.61,2.61,0,0,1-.16.94,2.4,2.4,0,0,1-.41.74c-.34-.07-.79-.14-1.34-.21a15.22,15.22,0,0,0-1.65-.1,15.81,15.81,0,0,0-4.17.49,13,13,0,0,0-3,1.14Z" transform="translate(0 -0.13)"/><path class="cls-2" d="M164.73,218.07a11.54,11.54,0,0,1,7.11,2c1.76,1.32,2.63,3.4,2.63,6.24v12A2.8,2.8,0,0,1,174,240a4.2,4.2,0,0,1-1.31,1.09,13.65,13.65,0,0,1-3.27,1.25,18.81,18.81,0,0,1-4.67.53q-4.84,0-7.5-1.88a6.23,6.23,0,0,1-2.65-5.43,5.94,5.94,0,0,1,2.21-5,12.08,12.08,0,0,1,6.24-2.11l7.32-.71v-1.42a4.34,4.34,0,0,0-1.55-3.7,6.75,6.75,0,0,0-4.17-1.17,13.44,13.44,0,0,0-4.07.61,22.82,22.82,0,0,0-3.41,1.37,5.2,5.2,0,0,1-.74-.81,1.65,1.65,0,0,1-.34-1,1.81,1.81,0,0,1,.36-1.16,3.54,3.54,0,0,1,1.14-.87,12.71,12.71,0,0,1,3.19-1.08A18.54,18.54,0,0,1,164.73,218.07Zm.05,21.46a12.42,12.42,0,0,0,3.58-.43,8.45,8.45,0,0,0,2-.84v-7.35l-6.39.66a8.08,8.08,0,0,0-4,1.19,3.2,3.2,0,0,0-1.29,2.76,3.4,3.4,0,0,0,1.49,3A8,8,0,0,0,164.78,239.53Z" transform="translate(0 -0.13)"/><path class="cls-2" d="M185.09,242.07a7.59,7.59,0,0,1-.77.22,4.57,4.57,0,0,1-1.14.13c-1.48,0-2.21-.61-2.21-1.82V223.4a3.42,3.42,0,0,1,.43-1.85,4.53,4.53,0,0,1,1.47-1.34,13.26,13.26,0,0,1,3.64-1.5,19.48,19.48,0,0,1,5.18-.64q4.13,0,4.12,2a2.85,2.85,0,0,1-.15.94,2.65,2.65,0,0,1-.42.74c-.34-.07-.79-.14-1.34-.21a15.22,15.22,0,0,0-1.65-.1,15.81,15.81,0,0,0-4.17.49,13.18,13.18,0,0,0-3,1.14Z" transform="translate(0 -0.13)"/><g class="cls-3"><g class="cls-4"><path class="cls-5" d="M165.06,153.24c0,4.45-26.34,8.06-58.83,8.06s-58.83-3.61-58.83-8.06,26.34-8.06,58.83-8.06,58.83,3.61,58.83,8.06" transform="translate(0 -0.13)"/></g></g><path class="cls-6" d="M141.41,35S163,43.33,164.53,56.61s-2.25,79.4-19.2,95.28c0,0-15.59,5-38.4,5s-22.74,0-38.39-5c-17-15.88-20.75-82-19.21-95.28S72.45,35,72.45,35Z" transform="translate(0 -0.13)"/><rect class="cls-7" x="86.34" y="142.87" width="41" height="5"/><rect class="cls-8" x="84.34" y="142.87" width="45" height="6"/><g class="cls-3"><g class="cls-9"><polygon class="cls-10" points="84.66 148.87 94.18 148.87 98.38 142.87 88.86 142.87 84.66 148.87"/><polygon class="cls-10" points="106.06 142.87 102.5 142.87 98.3 148.87 101.86 148.87 106.06 142.87"/><polygon class="cls-10" points="129.34 144.87 126.54 148.87 129.34 148.87 129.34 144.87"/><polygon class="cls-10" points="123.84 142.87 114.31 142.87 110.11 148.87 119.64 148.87 123.84 142.87"/></g></g><polygon class="cls-7" points="133.28 141.87 92.34 141.38 92.4 135.87 133.34 136.37 133.28 141.87"/><rect class="cls-8" x="110.09" y="117.53" width="5.51" height="44.94" transform="translate(-28.38 251.18) rotate(-89.37)"/><g class="cls-3"><g class="cls-11"><polygon class="cls-10" points="91.48 141.87 99.63 141.96 103.28 136.87 95.13 136.78 91.48 141.87"/><polygon class="cls-10" points="112.01 136.87 108.41 136.83 104.07 142.87 107.68 142.91 112.01 136.87"/><polygon class="cls-10" points="135.39 138.9 132.54 142.87 135.34 142.9 135.39 138.9"/><polygon class="cls-10" points="128.74 137.87 120.58 137.78 116.93 142.87 125.08 142.97 128.74 137.87"/></g></g><rect class="cls-7" x="103.37" y="112" width="4.95" height="40.99" transform="translate(-26.78 238.06) rotate(-89.93)"/><rect class="cls-8" x="102.87" y="111.5" width="5.94" height="44.99" transform="translate(-28.29 239.54) rotate(-89.93)"/><g class="cls-3"><g class="cls-12"><polygon class="cls-10" points="83.5 136.87 93.05 136.88 97.28 130.87 87.72 130.86 83.5 136.87"/><polygon class="cls-10" points="104.94 130.87 101.38 130.87 97.16 136.87 100.72 136.88 104.94 130.87"/><polygon class="cls-10" points="128.35 132.87 125.54 136.87 128.34 136.88 128.35 132.87"/><polygon class="cls-10" points="122.73 130.87 113.17 130.86 108.95 136.87 118.51 136.89 122.73 130.87"/></g></g><rect class="cls-7" x="109.37" y="106" width="4.95" height="40.99" transform="translate(-14.8 238.06) rotate(-89.93)"/><rect class="cls-8" x="108.87" y="104.5" width="5.94" height="44.99" transform="translate(-15.3 238.55) rotate(-89.92)"/><g class="cls-3"><g class="cls-13"><polygon class="cls-10" points="89.38 129.87 98.94 129.89 103.17 123.87 93.61 123.86 89.38 129.87"/><polygon class="cls-10" points="110.83 123.87 107.27 123.87 103.05 129.87 106.61 129.88 110.83 123.87"/><polygon class="cls-10" points="134.35 125.87 131.54 129.87 134.34 129.88 134.35 125.87"/><polygon class="cls-10" points="128.62 123.87 119.06 123.86 114.84 129.87 124.4 129.88 128.62 123.87"/></g></g><rect class="cls-7" x="91.17" y="111.28" width="40.78" height="5.12" transform="translate(-9.13 9.6) rotate(-4.8)"/><rect class="cls-8" x="89.26" y="112.09" width="44.78" height="5.62" transform="translate(-9.22 9.61) rotate(-4.8)"/><g class="cls-3"><g class="cls-14"><polygon class="cls-10" points="90.1 119.41 99 118.66 102.45 112.73 93.56 113.48 90.1 119.41"/><polygon class="cls-10" points="110.29 112.07 106.97 112.35 103.51 118.28 106.83 118 110.29 112.07"/><polygon class="cls-10" points="133.86 111.72 131.4 115.94 134.2 115.71 133.86 111.72"/><polygon class="cls-10" points="127.82 110.6 118.92 111.35 115.47 117.28 124.36 116.53 127.82 110.6"/></g></g><rect class="cls-7" x="105.52" y="99.78" width="5.12" height="40.78" transform="translate(-14.14 225.8) rotate(-88.9)"/><rect class="cls-8" x="105.24" y="98.85" width="5.62" height="44.78" transform="translate(-15.23 226.82) rotate(-88.9)"/><g class="cls-3"><g class="cls-15"><polygon class="cls-10" points="86.14 123.5 95.07 123.67 99.11 118.13 90.19 117.96 86.14 123.5"/><polygon class="cls-10" points="106.97 118.28 103.64 118.21 99.6 123.76 102.93 123.82 106.97 118.28"/><polygon class="cls-10" points="130.46 120.34 127.58 124.3 130.38 124.35 130.46 120.34"/><polygon class="cls-10" points="124.56 118.61 115.64 118.44 111.59 123.99 120.52 124.16 124.56 118.61"/></g></g><rect class="cls-7" x="105.62" y="85.07" width="5.12" height="40.78" transform="translate(-7.41 202.61) rotate(-84.35)"/><rect class="cls-8" x="105.27" y="84.13" width="5.62" height="44.78" transform="translate(-8.56 203.46) rotate(-84.35)"/><g class="cls-3"><g class="cls-16"><polygon class="cls-10" points="86.04 107.04 94.93 107.92 99.4 102.71 90.51 101.83 86.04 107.04"/><polygon class="cls-10" points="107.22 103.48 103.91 103.15 99.43 108.36 102.75 108.69 107.22 103.48"/><polygon class="cls-10" points="130.47 107.41 127.28 111.11 130.08 111.39 130.47 107.41"/><polygon class="cls-10" points="124.73 105.22 115.84 104.33 111.37 109.54 120.25 110.42 124.73 105.22"/></g></g><path class="cls-8" d="M135.79,85.43A19.16,19.16,0,1,1,120.59,63a19.15,19.15,0,0,1,15.2,22.44" transform="translate(0 -0.13)"/><path class="cls-8" d="M135.79,85.43A19.16,19.16,0,1,1,120.59,63a19.15,19.15,0,0,1,15.2,22.44" transform="translate(0 -0.13)"/><path class="cls-7" d="M132.82,84.86A16.13,16.13,0,1,1,120,66a16.12,16.12,0,0,1,12.8,18.89" transform="translate(0 -0.13)"/><text class="cls-17" transform="matrix(0.98, 0.19, -0.19, 0.98, 108.03, 89.14)">$</text><g class="cls-18"><g class="cls-19"><path class="cls-10" d="M131.67,79.34A14,14,0,1,1,120.59,63a14,14,0,0,1,11.08,16.35" transform="translate(0 -0.13)"/></g></g><g class="cls-18"><g class="cls-20"><path class="cls-10" d="M110.69,86.3a2.93,2.93,0,1,1-2.32-3.43,2.92,2.92,0,0,1,2.32,3.43" transform="translate(0 -0.13)"/></g></g><path class="cls-8" d="M124.82,15.53A19.16,19.16,0,1,1,102.27.5a19.17,19.17,0,0,1,22.55,15" transform="translate(0 -0.13)"/><path class="cls-8" d="M124.82,15.53A19.16,19.16,0,1,1,102.27.5a19.17,19.17,0,0,1,22.55,15" transform="translate(0 -0.13)"/><path class="cls-7" d="M121.85,16.12a16.14,16.14,0,1,1-19-12.64,16.13,16.13,0,0,1,19,12.64" transform="translate(0 -0.13)"/><text class="cls-21" transform="matrix(0.98, -0.2, 0.2, 0.98, 100.58, 29.51)">$</text><g class="cls-18"><g class="cls-22"><path class="cls-10" d="M118.7,11.45A14,14,0,1,1,102.27.5a14,14,0,0,1,16.43,11" transform="translate(0 -0.13)"/></g></g><g class="cls-18"><g class="cls-23"><path class="cls-10" d="M101.91,25.83a2.93,2.93,0,1,1-3.45-2.3,2.93,2.93,0,0,1,3.45,2.3" transform="translate(0 -0.13)"/></g></g><path class="cls-8" d="M108.52,123.86a19.16,19.16,0,1,1-24.34-11.92,19.18,19.18,0,0,1,24.34,11.92" transform="translate(0 -0.13)"/><path class="cls-8" d="M108.52,123.86a19.16,19.16,0,1,1-24.34-11.92,19.18,19.18,0,0,1,24.34,11.92" transform="translate(0 -0.13)"/><path class="cls-7" d="M105.65,124.84a16.14,16.14,0,1,1-20.49-10,16.13,16.13,0,0,1,20.49,10" transform="translate(0 -0.13)"/><text class="cls-24" transform="translate(86.39 140.9) rotate(-18.91)">$</text><g class="cls-18"><g class="cls-25"><path class="cls-10" d="M101.91,120.62a14,14,0,1,1-17.73-8.68,14,14,0,0,1,17.73,8.68" transform="translate(0 -0.13)"/></g></g><g class="cls-18"><g class="cls-26"><path class="cls-10" d="M87.16,137.09a2.93,2.93,0,1,1-3.72-1.82,2.94,2.94,0,0,1,3.72,1.82" transform="translate(0 -0.13)"/></g></g><g class="cls-3"><g class="cls-27"><path class="cls-28" d="M106.93,151.41c-19.77,0-34.08-.58-37-1.44-15.49-15.6-19.5-79.56-18-92.67C53.16,46.71,70,39.23,73,38H140.9c2.93,1.23,19.8,8.71,21,19.3,1.53,13.11-2.48,77.07-18,92.67-3,.86-17.31,1.44-37,1.44" transform="translate(0 -0.13)"/></g></g><polygon class="cls-29" points="67.73 25.87 72.28 35.87 141.02 35.87 146.13 25.87 67.73 25.87"/><g class="cls-30"><g class="cls-31"><path class="cls-10" d="M86.34,44H67.41c-12.89,8.33-12,16.75-12,16.75,0,46.56,15.73,79.41,15.73,79.41s-2.9-38.07-2.9-60c0-15.84,11.3-29.64,17.62-36.11" transform="translate(0 -0.13)"/></g></g><g class="cls-30"><g class="cls-32"><path class="cls-10" d="M147.34,44H137c12.39,3.43,23.75,22.75,23.75,22.75,0-13.11-9-20-13.72-22.75" transform="translate(0 -0.13)"/></g></g><polygon class="cls-33" points="69.72 31.87 71.42 35.87 141.87 35.87 143.77 31.87 69.72 31.87"/><g class="cls-34"><path class="cls-35" d="M189.11,261.38h-178v-69H189.24a27.87,27.87,0,0,1,27.87,27.87v13.13a27.92,27.92,0,0,1-27.83,28" transform="translate(0 -0.13)"/></g><path class="cls-36" d="M25.75,227.36l-11,32.85a7.59,7.59,0,1,1-14.4-4.8l9.38-28.14L.37,198a7.59,7.59,0,1,1,14.45-4.64Z" transform="translate(0 -0.13)"/></g></g></svg>