<svg xmlns="http://www.w3.org/2000/svg" xmlns:xlink="http://www.w3.org/1999/xlink" viewBox="0 0 218.57 309.56"><defs><style>.cls-1{fill:none;}.cls-2{fill:#6d6e71;}.cls-3{opacity:0.2;}.cls-4{clip-path:url(#clip-path);}.cls-5{fill:#231f20;}.cls-6{fill:#edf5d0;}.cls-7{fill:#9da88f;}.cls-8{fill:#ededed;}.cls-9{fill:#f5b026;}.cls-10{fill:#cfcfcf;}.cls-11{fill:#da8108;}.cls-12{fill:#81b53c;}.cls-12,.cls-13{fill-rule:evenodd;}.cls-13{fill:#94cc49;}.cls-14{opacity:0.15;}.cls-15{fill:#1d1d1b;}.cls-16{opacity:0.23;}.cls-17{clip-path:url(#clip-path-2);}.cls-18{fill:#a7a6a7;}.cls-19{fill:#218400;}</style><clipPath id="clip-path"><rect class="cls-1" x="8.91" y="187.15" width="183" height="18"/></clipPath><clipPath id="clip-path-2"><rect class="cls-1" x="9.91" y="236.15" width="206" height="69"/></clipPath></defs><g id="Capa_2" data-name="Capa 2"><g id="Capa_1-2" data-name="Capa 1"><path class="cls-2" d="M42,286.45a5,5,0,0,1-1.13.12c-1.51,0-2.27-.62-2.27-1.87V255.58c.17-.06.44-.14.8-.23a5.36,5.36,0,0,1,1.16-.12c1.48,0,2.22.62,2.22,1.87v29.12C42.63,286.29,42.37,286.36,42,286.45Z"/><path class="cls-2" d="M65.25,266.89a6.74,6.74,0,0,0-4.35-1.32,12,12,0,0,0-3.66.51,13.48,13.48,0,0,0-2.73,1.17v19a7.45,7.45,0,0,1-.78.23,5,5,0,0,1-1.13.12c-1.48,0-2.22-.6-2.22-1.82v-17.3a3.22,3.22,0,0,1,.44-1.75,4.68,4.68,0,0,1,1.52-1.34,15.48,15.48,0,0,1,3.56-1.47,17.45,17.45,0,0,1,5-.66,11.82,11.82,0,0,1,7.39,2.08Q71,266.38,71,270.85v15.37a6.75,6.75,0,0,1-.8.23,5.1,5.1,0,0,1-1.11.12c-1.48,0-2.21-.6-2.21-1.82v-13.7A5,5,0,0,0,65.25,266.89Z"/><path class="cls-2" d="M94.92,262.43a2.08,2.08,0,0,1,1.41.46,1.6,1.6,0,0,1,.55,1.32,8.1,8.1,0,0,1-.42,2q-.4,1.39-1.08,3.3c-.45,1.26-.95,2.66-1.52,4.18s-1.17,3-1.8,4.54-1.28,2.95-1.91,4.34-1.23,2.58-1.78,3.6a2.49,2.49,0,0,1-.9.35,6,6,0,0,1-1.37.16,2.55,2.55,0,0,1-2.47-1.07c-.31-.58-.71-1.37-1.19-2.38s-1-2.17-1.54-3.45-1.12-2.66-1.7-4.11-1.16-2.9-1.71-4.34-1.06-2.82-1.54-4.16-.88-2.53-1.19-3.57a2.64,2.64,0,0,1,1-.82,2.83,2.83,0,0,1,1.24-.3,2,2,0,0,1,1.42.46,4.24,4.24,0,0,1,.9,1.52l3.19,9.08.78,2.1c.31.83.62,1.68,1,2.54s.65,1.7,1,2.51.59,1.5.8,2.08h.21q2.06-5.13,3.84-10.09t3.11-9.79A3.4,3.4,0,0,1,94.92,262.43Z"/><path class="cls-2" d="M104.09,277q1.39,6.64,8.87,6.64a10.16,10.16,0,0,0,3.91-.71,11.52,11.52,0,0,0,2.79-1.52,2.17,2.17,0,0,1,1.24,1.93,2,2,0,0,1-.65,1.37,5.61,5.61,0,0,1-1.75,1.16,12.43,12.43,0,0,1-2.58.82,15.8,15.8,0,0,1-3.17.3q-6,0-9.46-3.2t-3.48-9.33a14.71,14.71,0,0,1,.85-5.15,11.18,11.18,0,0,1,2.37-3.83,10.43,10.43,0,0,1,3.64-2.41,12.52,12.52,0,0,1,4.59-.83,11.62,11.62,0,0,1,4.27.76,9.77,9.77,0,0,1,3.38,2.15,10,10,0,0,1,2.22,3.3,10.75,10.75,0,0,1,.8,4.19,2.11,2.11,0,0,1-.52,1.59,2.38,2.38,0,0,1-1.44.59Zm7.11-11.47a6.88,6.88,0,0,0-5.2,2.16,8.9,8.9,0,0,0-2.17,6.16L118,271.92a7.44,7.44,0,0,0-2-4.6A6.39,6.39,0,0,0,111.2,265.52Z"/><path class="cls-2" d="M131.05,286.22a7.12,7.12,0,0,1-.77.23,5,5,0,0,1-1.14.12c-1.48,0-2.21-.6-2.21-1.82v-17.2a3.45,3.45,0,0,1,.43-1.85,5,5,0,0,1,1.47-1.34,13.26,13.26,0,0,1,3.64-1.5,19.55,19.55,0,0,1,5.18-.63c2.75,0,4.12.67,4.12,2a2.79,2.79,0,0,1-.15.93,2.31,2.31,0,0,1-.42.74c-.34-.07-.79-.13-1.34-.2a13,13,0,0,0-1.65-.1,16.26,16.26,0,0,0-4.17.48,13.18,13.18,0,0,0-3,1.14Z"/><path class="cls-2" d="M153.78,287a10,10,0,0,1-5.85-1.57q-2.24-1.57-2.24-5.23V256.09a6.75,6.75,0,0,1,.8-.23,5.28,5.28,0,0,1,1.16-.13q2.16,0,2.16,1.83v5.83h8.46a3.91,3.91,0,0,1,.3.69,2.61,2.61,0,0,1,.16.94c0,1.15-.52,1.72-1.55,1.72h-7.37v13.19A3.32,3.32,0,0,0,151,282.8a5.58,5.58,0,0,0,3.27.83,7.37,7.37,0,0,0,2-.3,8,8,0,0,0,1.81-.71,3.33,3.33,0,0,1,.56.76,2,2,0,0,1,.26,1.06,2.07,2.07,0,0,1-1.34,1.83A8,8,0,0,1,153.78,287Z"/><path class="cls-2" d="M163.47,255.48a2.42,2.42,0,0,1,.75-1.8,2.64,2.64,0,0,1,1.93-.74,2.56,2.56,0,0,1,1.91.74,2.61,2.61,0,0,1,0,3.6,2.56,2.56,0,0,1-1.91.74,2.64,2.64,0,0,1-1.93-.74A2.42,2.42,0,0,1,163.47,255.48Zm4.74,30.74a7.12,7.12,0,0,1-.77.23,5,5,0,0,1-1.13.12c-1.48,0-2.22-.6-2.22-1.82V263a5.24,5.24,0,0,1,.8-.23,5.35,5.35,0,0,1,1.16-.13c1.44,0,2.16.63,2.16,1.88Z"/><path class="cls-2" d="M179.4,286.22a7.12,7.12,0,0,1-.77.23,5.11,5.11,0,0,1-1.14.12c-1.48,0-2.21-.6-2.21-1.82v-17.2a3.45,3.45,0,0,1,.43-1.85,4.76,4.76,0,0,1,1.47-1.34,13.13,13.13,0,0,1,3.64-1.5,19.5,19.5,0,0,1,5.18-.63c2.74,0,4.12.67,4.12,2a2.79,2.79,0,0,1-.15.93,2.51,2.51,0,0,1-.42.74c-.34-.07-.79-.13-1.34-.2a13,13,0,0,0-1.65-.1,16.26,16.26,0,0,0-4.17.48,13.18,13.18,0,0,0-3,1.14Z"/><g class="cls-3"><g class="cls-4"><path class="cls-5" d="M192,196.47c0,5-41,9-91.49,9s-91.49-4-91.49-9,41-9,91.49-9,91.49,4,91.49,9"/></g></g><polygon class="cls-6" points="84.3 182.15 32.72 182.15 46.62 169.15 89.23 169.15 89.76 168.15 42.66 168.15 23.96 184.15 83.51 184.15 84.3 182.15"/><path class="cls-6" d="M157.09,170.15H115.72l4.33,11h48.36Zm-14.69,6.71c-3,0-5.78-.71-6.28-1.57s1.42-1.48,4.23-1.48,5.59.65,6.22,1.48-1.21,1.57-4.17,1.57"/><path class="cls-6" d="M36.54,181.15H84.62l4.33-11H47.86Zm33.46-3H53.45l.6,1H70.39Zm3-1H52.34l.59-1H73.34Zm-11.85-4c.49-.65,2.71-1.17,5-1.17s3.79.52,3.4,1.17-2.64,1.24-5,1.24-3.86-.56-3.37-1.24m-9.8,2H76.76l-.3,1H50.73Z"/><polygon class="cls-6" points="158.33 169.15 172.23 182.15 120.38 182.15 121.16 184.15 180.99 184.15 162.29 168.15 114.91 168.15 115.44 169.15 158.33 169.15"/><polygon class="cls-7" points="158.33 169.15 115.44 169.15 115.67 170.15 157.13 170.15 168.45 181.15 120.01 181.15 120.34 182.15 172.23 182.15 158.33 169.15"/><polygon class="cls-7" points="35.99 181.15 48.33 169.15 89.01 169.15 89.23 170.15 46.08 170.15 33.26 182.15 84.33 182.15 84.66 181.15 35.99 181.15"/><path class="cls-7" d="M140.35,173.81c-2.81,0-4.71.65-4.23,1.48s3.31,1.57,6.28,1.57,4.82-.71,4.17-1.57-3.41-1.48-6.22-1.48"/><path class="cls-7" d="M64.51,174.36c2.37,0,4.61-.56,5-1.23S68.38,172,66.12,172s-4.49.52-5,1.18,1,1.23,3.37,1.23"/><polygon class="cls-7" points="76.76 175.15 51.34 175.15 50.73 176.15 76.46 176.15 76.76 175.15"/><polygon class="cls-7" points="52.34 177.15 72.99 177.15 73.34 176.15 52.93 176.15 52.34 177.15"/><polygon class="cls-7" points="53.45 178.15 70 178.15 70.39 179.15 54.05 179.15 53.45 178.15"/><rect class="cls-7" x="23.91" y="184.15" width="59" height="13"/><rect class="cls-7" x="120.91" y="184.15" width="60" height="13"/><polygon class="cls-8" points="118.99 184.15 121.21 184.15 120.34 181.95 120.01 181.12 115.66 170.07 115.44 169.51 114.91 168.15 113.43 168.15 118.99 184.15"/><polygon class="cls-8" points="88.54 184.15 116.13 184.15 111.53 168.15 93.14 168.15 88.54 184.15"/><polygon class="cls-8" points="89.01 170.07 84.66 181.12 84.33 181.95 83.46 184.15 85.68 184.15 91.24 168.15 89.77 168.15 89.23 169.51 89.01 170.07"/><polygon class="cls-9" points="85.68 184.15 88.56 184.15 93.16 168.15 91.24 168.15 85.68 184.15"/><polygon class="cls-9" points="116.11 184.15 119 184.15 113.43 168.15 111.51 168.15 116.11 184.15"/><rect class="cls-10" x="83.91" y="184.15" width="2" height="13"/><rect class="cls-10" x="118.91" y="184.15" width="2" height="13"/><rect class="cls-10" x="87.91" y="184.15" width="28" height="13"/><rect class="cls-11" x="85.91" y="184.15" width="3" height="13"/><rect class="cls-11" x="115.91" y="184.15" width="3" height="13"/><polygon class="cls-6" points="81.3 167.78 30.02 169.44 42.89 156.6 85.79 155.21 86.28 153.84 39.18 155.37 21.04 171.93 80.5 170 81.3 167.78"/><path class="cls-6" d="M153.66,153.57l-41.43,1.34,4.69,10.88,48.43-1.57Zm-14.5,7c-3,.1-5.8-.52-6.32-1.36s1.37-1.53,4.17-1.62,5.61.47,6.27,1.28-1.16,1.61-4.12,1.7"/><path class="cls-6" d="M33.45,168.49l48.15-1.55,4-11.16-41.15,1.33Zm33.4-3.87-16.53.54.57-.77,16.33-.53Zm3-1.51-20.65.67.58-.73,20.39-.66Zm-12-3.63c.46-.67,2.66-1.27,4.93-1.34s3.81.4,3.44,1.07-2.6,1.32-5,1.39-3.89-.43-3.41-1.12m-9.74,2.25,25.41-.82-.28.69-25.71.83Z"/><polygon class="cls-6" points="155.16 152.96 168.84 164.95 117.28 166.62 118.22 168.78 177.96 166.85 158.79 151.49 111.41 153.03 111.99 154.36 155.16 152.96"/><polygon class="cls-7" points="155.16 152.96 111.99 154.36 112.23 154.91 153.66 153.57 165.35 164.22 116.92 165.79 117.28 166.62 168.84 164.95 155.16 152.96"/><polygon class="cls-7" points="33.45 168.49 44.43 157.11 85.58 155.78 85.79 155.21 42.89 156.6 30.02 169.44 81.3 167.78 81.6 166.93 33.45 168.49"/><path class="cls-7" d="M137,157.6c-2.8.09-4.68.81-4.17,1.62s3.36,1.46,6.32,1.36,4.79-.86,4.12-1.7-3.46-1.37-6.27-1.28"/><path class="cls-7" d="M61.24,160.6c2.36-.07,4.58-.7,5-1.39s-1.18-1.14-3.44-1.07-4.47.67-4.93,1.34,1,1.2,3.41,1.12"/><polygon class="cls-7" points="73.5 160.91 48.09 161.73 47.51 162.43 73.22 161.6 73.5 160.91"/><polygon class="cls-7" points="49.15 163.78 69.8 163.11 70.12 162.39 49.73 163.05 49.15 163.78"/><polygon class="cls-7" points="50.32 165.16 66.85 164.62 67.22 163.86 50.89 164.39 50.32 165.16"/><rect class="cls-7" x="21.24" y="170.96" width="59.49" height="12.79" transform="translate(-5.73 1.75) rotate(-1.86)"/><rect class="cls-7" x="118.41" y="167.81" width="59.77" height="12.79" transform="translate(-5.56 4.89) rotate(-1.85)"/><polygon class="cls-8" points="116 168.85 118.22 168.78 117.28 166.62 116.92 165.79 112.23 154.91 111.99 154.36 111.41 153.03 109.94 153.07 116 168.85"/><polygon class="cls-8" points="85.6 169.84 113.13 168.95 108.02 153.14 89.67 153.73 85.6 169.84"/><polygon class="cls-8" points="85.58 155.78 81.6 166.94 81.3 167.78 80.5 170 82.72 169.93 87.75 153.79 86.28 153.84 85.79 155.21 85.58 155.78"/><polygon class="cls-9" points="82.72 169.93 85.6 169.84 89.67 153.73 87.75 153.79 82.72 169.93"/><polygon class="cls-9" points="113.13 168.95 116 168.85 109.94 153.07 108.02 153.14 113.13 168.95"/><rect class="cls-10" x="80.71" y="169.96" width="2.21" height="12.79" transform="translate(-5.66 2.74) rotate(-1.85)"/><rect class="cls-10" x="116.21" y="168.81" width="2.21" height="12.79" transform="translate(-5.61 3.89) rotate(-1.85)"/><rect class="cls-10" x="85.8" y="169.39" width="27.54" height="12.79" transform="translate(-5.64 3.31) rotate(-1.85)"/><rect class="cls-11" x="82.92" y="169.88" width="2.88" height="12.79" transform="translate(-5.67 2.83) rotate(-1.86)"/><rect class="cls-11" x="113.33" y="168.9" width="2.88" height="12.79" transform="translate(-5.61 3.81) rotate(-1.85)"/><polygon class="cls-6" points="84.3 152.15 33.26 152.15 46.08 140.15 89.23 140.15 89.76 138.15 42.66 138.15 23.96 154.15 83.51 154.15 84.3 152.15"/><path class="cls-6" d="M157.09,140.15H115.72l4.33,11h48.36Zm-14.69,6.48c-3,0-5.78-.71-6.28-1.57s1.42-1.48,4.23-1.48,5.59.65,6.22,1.48-1.21,1.57-4.17,1.57"/><path class="cls-6" d="M36.54,151.15H84.62l4.33-11H47.86Zm33.46-3H53.45l.6-1H70.39Zm3-1H52.34l.59-1H73.34ZM61.14,142.9c.49-.66,2.71-1.18,5-1.18s3.79.52,3.4,1.18-2.64,1.23-5,1.23-3.86-.56-3.37-1.23m-9.8,2.25H76.76l-.3,1H50.73Z"/><polygon class="cls-6" points="158.87 140.15 171.69 152.15 120.38 152.15 121.16 154.15 180.99 154.15 162.29 138.15 114.91 138.15 115.44 140.15 158.87 140.15"/><polygon class="cls-7" points="158.87 140.15 115.44 140.15 115.67 140.15 157.13 140.15 168.45 151.15 120.01 151.15 120.34 152.15 171.69 152.15 158.87 140.15"/><polygon class="cls-7" points="36.5 151.15 47.82 140.15 89.01 140.15 89.23 140.15 46.08 140.15 33.26 152.15 84.33 152.15 84.66 151.15 36.5 151.15"/><path class="cls-7" d="M140.35,143.58c-2.81,0-4.71.65-4.23,1.48s3.31,1.57,6.28,1.57,4.82-.71,4.17-1.57-3.41-1.48-6.22-1.48"/><path class="cls-7" d="M64.51,144.13c2.37,0,4.61-.56,5-1.23s-1.14-1.18-3.4-1.18-4.49.52-5,1.18,1,1.23,3.37,1.23"/><polygon class="cls-7" points="76.76 145.15 51.34 145.15 50.73 146.15 76.46 146.15 76.76 145.15"/><polygon class="cls-7" points="52.34 147.15 72.99 147.15 73.34 146.15 52.93 146.15 52.34 147.15"/><polygon class="cls-7" points="53.45 148.15 70 148.15 70.39 147.15 54.05 147.15 53.45 148.15"/><rect class="cls-7" x="23.91" y="154.15" width="59" height="13"/><rect class="cls-7" x="120.91" y="154.15" width="60" height="13"/><polygon class="cls-8" points="118.99 154.15 121.21 154.15 120.34 151.96 120.01 151.12 115.66 140.07 115.44 139.51 114.91 138.15 113.43 138.15 118.99 154.15"/><polygon class="cls-8" points="88.54 154.15 116.13 154.15 111.53 138.15 93.14 138.15 88.54 154.15"/><polygon class="cls-8" points="89.01 140.07 84.66 151.12 84.33 151.96 83.46 154.15 85.68 154.15 91.24 138.15 89.77 138.15 89.23 139.51 89.01 140.07"/><polygon class="cls-9" points="85.68 154.15 88.56 154.15 93.16 138.15 91.24 138.15 85.68 154.15"/><polygon class="cls-9" points="116.11 154.15 119 154.15 113.43 138.15 111.51 138.15 116.11 154.15"/><rect class="cls-10" x="83.91" y="154.15" width="2" height="13"/><rect class="cls-10" x="118.91" y="154.15" width="2" height="13"/><rect class="cls-10" x="87.91" y="154.15" width="28" height="13"/><rect class="cls-11" x="85.91" y="154.15" width="3" height="13"/><rect class="cls-11" x="115.91" y="154.15" width="3" height="13"/><path class="cls-12" d="M101.91,24.15h.42a.51.51,0,0,0-.5.51L98,144.15h8.65L102.85,24.66a.52.52,0,0,0-.51-.51"/><path class="cls-13" d="M86.21,86.82c9.06,9.06,4.81,15.39-1.72,21.91s-12.85,10.78-21.91,1.72S51.67,75.91,51.67,75.91s25.48,1.85,34.54,10.91"/><path class="cls-12" d="M56,80.25h0c-.32.32-.19,1,.3,1.49l45.36,46.68,2.53-2.54L57.52,80.55c-.51-.5-1.18-.63-1.5-.3"/><path class="cls-12" d="M68.57,112.52h0c.16.26.37.42.49.36l12.38-6.44-1.17-2L68.5,111.92c-.11.07-.08.34.07.6"/><path class="cls-12" d="M62.52,107.55h0c.11.2.31.31.43.24l13-7-.89-1.55-12.58,7.8c-.13.08-.13.3,0,.49"/><path class="cls-12" d="M59.49,100.87h0c.1.18.27.28.37.22l10.72-5.7L69.78,94l-10.3,6.42c-.1.07-.1.26,0,.43"/><path class="cls-12" d="M57.06,93.81h0c.08.15.22.25.29.21l7.88-4.13-.7-1.2L57,93.45c-.07,0-.06.2,0,.36"/><path class="cls-12" d="M54.65,87.75h0c.06.11.16.17.21.15L60.36,85l-.48-.83L54.63,87.5c-.05,0,0,.14,0,.25"/><path class="cls-12" d="M88.3,92.79h0c.26.15.42.37.36.49l-6.44,12.38-2-1.18L87.7,92.72c.07-.11.34-.08.6.07"/><path class="cls-12" d="M83.33,86.74h0c.2.12.3.31.24.44l-7,13L75,99.33l7.81-12.58c.07-.12.29-.12.49,0"/><path class="cls-12" d="M76.65,83.71h0c.17.11.27.27.22.37L71.17,94.8,69.79,94l6.43-10.3c.06-.1.25-.09.43,0"/><path class="cls-12" d="M69.58,81.29h0c.15.09.24.22.2.29l-4.13,7.88-1.19-.69,4.75-7.51c0-.08.21-.06.36,0"/><path class="cls-12" d="M63.52,78.88h0c.11.06.17.15.14.2l-2.88,5.5L60,84.1l3.32-5.25s.15,0,.25,0"/><path class="cls-13" d="M88.56,47.41c7.79,7.8,4.13,13.24-1.48,18.85s-11,9.27-18.84,1.47S58.85,38,58.85,38s21.91,1.59,29.71,9.38"/><path class="cls-12" d="M62.59,41.76h0c-.28.28-.16.85.26,1.29l39,40.14L104,81,63.88,42c-.44-.43-1-.54-1.29-.26"/><path class="cls-12" d="M73.39,69.52h0c.13.22.32.36.42.31L84.46,64.3l-1-1.75L73.33,69c-.1.06-.07.29.06.52"/><path class="cls-12" d="M68.18,65.25h0c.1.17.27.26.38.21l11.22-6L79,58.11,68.19,64.82c-.11.07-.11.26,0,.43"/><path class="cls-12" d="M65.57,59.5h0c.08.15.23.23.31.19l9.22-4.91-.68-1.19-8.86,5.53c-.09,0-.08.22,0,.37"/><path class="cls-12" d="M63.49,53.42h0c.08.13.19.21.26.17l6.77-3.55-.59-1-6.47,4.08c-.06,0-.05.18,0,.31"/><path class="cls-12" d="M61.42,48.21h0c0,.09.13.14.18.12l4.73-2.48-.42-.72L61.4,48s0,.12,0,.21"/><path class="cls-12" d="M90.35,52.55h0c.22.13.36.31.31.41L85.14,63.62l-1.76-1,6.46-10.12c.06-.09.29-.07.51.06"/><path class="cls-12" d="M86.08,47.34h0c.17.1.26.26.2.37l-6,11.22-1.34-.77,6.72-10.82c.06-.1.25-.1.42,0"/><path class="cls-12" d="M80.34,44.74h0c.15.09.24.23.19.32l-4.9,9.22-1.19-.69L80,44.73c0-.08.21-.08.37,0"/><path class="cls-12" d="M74.26,42.65h0c.13.07.21.19.18.25l-3.55,6.77-1-.59L74,42.63c0-.06.18-.05.31,0"/><path class="cls-12" d="M69.05,40.58h0c.09.06.15.13.12.18l-2.48,4.73L66,45.08l2.85-4.52s.13,0,.22,0"/><path class="cls-13" d="M119.27,86.82c-9.06,9.06-4.81,15.39,1.72,21.91s12.85,10.78,21.91,1.72,10.91-34.54,10.91-34.54-25.47,1.85-34.54,10.91"/><path class="cls-12" d="M149.46,80.25h0c.33.32.2,1-.3,1.49l-45.36,46.68-2.53-2.54L148,80.55c.51-.5,1.18-.63,1.5-.3"/><path class="cls-12" d="M136.91,112.52h0c-.15.26-.37.42-.49.36L124,106.45l1.18-2L137,111.92c.11.07.08.34-.07.6"/><path class="cls-12" d="M143,107.55h0c-.11.2-.31.31-.43.24l-13.05-7,.89-1.55,12.59,7.8c.12.08.12.3,0,.49"/><path class="cls-12" d="M146,100.87h0c-.1.18-.26.28-.37.22l-10.71-5.7L135.7,94l10.3,6.42c.1.07.1.26,0,.43"/><path class="cls-12" d="M148.42,93.81h0c-.09.15-.22.25-.3.21l-7.87-4.13.69-1.2,7.51,4.76c.07,0,.06.2,0,.36"/><path class="cls-12" d="M150.83,87.75h0c-.06.11-.16.17-.21.15L145.12,85l.48-.83,5.25,3.32c.05,0,0,.14,0,.25"/><path class="cls-12" d="M117.18,92.79h0c-.27.15-.43.37-.37.49l6.44,12.38,2-1.18-7.5-11.77c-.08-.11-.34-.08-.61.07"/><path class="cls-12" d="M122.15,86.74h0c-.2.12-.3.31-.23.44l7,13,1.55-.9-7.81-12.58c-.07-.12-.29-.12-.49,0"/><path class="cls-12" d="M128.83,83.71h0c-.17.11-.27.27-.22.37l5.71,10.72,1.38-.8-6.43-10.3c-.06-.1-.25-.09-.43,0"/><path class="cls-12" d="M135.9,81.29h0c-.15.09-.24.22-.2.29l4.13,7.88,1.19-.69-4.75-7.51c0-.08-.21-.06-.36,0"/><path class="cls-12" d="M142,78.88h0c-.1.06-.17.15-.14.2l2.88,5.5.84-.48-3.32-5.25s-.15,0-.25,0"/><path class="cls-13" d="M116.92,47.41c-7.79,7.8-4.13,13.24,1.48,18.85s11,9.27,18.84,1.47S146.63,38,146.63,38s-21.91,1.59-29.71,9.38"/><path class="cls-12" d="M142.89,41.76h0c.28.28.16.85-.26,1.29l-39,40.14L101.45,81,141.6,42c.44-.43,1-.54,1.29-.26"/><path class="cls-12" d="M132.09,69.52h0c-.13.22-.32.36-.42.31L121,64.3l1-1.75L132.15,69c.1.06.07.29-.06.52"/><path class="cls-12" d="M137.3,65.25h0c-.1.17-.27.26-.37.21l-11.23-6,.77-1.33,10.82,6.71c.11.07.11.26,0,.43"/><path class="cls-12" d="M139.91,59.5h0c-.08.15-.23.23-.31.19l-9.22-4.91.68-1.19,8.86,5.53c.09,0,.08.22,0,.37"/><path class="cls-12" d="M142,53.42h0c-.08.13-.19.21-.26.17L135,50.05l.6-1L142,53.11c.06,0,0,.18,0,.31"/><path class="cls-12" d="M144.07,48.21h0c-.05.09-.13.14-.17.12l-4.73-2.48.41-.72L144.08,48s0,.12,0,.21"/><path class="cls-12" d="M115.13,52.55h0c-.22.13-.36.31-.31.41l5.54,10.65,1.75-1-6.45-10.12c-.07-.09-.3-.07-.52.06"/><path class="cls-12" d="M119.4,47.34h0c-.17.1-.26.26-.2.37l6,11.22,1.34-.77-6.72-10.82c-.06-.1-.25-.1-.42,0"/><path class="cls-12" d="M125.14,44.74h0c-.15.09-.24.23-.19.32l4.91,9.22,1.18-.69-5.53-8.86c-.05-.08-.21-.08-.37,0"/><path class="cls-12" d="M131.22,42.65h0c-.13.07-.21.19-.18.25l3.55,6.77,1-.59-4.09-6.46c0-.06-.18-.05-.31,0"/><path class="cls-12" d="M136.43,40.58h0c-.09.06-.15.13-.12.18l2.48,4.73.72-.41-2.86-4.52s-.12,0-.22,0"/><path class="cls-13" d="M88,27.64c0,11,6.43,12.28,14.37,12.28s14.36-1.26,14.36-12.28S102.34,0,102.34,0,88,16.61,88,27.64"/><path class="cls-12" d="M101.91,5.15h.43a1,1,0,0,1,.57,1.22V62.15h-2V6.37c.7-.61,1-1.09,1.42-1.09"/><path class="cls-12" d="M114.32,32.54h0c.06.25,0,.48-.08.51l-11.44,3.62-.53-2L114,32.13c.11,0,.26.16.32.41"/><path class="cls-12" d="M115,25.84h0c.05.19,0,.38-.12.41l-12.19,3.69-.4-1.49,12.4-2.91c.12,0,.25.11.31.3"/><path class="cls-12" d="M112.77,19.93h0c0,.17,0,.33-.09.36l-10,3.05L102.34,22l10.17-2.35c.1,0,.21.09.26.26"/><path class="cls-12" d="M109.94,14.16h0c0,.14,0,.28,0,.3l-7.3,2.28-.31-1.15,7.46-1.68c.07,0,.16.09.2.24"/><path class="cls-12" d="M107.72,9h0c0,.11,0,.2,0,.22l-5.1,1.59-.22-.8,5.21-1.18s.12.07.14.17"/><path class="cls-12" d="M90.33,32.54h0c-.07.25,0,.48.07.51l11.45,3.62.52-2L90.65,32.13c-.11,0-.25.16-.32.41"/><path class="cls-12" d="M89.67,25.84h0c0,.19,0,.38.12.41L102,29.94l.4-1.49L90,25.54c-.12,0-.26.11-.31.3"/><path class="cls-12" d="M91.89,19.93h0c0,.17,0,.33.09.36l10,3.05.36-1.33L92.15,19.67c-.1,0-.22.09-.26.26"/><path class="cls-12" d="M94.71,14.16h0c0,.14,0,.28.06.3l7.3,2.28.3-1.15-7.46-1.68c-.07,0-.16.09-.2.24"/><path class="cls-12" d="M96.93,9h0c0,.11,0,.2,0,.22l5.1,1.59.21-.8L97.07,8.84s-.11.07-.14.17"/><g class="cls-14"><path class="cls-15" d="M101.91,0C102.34,0,88,16.61,88,27.64c0,10.45,12.94,12.27,12.94,12.27l-.19,13-.78,24.31L87.75,65.36c5.1-5.31,8-10.58.62-18C80.59,39.59,58.72,38,58.72,38s1.59,21.91,9.37,29.71c7.38,7.39,12.64,4.48,17.94-.63l13.78,14.2-1.25,39.3L85.31,107.69c5.92-6.18,9.29-12.31.72-20.9-9-9.06-34.48-10.91-34.48-10.91s1.85,25.48,10.89,34.54c8.58,8.59,14.7,5.21,20.87-.73l15.1,15.57L98,138.15H42.53l-18.62,16v13h2.51l-5.43,5,.42,12.68,2.5-.08v12.44h78Z"/></g><g class="cls-16"><g class="cls-17"><path class="cls-18" d="M190.57,306.57h-178v-69H190.7a27.87,27.87,0,0,1,27.87,27.88v13.13a27.91,27.91,0,0,1-27.83,28"/></g></g><path class="cls-19" d="M25.75,271.51l-11,32.86a7.59,7.59,0,0,1-14.4-4.8l9.38-28.15L.37,242.16a7.59,7.59,0,1,1,14.45-4.64Z"/></g></g></svg>