<svg xmlns="http://www.w3.org/2000/svg" xmlns:xlink="http://www.w3.org/1999/xlink" viewBox="0 0 260.17 201.65"><defs><style>.cls-1{fill:none;}.cls-2{fill:#dadada;}.cls-3{fill:#ededed;}.cls-4{fill:#b2b2b2;}.cls-5{fill:#f6f6f6;}.cls-6{opacity:0.1;}.cls-7{clip-path:url(#clip-path);}.cls-8{fill:#1d1d1b;}.cls-9{fill:#fcd4ca;}.cls-10{fill:#bbeadb;}.cls-11{fill:#110239;}.cls-12{fill:#0186cb;}.cls-13{opacity:0.65;}.cls-14{clip-path:url(#clip-path-2);}.cls-15{fill:#0056a3;}.cls-16{fill:#e8a393;}.cls-17{fill:#ffd066;}.cls-18{fill:#feac1a;}.cls-19{fill:#83ccc3;}.cls-20{opacity:0.23;}.cls-21{clip-path:url(#clip-path-3);}.cls-22{fill:#a7a6a7;}.cls-23{fill:#218400;}.cls-24{fill:#6d6e71;}</style><clipPath id="clip-path"><rect class="cls-1" x="113.04" y="1.68" width="54.19" height="126.8"/></clipPath><clipPath id="clip-path-2"><rect class="cls-1" x="45.17" y="60.69" width="9.86" height="30.47"/></clipPath><clipPath id="clip-path-3"><rect class="cls-1" x="8.16" y="143" width="252.01" height="55.18"/></clipPath></defs><g id="Capa_2" data-name="Capa 2"><g id="Capa_1-2" data-name="Capa 1"><rect class="cls-2" x="113.04" y="1.68" width="108.39" height="122.74"/><rect class="cls-3" x="128.57" y="17.21" width="77.33" height="91.68"/><path class="cls-3" d="M202,105H132.45V21.09H202Zm3.89-87.8H128.57v91.68H205.9Z"/><rect class="cls-3" x="128.57" y="17.21" width="77.33" height="91.68"/><path class="cls-4" d="M202,105H132.45V21.09H202Zm3.89-87.8H128.57v91.68H205.9Z"/><rect class="cls-3" x="126.31" y="85.34" width="4.53" height="13.83"/><rect class="cls-3" x="126.31" y="26.94" width="4.53" height="13.83"/><path class="cls-4" d="M186.77,55a19.54,19.54,0,1,1-19.54-19.53A19.53,19.53,0,0,1,186.77,55"/><path class="cls-5" d="M185.31,55a18.08,18.08,0,1,1-18.08-18.08A18.07,18.07,0,0,1,185.31,55"/><polygon class="cls-4" points="166.87 38.23 167.65 38.24 168.2 46.19 168.95 46.3 171.85 38.88 172.59 39.11 170.78 46.87 171.46 47.2 176.42 40.96 177.06 41.4 173.03 48.28 173.59 48.8 180.17 44.29 180.65 44.9 174.78 50.29 175.16 50.95 182.77 48.58 183.05 49.3 175.85 52.73 176.02 53.47 183.99 53.45 184.05 54.22 176.16 55.37 176.1 56.13 183.72 58.46 183.55 59.22 175.67 57.99 175.39 58.69 181.99 63.17 181.6 63.84 174.44 60.34 173.96 60.94 178.94 67.16 178.38 67.69 172.56 62.23 171.93 62.66 174.86 70.08 174.16 70.41 170.21 63.48 169.48 63.71 170.1 71.66 169.33 71.77 167.6 63.99 166.84 63.98 165.08 71.76 164.31 71.65 164.95 63.7 164.23 63.47 160.25 70.39 159.56 70.05 162.51 62.64 161.88 62.21 156.05 67.65 155.48 67.12 160.49 60.91 160.01 60.32 152.84 63.79 152.45 63.12 159.06 58.66 158.79 57.96 150.9 59.16 150.73 58.4 158.36 56.1 158.31 55.34 150.42 54.17 150.48 53.39 158.46 53.44 158.63 52.7 151.43 49.25 151.72 48.53 159.32 50.92 159.71 50.26 153.85 44.85 154.34 44.25 160.9 48.77 161.46 48.26 157.45 41.36 158.1 40.92 163.03 47.19 163.72 46.86 161.93 39.09 162.67 38.86 165.54 46.3 166.29 46.19 166.87 38.23"/><path class="cls-4" d="M177.55,55a10.32,10.32,0,1,1-10.32-10.31A10.32,10.32,0,0,1,177.55,55"/><path class="cls-5" d="M175.45,55a8.22,8.22,0,1,1-8.22-8.21A8.21,8.21,0,0,1,175.45,55"/><polygon class="cls-4" points="164.31 36.13 167.24 31.07 170.16 36.13 164.31 36.13"/><rect class="cls-4" x="152.94" y="83.51" width="5.3" height="8.74"/><rect class="cls-4" x="160.7" y="83.51" width="5.3" height="8.74"/><rect class="cls-4" x="168.47" y="83.51" width="5.3" height="8.74"/><rect class="cls-4" x="176.23" y="83.51" width="5.3" height="8.74"/><rect class="cls-4" x="208.73" y="124.42" width="7.28" height="4.06"/><rect class="cls-4" x="118.46" y="124.42" width="7.28" height="4.06"/><g class="cls-6"><g class="cls-7"><polygon class="cls-8" points="167.23 1.68 113.04 1.68 113.04 124.42 118.46 124.42 118.46 128.48 125.74 128.48 125.74 124.42 167.23 124.42 167.23 1.68"/></g></g><path class="cls-9" d="M91.87,55l.17.06a4.68,4.68,0,0,0,1.3.15c.86,0,1.66-.32,2.51-.44.29,0,.6-.05.9-.07a21.17,21.17,0,0,1,2.92.38c1,.23,1.15.25,2.15.53.47.12,1.15.56,1.61.72.7.26.9,1.23.39,1.24a.82.82,0,0,1-.71-.2,16.66,16.66,0,0,0-1.64-.73,5.52,5.52,0,0,1,1.64.73c.33.27.74.37.94.8.06.13.21.19.26.38a.59.59,0,0,1-.11.53.62.62,0,0,1-.68.09,6.6,6.6,0,0,1-1.55-.88,12.23,12.23,0,0,0-1.27-1,9.86,9.86,0,0,1,2,1.61,12.25,12.25,0,0,0,1,.78.74.74,0,0,1,0,1.21c-.44.27-1.2-.23-1.49-.5s-1-.76-1.37-1.14a4.88,4.88,0,0,0-.53-.49,8.72,8.72,0,0,0-1-.82,23.55,23.55,0,0,1,2.13,2c.28.34.68.84.4,1.25-.5.76-1.25.07-1.58-.23s-.94-.72-1.37-1.15a11.13,11.13,0,0,0-2.25-1.67c-.4-.24-.89-.13-1.31-.29.21.23.56.25.79.46a5.91,5.91,0,0,0,.86.69,1.86,1.86,0,0,1,.8,1c.11.42.16.87-.35,1-.75.15-1.33-.4-1.86-.83a4.12,4.12,0,0,0-2-1.13c-.31,0-.64,0-1,0a13.74,13.74,0,0,1-2.48,0,1.86,1.86,0,0,1-1.37-.92,6.37,6.37,0,0,1-.66-1.3c-.05-.16-.53-1.49-.67-1.44a25.68,25.68,0,0,0,2.73-1.48c.42-.19.59.2.8.46a2.67,2.67,0,0,0,.86.69"/><path class="cls-10" d="M91.92,53.56l-3.27,5.73s-15-6.46-18.25-9.41S64,39.51,63,32.08c-.59-4.33,4.22-4.67,4.22-4.67,2.78,4.43,8.2,16.13,8.81,17s15.87,9.15,15.87,9.15"/><path class="cls-11" d="M48.7,116.57a17.28,17.28,0,0,0-.89,4.53c0,2,.14,4.06.74,4.56,1.21,1,16.5,1.11,17.74-.3s.42-3.7-2.82-4.49c-3.47-.84-5.13.15-7.31-.68s-.49-3.92-.49-3.92Z"/><path class="cls-11" d="M33.81,124.89A14.15,14.15,0,0,0,30,124.3c-.94,0-2.44,0-3.13-.75a2.28,2.28,0,0,1-.15-2.56c.05-.11.8-1.46.94-1.4l-6-2.61s-4.77,5.68-4.35,7.19a16.85,16.85,0,0,0,2.54,2.62,12.32,12.32,0,0,0,7.69,3.26c4.11.23,8.21.16,8.87-.51,1.33-1.33.64-3.66-2.54-4.65"/><path class="cls-12" d="M37,53s-7.68,4.69-6.48,13.92,3.81,21.05,3.18,23.46S19.47,117.6,19.47,117.6l7.64,4.25S43.22,95.69,44,92.88s1.14-19.52,1.14-19.52,9.46,15.94,10,18.15-7.58,26.09-7.58,26.09l8.13,1.48s11-24.52,10.39-28.64c-.4-2.58-10-27.37-10-27.37Z"/><g class="cls-13"><g class="cls-14"><path class="cls-15" d="M55,91.11c.22-.42-2.2-11-3.29-12.59-.74-1.1-3.51-6.19-4.36-7.77-1-1.94,1-7.45,1.29-9.68a5.9,5.9,0,0,1-.7-.38c-.74,4.35-2.78,12.66-2.78,12.66,1.64,3,8.79,14.86,9.84,17.78h0l0,0,0,0"/></g></g><path class="cls-9" d="M62.58,17.06s-2.9,6.33-5.19,7.56a7.49,7.49,0,0,0,8.74,3.11S65.9,25.27,68,19.87c0,0-4-1.11-5.37-2.81"/><path class="cls-16" d="M66.6,23.51l.16,0A36.82,36.82,0,0,1,68,19.87s-4-1.11-5.37-2.81c0,0-2.9,6.33-5.19,7.56a7.63,7.63,0,0,0,3.54,3,5.75,5.75,0,0,1,5.67-4.07"/><path class="cls-9" d="M71.47,5s4.11,1.76,4,3.64.1,1.57-.21,2.8a8.5,8.5,0,0,0-.35,3.7c.22,1.54.17,2.28-1.43,1.89,0,0-.53-.27-.48.37s.24,4.42-3,4.56-8.14-4.76-7.88-6.82S63,8.35,65.22,6.1A5.6,5.6,0,0,1,71.47,5"/><path class="cls-11" d="M66.77,3.54s4.57,8.68,11.38,4.75a7.51,7.51,0,0,0-3.29-5.86c-3.28-2.17-7.6-.53-8.09,1.11"/><path class="cls-11" d="M73.13,17c-4.28-1.27-4.91-3.05-4.86-6.57s1.12-3.78,1.12-3.78c2.61-.88,2.7-2.16,2.7-2.16,1.93-5.19-9.77-5.85-10-2.29s.28,2.29-2.49,5-1.5,5.28-.27,6.69-1.14,1.19-1.27,3.7c-.1,1.78,1,2.54,2.58,3.09.28.1,1.26-2.31,1.7-3.2a14.59,14.59,0,0,0,3.22,4.27c2.85,2.18,6.16,1.85,7,0A10.21,10.21,0,0,0,73.13,17"/><path class="cls-17" d="M140.14,92.45a35.6,35.6,0,1,1-35.59-35.59,35.59,35.59,0,0,1,35.59,35.59"/><path class="cls-18" d="M133.6,92.45a29.05,29.05,0,1,1-29-29.05A29.05,29.05,0,0,1,133.6,92.45"/><path class="cls-17" d="M101.09,77.5c5.83-1.81,11.94-1.42,14.2,4.23l-9.41,3.76c-.91-2.11-3.28-1.69-4.65-1.14-.87.34-3.66,1.46-3,3.19,1.54,3.87,17.29-7.09,21.67,3.84,2.62,6.57-1.54,11.07-7.66,14.05l3.19,6.81-5.75,2.3-2.45-7.17c-6.1,1.73-12.64,1.17-15-4.73l9.41-3.77.08.2c1.09,2.58,4.19,1.92,5.67,1.33s4.18-1.79,3.43-3.67c-1.61-4-17.49,6.59-21.73-4-2.44-6.11,1.35-10.35,7-13.2L93,72.66l5.75-2.3Z"/><path class="cls-9" d="M85.43,59.58a4.11,4.11,0,0,0,.66.26,7,7,0,0,0,1.27.32c.38,0,.78,0,1.17,0A7.39,7.39,0,0,0,90.28,60a22.65,22.65,0,0,1,3.57-.65h.26a12,12,0,0,1,4.44.74c.67.25,1.78.56,1.69,1.49,0,.41-.36.47-.72.46a6.74,6.74,0,0,1-2-.47c-.72-.28-2.08-1-2.08-1a10.33,10.33,0,0,1,1.83.83c.36.24.61.37.89.56s.95.5,1,1,.08.75-.37.93-1.57-.27-2-.55-2.43-1.57-3.06-1.84a21.19,21.19,0,0,1,2.58,1.66,3.24,3.24,0,0,1,.92.85.68.68,0,0,1-.37,1.06,3,3,0,0,1-1.33-.18,8.58,8.58,0,0,1-2.13-1.09,8.45,8.45,0,0,0-1.88-1.2,7,7,0,0,1,1.46.89,12.13,12.13,0,0,1,1.6,1.3c.19.31.07,1.15-.63,1.13a3.19,3.19,0,0,1-1.13-.29c-.41-.2-.83-.4-1.23-.61-.7-.38-1.07-1-1.92-1a4.41,4.41,0,0,0-1.82.39,6.31,6.31,0,0,1-1.18.47L86,65a4.51,4.51,0,0,1-3.69-1.17,11.17,11.17,0,0,1-.78-.92c-.2-.21-.91-.68-.92-1s.6-.77.75-.92a12.32,12.32,0,0,0,.85-1.06,6.48,6.48,0,0,1,1.08-1.2c.2-.15.18-.15.43-.05s.36.13.53.21c.41.19.76.49,1.17.71"/><path class="cls-10" d="M66.25,26S60.63,29.47,59,23.15c0,0-4.77.25-10.89,8.63S39.26,44.33,32.89,54.65c.93,1,11.53,12.16,24,9.29,0,0,1.24-2.74,1.79-4,2.35-5.52,8.68-20.6,9.4-25.07,1-6.22-1.87-8.85-1.87-8.85"/><path class="cls-19" d="M62.52,42.65c.58-2.88-1.12-18.25-6.39-14.47-3,2.14-3.6,7.3-2.69,12.07A110.87,110.87,0,0,0,58.88,59.6C60.11,56.82,62.2,52,64,47.27a4.76,4.76,0,0,1-1.51-4.62"/><path class="cls-10" d="M86.29,59.08,83,65.21S64.12,57.65,61,54.75,50.24,28.94,57.67,26.53,67,48,68.57,49.5s17.72,9.58,17.72,9.58"/><g class="cls-20"><g class="cls-21"><path class="cls-22" d="M232.58,198.19H8.16V143H232.58a27.6,27.6,0,0,1,0,55.19"/></g></g><path class="cls-23" d="M20.68,171.08l-8.8,26.4A6.09,6.09,0,0,1,.32,193.62L7.85,171,.29,147.51a6.1,6.1,0,0,1,11.61-3.74Z"/><path class="cls-24" d="M45.87,166.15a.93.93,0,0,1-.24.64,1.49,1.49,0,0,1-.53.41,11.7,11.7,0,0,0-1.67-.92,7,7,0,0,0-4.83,0,5.22,5.22,0,0,0-1.87,1.27,5.86,5.86,0,0,0-1.25,2.11,8.68,8.68,0,0,0-.45,2.91,8.84,8.84,0,0,0,.44,2.92,5.84,5.84,0,0,0,1.22,2.08,4.93,4.93,0,0,0,1.88,1.25,6.79,6.79,0,0,0,2.44.42,7.23,7.23,0,0,0,2.49-.39,6.76,6.76,0,0,0,1.76-.93,1.35,1.35,0,0,1,.53.39A1,1,0,0,1,46,179a1.29,1.29,0,0,1-.66,1,6.49,6.49,0,0,1-1.72.77,10,10,0,0,1-2.8.33,9.24,9.24,0,0,1-3.21-.54,6.9,6.9,0,0,1-2.57-1.6,7.62,7.62,0,0,1-1.71-2.66,11.3,11.3,0,0,1,0-7.47,7.77,7.77,0,0,1,1.74-2.68,7.11,7.11,0,0,1,2.57-1.62,8.83,8.83,0,0,1,3.08-.54,10.37,10.37,0,0,1,2.08.19,7.41,7.41,0,0,1,1.62.49,3.57,3.57,0,0,1,1,.71A1.16,1.16,0,0,1,45.87,166.15Z"/><path class="cls-24" d="M59,176.38H51.68c-.12.36-.26.75-.41,1.17s-.28.84-.42,1.25-.27.78-.4,1.13-.23.64-.3.88a2.31,2.31,0,0,1-.91.16,1.4,1.4,0,0,1-.78-.23.82.82,0,0,1-.34-.74,1.74,1.74,0,0,1,.08-.5l.19-.56c.28-.75.63-1.72,1.06-2.91s.89-2.45,1.4-3.8,1-2.69,1.53-4l1.44-3.65a3,3,0,0,1,.66-.22,4,4,0,0,1,.91-.11,3.66,3.66,0,0,1,1,.16.93.93,0,0,1,.65.54c.44,1,.91,2.24,1.41,3.58s1,2.72,1.53,4.12,1,2.78,1.46,4.14.89,2.59,1.25,3.69a1.69,1.69,0,0,1-.52.39,1.51,1.51,0,0,1-.68.15,1.23,1.23,0,0,1-.8-.23,1.78,1.78,0,0,1-.47-.77ZM55.36,166c-.2.54-.43,1.15-.68,1.85s-.53,1.41-.8,2.17-.55,1.52-.82,2.3-.53,1.51-.77,2.21h6.17c-.27-.81-.56-1.62-.85-2.44l-.84-2.37c-.26-.75-.51-1.45-.74-2.09s-.41-1.18-.56-1.63Z"/><path class="cls-24" d="M69.7,164.27a2.32,2.32,0,0,1,.59-.07c.8,0,1.2.34,1.2,1v11.56a5.1,5.1,0,0,1-.36,2,3.39,3.39,0,0,1-1,1.32,3.73,3.73,0,0,1-1.42.71,6.27,6.27,0,0,1-1.69.22,5.39,5.39,0,0,1-2.28-.36,1.11,1.11,0,0,1-.71-1,1.21,1.21,0,0,1,.16-.65,1.89,1.89,0,0,1,.31-.41,6.39,6.39,0,0,0,1,.36,4.84,4.84,0,0,0,1.21.16,2.79,2.79,0,0,0,1.89-.58,2.5,2.5,0,0,0,.66-2V164.39A3.75,3.75,0,0,1,69.7,164.27Z"/><path class="cls-24" d="M85.16,176.38H77.81l-.42,1.17c-.14.43-.28.84-.42,1.24s-.27.79-.4,1.14-.23.64-.3.88a2.31,2.31,0,0,1-.91.16,1.4,1.4,0,0,1-.78-.23.82.82,0,0,1-.34-.74,1.74,1.74,0,0,1,.08-.5l.19-.56c.28-.75.63-1.72,1.06-2.91s.9-2.45,1.4-3.8,1-2.69,1.53-4,1-2.58,1.45-3.65a2.68,2.68,0,0,1,.65-.22,4,4,0,0,1,.91-.11,3.45,3.45,0,0,1,1.06.16.94.94,0,0,1,.64.54c.44,1,.91,2.24,1.41,3.58s1,2.71,1.53,4.12,1,2.78,1.46,4.14.89,2.59,1.25,3.69a1.69,1.69,0,0,1-.52.39,1.51,1.51,0,0,1-.68.15,1.23,1.23,0,0,1-.8-.23,1.78,1.78,0,0,1-.47-.77ZM81.48,166c-.2.54-.43,1.15-.68,1.85s-.53,1.41-.8,2.17-.55,1.52-.82,2.29-.53,1.52-.77,2.22h6.17c-.27-.81-.56-1.63-.85-2.44l-.84-2.37c-.26-.75-.51-1.45-.74-2.09s-.41-1.18-.56-1.63Z"/><path class="cls-24" d="M110.48,172.35a10.92,10.92,0,0,1-.61,3.85,7.28,7.28,0,0,1-1.76,2.72,7.15,7.15,0,0,1-2.76,1.6,11.67,11.67,0,0,1-3.62.53c-.59,0-1.24,0-2-.07a9.32,9.32,0,0,1-2.09-.36c-.77-.24-1.15-.65-1.15-1.24V165.5a.89.89,0,0,1,.22-.66,1.41,1.41,0,0,1,.68-.37,8.31,8.31,0,0,1,1.92-.35c.72-.05,1.43-.08,2.14-.08a11.83,11.83,0,0,1,3.67.53,7.9,7.9,0,0,1,2.84,1.56,7,7,0,0,1,1.83,2.59A9.26,9.26,0,0,1,110.48,172.35Zm-2.27,0a7.3,7.3,0,0,0-.54-2.95,5.48,5.48,0,0,0-1.45-2,5.91,5.91,0,0,0-2.14-1.15,9.27,9.27,0,0,0-2.62-.36c-.59,0-1.1,0-1.53.05a10.09,10.09,0,0,0-1.19.16v12.85a8.67,8.67,0,0,0,1.41.22c.51,0,1,.05,1.55.05a6.4,6.4,0,0,0,4.87-1.72A7.24,7.24,0,0,0,108.21,172.35Z"/><path class="cls-24" d="M114.19,180.43a1.18,1.18,0,0,1-.33-.87v-14a1.15,1.15,0,0,1,.33-.86,1.18,1.18,0,0,1,.88-.33h9.1a2.19,2.19,0,0,1,.17.37,1.59,1.59,0,0,1,.08.5,1.12,1.12,0,0,1-.22.73.75.75,0,0,1-.63.27h-7.49v5.21h7.24a2,2,0,0,1,.17.36,1.64,1.64,0,0,1,.08.5,1.05,1.05,0,0,1-.22.72.77.77,0,0,1-.63.26h-6.64v5.67h8.23a1.63,1.63,0,0,1,.17.35,1.52,1.52,0,0,1,.08.51,1,1,0,0,1-.22.71.77.77,0,0,1-.63.26h-8.64A1.22,1.22,0,0,1,114.19,180.43Z"/><path class="cls-24" d="M142.15,176.38h-7.36c-.13.36-.26.75-.41,1.17s-.29.84-.42,1.24-.27.79-.4,1.14-.23.64-.3.87a2.31,2.31,0,0,1-.91.17,1.4,1.4,0,0,1-.78-.23.83.83,0,0,1-.34-.74,1.45,1.45,0,0,1,.08-.5c.05-.18.12-.36.19-.56l1.06-2.91c.43-1.19.89-2.46,1.4-3.8s1-2.69,1.53-4,1-2.58,1.44-3.66a3.7,3.7,0,0,1,.66-.21,3.84,3.84,0,0,1,.91-.11,3.39,3.39,0,0,1,1.05.16.93.93,0,0,1,.65.54c.44,1,.91,2.24,1.41,3.58s1,2.71,1.52,4.12,1,2.78,1.47,4.14.88,2.59,1.25,3.69a1.82,1.82,0,0,1-.52.39,1.52,1.52,0,0,1-.69.15,1.22,1.22,0,0,1-.79-.23,1.75,1.75,0,0,1-.47-.77ZM138.47,166l-.69,1.85c-.25.69-.52,1.41-.79,2.17s-.55,1.52-.83,2.29-.53,1.52-.76,2.22h6.17c-.27-.81-.56-1.63-.85-2.45l-.84-2.36c-.26-.75-.51-1.45-.74-2.09s-.41-1.18-.56-1.63Z"/><path class="cls-24" d="M161.16,180.82a2.77,2.77,0,0,1-.6.06c-.81,0-1.21-.33-1.21-1v-6.54h-8.56v7.35l-.44.12a2.77,2.77,0,0,1-.6.06c-.81,0-1.21-.33-1.21-1v-15.5a2.26,2.26,0,0,1,.42-.12,2.51,2.51,0,0,1,.62-.07c.81,0,1.21.33,1.21,1v6.32h8.56v-7.13a2.26,2.26,0,0,1,.42-.12,2.51,2.51,0,0,1,.62-.07c.81,0,1.21.33,1.21,1v15.5Z"/><path class="cls-24" d="M180.91,172.54a10.54,10.54,0,0,1-.6,3.71,7.41,7.41,0,0,1-1.67,2.68,7.22,7.22,0,0,1-2.53,1.62,9.32,9.32,0,0,1-6.31,0,7.09,7.09,0,0,1-2.52-1.62,7.34,7.34,0,0,1-1.68-2.68,10.54,10.54,0,0,1-.6-3.71,10.28,10.28,0,0,1,.62-3.7,7.58,7.58,0,0,1,1.69-2.67,7,7,0,0,1,2.52-1.63,9,9,0,0,1,6.26,0,7.07,7.07,0,0,1,2.52,1.63,7.72,7.72,0,0,1,1.69,2.67A10.25,10.25,0,0,1,180.91,172.54Zm-2.27,0a7.24,7.24,0,0,0-1.55-5,5.29,5.29,0,0,0-4.13-1.72,5.8,5.8,0,0,0-2.33.44,4.92,4.92,0,0,0-1.79,1.3,5.91,5.91,0,0,0-1.14,2.09,9.56,9.56,0,0,0-.39,2.86,7.26,7.26,0,0,0,1.53,5,5.79,5.79,0,0,0,8.26,0A7.22,7.22,0,0,0,178.64,172.54Z"/><path class="cls-24" d="M186.59,180.7l-.43.12a2.93,2.93,0,0,1-.61.06c-.8,0-1.21-.33-1.21-1V165.52a.94.94,0,0,1,.22-.66,1.49,1.49,0,0,1,.69-.36,9.85,9.85,0,0,1,2-.36c.78-.07,1.53-.1,2.27-.1a8.09,8.09,0,0,1,5.14,1.36,4.71,4.71,0,0,1,1.69,3.87,5,5,0,0,1-1,3.14,5.31,5.31,0,0,1-3,1.8l1.38,1.73c.45.58.89,1.12,1.3,1.64s.78,1,1.1,1.39l.75,1a1.19,1.19,0,0,1-.48.73,1.28,1.28,0,0,1-.75.27,1.25,1.25,0,0,1-.77-.22,3,3,0,0,1-.63-.67l-4-5.51h-3.68Zm3.13-8a5.19,5.19,0,0,0,3.19-.86,3,3,0,0,0,1.15-2.57,2.93,2.93,0,0,0-1.21-2.55,6,6,0,0,0-3.46-.85c-.49,0-1,0-1.49.07a10.48,10.48,0,0,0-1.33.18v6.58Z"/><path class="cls-24" d="M202.21,180.7l-.44.12a2.93,2.93,0,0,1-.61.06c-.8,0-1.2-.33-1.2-1V165.52a.89.89,0,0,1,.22-.66,1.4,1.4,0,0,1,.68-.36,10,10,0,0,1,2-.36c.78-.07,1.53-.1,2.27-.1a8.07,8.07,0,0,1,5.14,1.36,4.68,4.68,0,0,1,1.69,3.87,5.08,5.08,0,0,1-1,3.14,5.34,5.34,0,0,1-2.95,1.8c.45.58.91,1.16,1.37,1.73s.89,1.12,1.3,1.64.78,1,1.1,1.39l.75,1a1.22,1.22,0,0,1-.48.73,1.3,1.3,0,0,1-1.52.05,3,3,0,0,1-.63-.67l-4-5.51h-3.67Zm3.12-8a5.19,5.19,0,0,0,3.19-.86,3,3,0,0,0,1.15-2.57,2.91,2.91,0,0,0-1.21-2.55,6,6,0,0,0-3.46-.85c-.49,0-1,0-1.49.07a10.74,10.74,0,0,0-1.33.18v6.58Z"/><path class="cls-24" d="M230.3,172.54a10.58,10.58,0,0,1-.6,3.71,7.38,7.38,0,0,1-1.68,2.68,7.09,7.09,0,0,1-2.52,1.62,9.32,9.32,0,0,1-6.31,0,7.09,7.09,0,0,1-2.52-1.62,7.38,7.38,0,0,1-1.68-2.68,10.58,10.58,0,0,1-.6-3.71,10,10,0,0,1,.62-3.7,7.7,7.7,0,0,1,1.68-2.67,7.13,7.13,0,0,1,2.53-1.64,9.15,9.15,0,0,1,6.25,0,7.13,7.13,0,0,1,2.53,1.64,7.7,7.7,0,0,1,1.68,2.67A10,10,0,0,1,230.3,172.54Zm-2.28,0a7.17,7.17,0,0,0-1.55-5,5.28,5.28,0,0,0-4.13-1.73,5.83,5.83,0,0,0-2.33.45,4.88,4.88,0,0,0-1.78,1.3,5.91,5.91,0,0,0-1.14,2.09,9.54,9.54,0,0,0-.4,2.86,7.27,7.27,0,0,0,1.54,5,5.79,5.79,0,0,0,8.26,0A7.26,7.26,0,0,0,228,172.54Z"/></g></g></svg>