<svg xmlns="http://www.w3.org/2000/svg" xmlns:xlink="http://www.w3.org/1999/xlink" viewBox="0 0 334.1 280.65"><defs><style>.cls-1{fill:none;}.cls-2{isolation:isolate;}.cls-3{fill:#110239;}.cls-4{fill:#fcd4ca;}.cls-5{fill:#e8a393;}.cls-6{fill:#f45762;}.cls-7{opacity:0.35;mix-blend-mode:multiply;}.cls-8{clip-path:url(#clip-path);}.cls-9{fill:#c9071e;}.cls-10{clip-path:url(#clip-path-2);}.cls-11{clip-path:url(#clip-path-3);}.cls-12{fill:#0186cb;}.cls-13{opacity:0.65;}.cls-14{clip-path:url(#clip-path-4);}.cls-15{fill:#0056a3;}.cls-16{fill:#ffd066;}.cls-17{fill:#feac1a;}.cls-18{opacity:0.23;}.cls-19{clip-path:url(#clip-path-5);}.cls-20{fill:#a7a6a7;}.cls-21{fill:#218400;}.cls-22{fill:#6d6e71;}</style><clipPath id="clip-path"><rect class="cls-1" x="162.81" y="30.15" width="17.47" height="19.87"/></clipPath><clipPath id="clip-path-2"><rect class="cls-1" x="142.52" y="32.95" width="12.52" height="34.42"/></clipPath><clipPath id="clip-path-3"><rect class="cls-1" x="147.79" y="42.54" width="18.72" height="6.18"/></clipPath><clipPath id="clip-path-4"><rect class="cls-1" x="155.4" y="79.97" width="6.08" height="23.86"/></clipPath><clipPath id="clip-path-5"><rect class="cls-1" x="10.59" y="222" width="323.5" height="55.18"/></clipPath></defs><g class="cls-2"><g id="Capa_2" data-name="Capa 2"><g id="Capa_1-2" data-name="Capa 1"><path class="cls-3" d="M155.7,1.37s-6.94-3.36-12.2.44S138.45,12.62,138.6,17s-1.32,6.72-4.38,9.79-3.36,5.55-1.76,12,2.88,10-.21,12.91c-3.38,3.15-6.65,11.2.8,17.19s17.6,4.76,24.4,4.39c3.79-.21,9.1-.45,12.08-3.12s5.35-5.59,3.88-9.93c-.58-1.72-1.42-3.35-2-5.09a12.64,12.64,0,0,1-.33-4.74c.1-2.08.89-4,1-6.05a34.58,34.58,0,0,0-.4-6.3A21.36,21.36,0,0,0,170,31.84c-1.75-4.1-6.45-6.2-7.47-10.83a29.76,29.76,0,0,1-.78-8.18c.37-6.2-2.6-10.28-6-11.46"/><path class="cls-4" d="M145.51,142.81a21,21,0,0,0,.51,5.72c.66,1.82,5.35,4.62,5.35,4.62s-4.25.82-5.88-.44-5.5-7.86-5.24-8.71,1.42-3.51,1.42-3.51Z"/><path class="cls-4" d="M170.8,142.45a21.06,21.06,0,0,0,.52,5.71c.65,1.83,5.35,4.62,5.35,4.62s-4.25.82-5.88-.44-5.5-7.85-5.25-8.71,1.43-3.51,1.43-3.51Z"/><path class="cls-3" d="M141.22,142.81s-3.57,1.19-2.68,4.31a26.8,26.8,0,0,1,.75,7.12h1s.22-4.45.89-4.3,2.15,4.3,3.63,4.3h8.39s.89-.89,0-1.41-6.58-.3-7.22-1.56-4.8-8.46-4.8-8.46"/><path class="cls-3" d="M166.71,142.35s-3.56,1.18-2.67,4.3a27.15,27.15,0,0,1,.74,7.13h1s.23-4.46.89-4.31,2.16,4.31,3.64,4.31h8.39s.89-.9,0-1.41-6.58-.3-7.22-1.56-4.81-8.46-4.81-8.46"/><path class="cls-4" d="M147.51,15.22s3.31,12.91,1.42,13.93c0,0,6.76,14,9.76,13.37s1.42-12.63,1.42-12.63a5.16,5.16,0,0,1-2.32-1.33c-.57-.51-1.81-1.37-2-2.22a47.2,47.2,0,0,1-.72-6.25Z"/><path class="cls-5" d="M153.17,36.63a7.83,7.83,0,0,1-1.67-5.29,6.63,6.63,0,0,1,4.19-5.6,50.45,50.45,0,0,1-.6-5.65l-7.58-4.87s3.31,12.91,1.42,13.93c0,0,6.76,14,9.76,13.37.77-.17,1.24-1.11,1.51-2.4-2.86.52-5.35-1.26-7-3.49"/><path class="cls-4" d="M115.06,22.81a7.87,7.87,0,0,1-.81-1.71c-.17-.51-.3-1-.48-1.54a4,4,0,0,1-.34-1.51,4.27,4.27,0,0,1,.19-.93c.1-.39.24-.77.32-1.17s0-.69.11-1a6.19,6.19,0,0,1,.61-1.94,6.76,6.76,0,0,1,.89-1.23,4.64,4.64,0,0,1,.53-.56,1.45,1.45,0,0,0,.48-.59.57.57,0,0,0-.41-.77,2.14,2.14,0,0,0-2,.64c-.52.72-.77,1.6-1.35,2.29-1.78,2.12-3.44-.37-5.52-1.27a12.85,12.85,0,0,1-2-1.29c-.37-.28-2-1.79-2.72-1.4-.55.29.53,1.56,1.06,1.87.2.13,2,1.57,2.21,1.64a11.41,11.41,0,0,1-3-1.85c-.78-.61-1.55-1.22-2-.87-1.32,1.09,3.85,3.56,4.26,3.79-.43,0-4.49-2.84-4.87-1.78-.21.58.63,1.15,1.32,1.53.86.47,2.31.8,2.63,1.06-.61.2-3.29-1.62-3.29-.51,0,.73,1.66,1.28,2.29,1.47s2.55,1.49,3.15,1.77c2,1,2.83.85,3.62,2.05.5.76,1.4,4.8,2.13,6.34Z"/><path class="cls-4" d="M184.83,29.1a7.76,7.76,0,0,0,.8-1.7c.18-.51.3-1,.48-1.55a4.16,4.16,0,0,0,.35-1.51,4.85,4.85,0,0,0-.19-.92c-.1-.39-.25-.77-.33-1.17s0-.7-.1-1.05a6.37,6.37,0,0,0-.62-1.94,7.56,7.56,0,0,0-.88-1.22,4.72,4.72,0,0,0-.53-.56,1.4,1.4,0,0,1-.48-.6.56.56,0,0,1,.41-.76,2.09,2.09,0,0,1,2,.64c.52.72.77,1.6,1.35,2.29,1.78,2.12,3.45-.38,5.52-1.27a13.21,13.21,0,0,0,2-1.29c.37-.28,2-1.8,2.71-1.4.56.29-.53,1.56-1,1.87-.21.12-2,1.57-2.22,1.64a11.09,11.09,0,0,0,3-1.85c.79-.62,1.55-1.22,2-.87,1.32,1.08-3.86,3.56-4.26,3.78.43,0,4.48-2.83,4.87-1.78.21.58-.63,1.16-1.32,1.53-.87.47-2.31.81-2.64,1.06.61.21,3.3-1.62,3.3-.5,0,.73-1.67,1.27-2.3,1.46s-2.54,1.49-3.14,1.78c-2,.95-2.83.84-3.62,2-.51.77-1.4,4.81-2.13,6.34Z"/><path class="cls-6" d="M185.11,26c-1.79,5.2-5.61,16.64-6.87,16a42.6,42.6,0,0,1-11.15-9.7c-2.36-2.88-4.54-3-4.54-3L166,41.13s11.76,10.23,14.39,8.77c2.07-1.15,7.16-15.65,9-21.66L185.11,26"/><g class="cls-7"><g class="cls-8"><path class="cls-9" d="M172.68,43.89c-2.11-2.73-3.42-5-5.56-7.75a40.7,40.7,0,0,1-2.91-4.31c-.48-.55-1-1.1-1.4-1.68l3.18,11s11.49,10,14.29,8.79c-2.41-1.55-5.89-3.8-7.6-6"/></g></g><path class="cls-6" d="M162.55,29.27l-4.76-.71s2.43,10.31.6,10.23-8.92-10.91-8.92-10.91a60.36,60.36,0,0,0-7.12,3.54s1,8.32.41,9.42c0,0,1.9,5.33,3.14,7.82S147.32,65,147.32,65a22,22,0,0,0,9.91,2.55c5.47,0,7.12-2.3,7.12-2.3s0-15.81.69-17.16,3.88-6.51,1.1-11.47c-1.47-2.62-3.59-7.3-3.59-7.3"/><g class="cls-7"><g class="cls-10"><path class="cls-9" d="M149.1,52.84c-1.93-3.55-1.63-7.7-2.61-11.82-.68-2.83-2.48-5.71-4-8.07.26,2.45.67,7.09.24,7.89,0,0,1.9,5.33,3.14,7.82S147.31,65,147.31,65A22.3,22.3,0,0,0,155,67.37a15.84,15.84,0,0,1-5.94-14.53"/></g></g><g class="cls-7"><g class="cls-11"><path class="cls-9" d="M147.79,43.58s4,2.14,5.78,2.11c4.78-.06,5.66-3.15,5.66-3.15s2.51,3,4.73,2.79a2.61,2.61,0,0,0,2.55-1.71s-.17,4.59-4,5a4.52,4.52,0,0,1-3-.5,3.43,3.43,0,0,0-3.29,0,6.71,6.71,0,0,1-2.37.6,5.43,5.43,0,0,1-6-5.12"/></g></g><path class="cls-6" d="M144.44,30.83s-18.63,5.33-20.31,4.9-9.94-17.54-9.94-17.54l-4.67,1.9s6.94,21.38,10.15,22.45,23.09-1.7,23.09-1.7,3.51-4.68,1.68-10"/><path class="cls-4" d="M150.86,5.24s4.68-1.86,6.86,1.1,1.3,5.35,1.76,6.82.25,8.82-1.65,9.8c-1.64.84-5.92.18-8.34-2.18-2.06-2-2.61-1.18-4.07-3.37-3.67-5.52,1.58-12.67,5.44-12.17"/><path class="cls-3" d="M153.16,3.57s.69,7.18,6.76,6.68c0,0-.23-9.77-6.76-6.68"/><path class="cls-3" d="M148.22,21.46a10,10,0,0,0,.36-1.48c-.58-.67-1.28-1.64-1.66-1.69-1-.16-2.71-2.25-1.6-3.39s2.28-.11,2.7.8a1,1,0,0,0,.48.39c.18-.49.84-4.69,2.89-5.3,7-2.08,2.31-7.62,2.31-7.62C142.14,1,141.43,16.79,144.32,19.91c1.57,1.7,3,1.8,3.9,1.55"/><path class="cls-5" d="M145.88,14.9A1.53,1.53,0,0,1,147.29,16c.33,1-.48,2.09-.92,1.37s0-1,0-1.42a1.27,1.27,0,0,0-.51-1"/><path class="cls-12" d="M164.35,64.87s-10,3.51-17.21,0c0,0-4.38,3.68-5.07,11.19a40.33,40.33,0,0,0,.29,8.43c.5,4.18,1.72,15.13,1,21.88-1.11,9.89-4.18,36.56-4.18,36.56L146,144s6.32-32.61,7.06-36.89,3.16-21.63,3.16-21.63,4.28,13.42,5.38,19.92c.17,1,3.23,37.77,3.23,37.77l6.66,0s-.37-40.83-.37-38.68c0,.87-1.8-27.55-6.79-39.57"/><g class="cls-13"><g class="cls-14"><path class="cls-15" d="M160.89,90.87A31.06,31.06,0,0,0,155.4,80c.31,1.86.6,3.72.81,5.6l0-.09s3.66,11.49,5.08,18.36c-.15-7.41.67-9.63-.43-13"/></g></g><rect class="cls-16" x="199.65" y="191.3" width="70.98" height="12.23"/><rect class="cls-17" x="203.62" y="191.3" width="3.57" height="12.23"/><rect class="cls-17" x="211.13" y="191.3" width="3.57" height="12.23"/><rect class="cls-17" x="218.63" y="191.3" width="3.57" height="12.23"/><rect class="cls-17" x="226.13" y="191.3" width="3.57" height="12.23"/><rect class="cls-17" x="233.63" y="191.3" width="3.57" height="12.23"/><rect class="cls-17" x="241.14" y="191.3" width="3.57" height="12.23"/><rect class="cls-17" x="248.64" y="191.3" width="3.57" height="12.23"/><rect class="cls-17" x="256.14" y="191.3" width="3.57" height="12.23"/><rect class="cls-17" x="263.65" y="191.3" width="3.57" height="12.23"/><rect class="cls-16" x="190.64" y="179.07" width="70.98" height="12.23"/><rect class="cls-17" x="194.61" y="179.07" width="3.57" height="12.23"/><rect class="cls-17" x="202.11" y="179.07" width="3.57" height="12.23"/><rect class="cls-17" x="209.62" y="179.07" width="3.57" height="12.23"/><rect class="cls-17" x="217.12" y="179.07" width="3.57" height="12.23"/><rect class="cls-17" x="224.62" y="179.07" width="3.57" height="12.23"/><rect class="cls-17" x="232.13" y="179.07" width="3.57" height="12.23"/><rect class="cls-17" x="239.63" y="179.07" width="3.57" height="12.23"/><rect class="cls-17" x="247.13" y="179.07" width="3.57" height="12.23"/><rect class="cls-17" x="254.64" y="179.07" width="3.57" height="12.23"/><rect class="cls-16" x="202.83" y="166.85" width="70.98" height="12.23"/><rect class="cls-17" x="206.8" y="166.85" width="3.57" height="12.23"/><rect class="cls-17" x="214.3" y="166.85" width="3.57" height="12.23"/><rect class="cls-17" x="221.8" y="166.85" width="3.57" height="12.23"/><rect class="cls-17" x="229.31" y="166.85" width="3.57" height="12.23"/><rect class="cls-17" x="236.81" y="166.85" width="3.57" height="12.23"/><rect class="cls-17" x="244.31" y="166.85" width="3.57" height="12.23"/><rect class="cls-17" x="251.82" y="166.85" width="3.57" height="12.23"/><rect class="cls-17" x="259.32" y="166.85" width="3.57" height="12.23"/><rect class="cls-17" x="266.82" y="166.85" width="3.57" height="12.23"/><rect class="cls-16" x="196.64" y="154.62" width="70.98" height="12.23"/><rect class="cls-17" x="200.6" y="154.62" width="3.57" height="12.23"/><rect class="cls-17" x="208.11" y="154.62" width="3.57" height="12.23"/><rect class="cls-17" x="215.61" y="154.62" width="3.57" height="12.23"/><rect class="cls-17" x="223.11" y="154.62" width="3.57" height="12.23"/><rect class="cls-17" x="230.62" y="154.62" width="3.57" height="12.23"/><rect class="cls-17" x="238.12" y="154.62" width="3.57" height="12.23"/><rect class="cls-17" x="245.62" y="154.62" width="3.57" height="12.23"/><rect class="cls-17" x="253.13" y="154.62" width="3.57" height="12.23"/><rect class="cls-17" x="260.63" y="154.62" width="3.57" height="12.23"/><rect class="cls-16" x="187.62" y="142.39" width="70.98" height="12.23"/><rect class="cls-17" x="191.59" y="142.39" width="3.57" height="12.23"/><rect class="cls-17" x="199.1" y="142.39" width="3.57" height="12.23"/><rect class="cls-17" x="206.6" y="142.39" width="3.57" height="12.23"/><rect class="cls-17" x="214.1" y="142.39" width="3.57" height="12.23"/><rect class="cls-17" x="221.61" y="142.39" width="3.57" height="12.23"/><rect class="cls-17" x="229.11" y="142.39" width="3.57" height="12.23"/><rect class="cls-17" x="236.61" y="142.39" width="3.57" height="12.23"/><rect class="cls-17" x="244.12" y="142.39" width="3.57" height="12.23"/><rect class="cls-17" x="251.62" y="142.39" width="3.57" height="12.23"/><rect class="cls-16" x="197.19" y="130.16" width="70.98" height="12.23"/><rect class="cls-17" x="201.16" y="130.16" width="3.57" height="12.23"/><rect class="cls-17" x="208.66" y="130.16" width="3.57" height="12.23"/><rect class="cls-17" x="216.17" y="130.16" width="3.57" height="12.23"/><rect class="cls-17" x="223.67" y="130.16" width="3.57" height="12.23"/><rect class="cls-17" x="231.17" y="130.16" width="3.57" height="12.23"/><rect class="cls-17" x="238.68" y="130.16" width="3.57" height="12.23"/><rect class="cls-17" x="246.18" y="130.16" width="3.57" height="12.23"/><rect class="cls-17" x="253.68" y="130.16" width="3.57" height="12.23"/><rect class="cls-17" x="261.19" y="130.16" width="3.57" height="12.23"/><rect class="cls-16" x="117.9" y="191.3" width="67.25" height="12.23"/><rect class="cls-17" x="178" y="191.3" width="3.39" height="12.23"/><rect class="cls-17" x="170.89" y="191.3" width="3.39" height="12.23"/><rect class="cls-17" x="163.78" y="191.3" width="3.39" height="12.23"/><rect class="cls-17" x="156.67" y="191.3" width="3.39" height="12.23"/><rect class="cls-17" x="149.57" y="191.3" width="3.39" height="12.23"/><rect class="cls-17" x="142.46" y="191.3" width="3.39" height="12.23"/><rect class="cls-17" x="135.35" y="191.3" width="3.39" height="12.23"/><rect class="cls-17" x="128.24" y="191.3" width="3.39" height="12.23"/><rect class="cls-17" x="121.13" y="191.3" width="3.39" height="12.23"/><rect class="cls-16" x="126.43" y="179.07" width="67.25" height="12.23"/><rect class="cls-17" x="186.54" y="179.07" width="3.39" height="12.23"/><rect class="cls-17" x="179.43" y="179.07" width="3.39" height="12.23"/><rect class="cls-17" x="172.32" y="179.07" width="3.39" height="12.23"/><rect class="cls-17" x="165.21" y="179.07" width="3.39" height="12.23"/><rect class="cls-17" x="158.1" y="179.07" width="3.39" height="12.23"/><rect class="cls-17" x="151" y="179.07" width="3.39" height="12.23"/><rect class="cls-17" x="143.89" y="179.07" width="3.39" height="12.23"/><rect class="cls-17" x="136.78" y="179.07" width="3.39" height="12.23"/><rect class="cls-17" x="129.67" y="179.07" width="3.39" height="12.23"/><rect class="cls-16" x="114.89" y="166.85" width="67.25" height="12.23"/><rect class="cls-17" x="174.99" y="166.85" width="3.39" height="12.23"/><rect class="cls-17" x="167.88" y="166.85" width="3.39" height="12.23"/><rect class="cls-17" x="160.77" y="166.85" width="3.39" height="12.23"/><rect class="cls-17" x="153.67" y="166.85" width="3.39" height="12.23"/><rect class="cls-17" x="146.56" y="166.85" width="3.39" height="12.23"/><rect class="cls-17" x="139.45" y="166.85" width="3.39" height="12.23"/><rect class="cls-17" x="132.34" y="166.85" width="3.39" height="12.23"/><rect class="cls-17" x="125.23" y="166.85" width="3.39" height="12.23"/><rect class="cls-17" x="118.12" y="166.85" width="3.39" height="12.23"/><rect class="cls-16" x="120.75" y="154.62" width="67.25" height="12.23"/><rect class="cls-17" x="180.86" y="154.62" width="3.39" height="12.23"/><rect class="cls-17" x="173.75" y="154.62" width="3.39" height="12.23"/><rect class="cls-17" x="166.64" y="154.62" width="3.39" height="12.23"/><rect class="cls-17" x="159.53" y="154.62" width="3.39" height="12.23"/><rect class="cls-17" x="152.42" y="154.62" width="3.39" height="12.23"/><rect class="cls-17" x="145.32" y="154.62" width="3.39" height="12.23"/><rect class="cls-17" x="138.21" y="154.62" width="3.39" height="12.23"/><rect class="cls-17" x="131.1" y="154.62" width="3.39" height="12.23"/><rect class="cls-17" x="123.99" y="154.62" width="3.39" height="12.23"/><rect class="cls-16" x="40.06" y="191.3" width="67.25" height="12.23"/><rect class="cls-17" x="100.17" y="191.3" width="3.39" height="12.23"/><rect class="cls-17" x="93.06" y="191.3" width="3.39" height="12.23"/><rect class="cls-17" x="85.95" y="191.3" width="3.39" height="12.23"/><rect class="cls-17" x="78.84" y="191.3" width="3.39" height="12.23"/><rect class="cls-17" x="71.73" y="191.3" width="3.39" height="12.23"/><rect class="cls-17" x="64.63" y="191.3" width="3.39" height="12.23"/><rect class="cls-17" x="57.52" y="191.3" width="3.39" height="12.23"/><rect class="cls-17" x="50.41" y="191.3" width="3.39" height="12.23"/><rect class="cls-17" x="43.3" y="191.3" width="3.39" height="12.23"/><rect class="cls-16" x="48.6" y="179.07" width="67.25" height="12.23"/><rect class="cls-17" x="108.71" y="179.07" width="3.39" height="12.23"/><rect class="cls-17" x="101.6" y="179.07" width="3.39" height="12.23"/><rect class="cls-17" x="94.49" y="179.07" width="3.39" height="12.23"/><rect class="cls-17" x="87.38" y="179.07" width="3.39" height="12.23"/><rect class="cls-17" x="80.27" y="179.07" width="3.39" height="12.23"/><rect class="cls-17" x="73.16" y="179.07" width="3.39" height="12.23"/><rect class="cls-17" x="66.05" y="179.07" width="3.39" height="12.23"/><rect class="cls-17" x="58.95" y="179.07" width="3.39" height="12.23"/><rect class="cls-17" x="51.84" y="179.07" width="3.39" height="12.23"/><g class="cls-18"><g class="cls-19"><path class="cls-20" d="M306.51,277.19H10.59V222H306.51a27.6,27.6,0,0,1,0,55.19"/></g></g><path class="cls-21" d="M20.68,250.08l-8.8,26.4A6.09,6.09,0,1,1,.32,272.62L7.85,250,.29,226.51a6.1,6.1,0,0,1,11.61-3.74Z"/><path class="cls-22" d="M47.65,249.36A10.63,10.63,0,0,1,47,253.2a6.84,6.84,0,0,1-4.51,4.32,11.72,11.72,0,0,1-3.62.53c-.59,0-1.24,0-2-.07a8.79,8.79,0,0,1-2.08-.36c-.77-.24-1.15-.65-1.15-1.24V242.5a.89.89,0,0,1,.22-.66,1.41,1.41,0,0,1,.68-.37,8.88,8.88,0,0,1,1.92-.35c.72-.05,1.43-.08,2.14-.08a12,12,0,0,1,3.66.53,7.74,7.74,0,0,1,2.84,1.56,7.1,7.1,0,0,1,1.84,2.6A9.19,9.19,0,0,1,47.65,249.36Zm-2.28,0a7.32,7.32,0,0,0-.53-3,5.39,5.39,0,0,0-1.46-2,5.75,5.75,0,0,0-2.14-1.15,9.17,9.17,0,0,0-2.62-.36c-.58,0-1.09,0-1.52.05s-.83.09-1.19.16V256a9.94,9.94,0,0,0,1.41.21c.5,0,1,0,1.55,0a6.4,6.4,0,0,0,4.87-1.72A7.23,7.23,0,0,0,45.37,249.36Z"/><path class="cls-22" d="M51.36,257.43a1.15,1.15,0,0,1-.33-.86v-14a1.21,1.21,0,0,1,.32-.87,1.24,1.24,0,0,1,.88-.32h9.11a2,2,0,0,1,.17.36,1.64,1.64,0,0,1,.08.5,1.1,1.1,0,0,1-.22.73.77.77,0,0,1-.63.27H53.25v5.21h7.24a1.87,1.87,0,0,1,.17.37,1.59,1.59,0,0,1,.08.5,1,1,0,0,1-.22.71.8.8,0,0,1-.63.26H53.25v5.67h8.23a1.44,1.44,0,0,1,.16.35,1.29,1.29,0,0,1,.09.51,1.1,1.1,0,0,1-.22.72.79.79,0,0,1-.63.25H52.23A1.17,1.17,0,0,1,51.36,257.43Z"/><path class="cls-22" d="M67.32,251.89v5.81a3.49,3.49,0,0,1-.43.12,2.37,2.37,0,0,1-.61.07c-.8,0-1.21-.33-1.21-1V242.53a1,1,0,0,1,.22-.67,1.59,1.59,0,0,1,.69-.36,9.86,9.86,0,0,1,1.93-.35c.76-.07,1.5-.11,2.21-.11,2.33,0,4,.48,5.09,1.44a5,5,0,0,1,1.61,3.91,5.16,5.16,0,0,1-1.65,4,7.4,7.4,0,0,1-5.07,1.49ZM70,250.06a5.68,5.68,0,0,0,3.4-.89,3.22,3.22,0,0,0,1.21-2.76,3.08,3.08,0,0,0-1.17-2.68,5.57,5.57,0,0,0-3.33-.85q-.75,0-1.47.06c-.49.05-.92.11-1.3.18v6.94Z"/><path class="cls-22" d="M95.06,249.54a10.59,10.59,0,0,1-.6,3.72,7.36,7.36,0,0,1-1.67,2.67,7.22,7.22,0,0,1-2.53,1.62,9.32,9.32,0,0,1-6.31,0,7.09,7.09,0,0,1-2.52-1.62,7.38,7.38,0,0,1-1.68-2.67,10.59,10.59,0,0,1-.6-3.72,10,10,0,0,1,.62-3.69,7.65,7.65,0,0,1,1.68-2.68A7.11,7.11,0,0,1,84,241.54a9.15,9.15,0,0,1,6.25,0,7.11,7.11,0,0,1,2.53,1.63,7.82,7.82,0,0,1,1.69,2.68A10.19,10.19,0,0,1,95.06,249.54Zm-2.27,0a7.19,7.19,0,0,0-1.55-5,5.26,5.26,0,0,0-4.13-1.73,6.06,6.06,0,0,0-2.34.44,4.88,4.88,0,0,0-1.78,1.3,6.09,6.09,0,0,0-1.14,2.09,9.54,9.54,0,0,0-.4,2.86,7.27,7.27,0,0,0,1.54,5,5.79,5.79,0,0,0,8.26,0A7.27,7.27,0,0,0,92.79,249.54Zm-3.54-13.93a1.47,1.47,0,0,1,.92.31.86.86,0,0,1,.31.66,1.2,1.2,0,0,1-.15.63,2.47,2.47,0,0,1-.54.56l-2.33,2.06a1.65,1.65,0,0,1-.81-.28.64.64,0,0,1-.28-.54.79.79,0,0,1,.11-.45,1.54,1.54,0,0,1,.27-.36Z"/><path class="cls-22" d="M103.07,256.27a4.13,4.13,0,0,0,2.79-.83,2.68,2.68,0,0,0,1-2.12,2.46,2.46,0,0,0-.73-1.83,5.49,5.49,0,0,0-2.29-1.16l-2.39-.71a6.3,6.3,0,0,1-2.76-1.51,3.65,3.65,0,0,1-1-2.7,4.15,4.15,0,0,1,.4-1.85,3.81,3.81,0,0,1,1.14-1.39,5.23,5.23,0,0,1,1.77-.87,7.9,7.9,0,0,1,2.32-.31,10.93,10.93,0,0,1,2,.17,7.49,7.49,0,0,1,1.65.49,3.65,3.65,0,0,1,1.08.68,1.11,1.11,0,0,1,.38.79,1.08,1.08,0,0,1-.19.65,1.45,1.45,0,0,1-.49.43,6.93,6.93,0,0,0-1.85-.95,7.56,7.56,0,0,0-2.54-.4,4.21,4.21,0,0,0-2.54.67,2.22,2.22,0,0,0-.92,1.89,2,2,0,0,0,.66,1.54,5.56,5.56,0,0,0,2.2,1l1.67.48a8.74,8.74,0,0,1,3.41,1.74,4,4,0,0,1,1.25,3.12,4.31,4.31,0,0,1-1.56,3.46,6.7,6.7,0,0,1-4.45,1.32,11.52,11.52,0,0,1-2.29-.21,8.17,8.17,0,0,1-1.75-.57,3.78,3.78,0,0,1-1.13-.77,1.24,1.24,0,0,1-.4-.82,1.1,1.1,0,0,1,.29-.77,1.69,1.69,0,0,1,.68-.45,5.47,5.47,0,0,0,.74.61,5.68,5.68,0,0,0,1,.57,6.73,6.73,0,0,0,1.29.41A7,7,0,0,0,103.07,256.27Z"/><path class="cls-22" d="M114.13,257.82a2.74,2.74,0,0,1-.6.07c-.81,0-1.21-.34-1.21-1v-15.5a2.18,2.18,0,0,1,.43-.12,2.37,2.37,0,0,1,.61-.07c.79,0,1.18.33,1.18,1v15.5Z"/><path class="cls-22" d="M124.78,243.2v14.5l-.43.12a2.88,2.88,0,0,1-.59.07c-.8,0-1.2-.34-1.2-1V243.2h-5.14a1.93,1.93,0,0,1-.16-.37,1.39,1.39,0,0,1-.08-.52,1.05,1.05,0,0,1,.22-.72.77.77,0,0,1,.63-.25h11.88a2.1,2.1,0,0,1,.16.36,1.35,1.35,0,0,1,.09.5,1.15,1.15,0,0,1-.22.73.78.78,0,0,1-.64.27Z"/><path class="cls-22" d="M147,249.54a10.63,10.63,0,0,1-.6,3.72,7.36,7.36,0,0,1-1.67,2.67,7.22,7.22,0,0,1-2.53,1.62,9.32,9.32,0,0,1-6.31,0,7.09,7.09,0,0,1-2.52-1.62,7.25,7.25,0,0,1-1.68-2.67,10.59,10.59,0,0,1-.6-3.72,10.07,10.07,0,0,1,.62-3.7,7.7,7.7,0,0,1,1.68-2.67,7.11,7.11,0,0,1,2.53-1.63,9,9,0,0,1,6.25,0,7.11,7.11,0,0,1,2.53,1.63,7.7,7.7,0,0,1,1.68,2.67A10.07,10.07,0,0,1,147,249.54Zm-2.28,0a7.14,7.14,0,0,0-1.55-5,5.25,5.25,0,0,0-4.13-1.73,6,6,0,0,0-2.33.44,4.88,4.88,0,0,0-1.78,1.3,6,6,0,0,0-1.14,2.09,9.54,9.54,0,0,0-.4,2.86,7.27,7.27,0,0,0,1.54,5,5.79,5.79,0,0,0,8.26,0A7.21,7.21,0,0,0,144.72,249.54Z"/><path class="cls-22" d="M164.7,253.38h-7.35l-.42,1.17c-.14.42-.28.84-.42,1.24s-.27.79-.4,1.14-.23.64-.3.87a2.31,2.31,0,0,1-.91.17,1.4,1.4,0,0,1-.78-.23.83.83,0,0,1-.34-.74,1.74,1.74,0,0,1,.08-.5l.19-.56c.28-.75.63-1.73,1.06-2.91s.9-2.46,1.4-3.8,1-2.69,1.54-4,1-2.58,1.44-3.66a3.3,3.3,0,0,1,.65-.21,4,4,0,0,1,.91-.11,3.4,3.4,0,0,1,1.06.16.94.94,0,0,1,.64.54c.44,1,.91,2.24,1.41,3.58s1,2.71,1.53,4.12,1,2.78,1.47,4.14.88,2.59,1.24,3.69a1.69,1.69,0,0,1-.52.39,1.51,1.51,0,0,1-.68.15,1.23,1.23,0,0,1-.8-.23,1.85,1.85,0,0,1-.47-.77ZM161,243c-.2.54-.43,1.15-.68,1.85s-.53,1.41-.8,2.17-.55,1.52-.82,2.29-.53,1.52-.77,2.22h6.17c-.27-.81-.56-1.63-.85-2.45l-.84-2.36c-.26-.75-.51-1.45-.74-2.09s-.41-1.18-.56-1.63Z"/><path class="cls-22" d="M178.28,251.89v5.81l-.44.12a2.77,2.77,0,0,1-.6.06c-.81,0-1.21-.33-1.21-1V242.52a.89.89,0,0,1,.22-.66,1.59,1.59,0,0,1,.69-.36,9.8,9.8,0,0,1,1.93-.36c.76-.07,1.5-.1,2.21-.1q3.48,0,5.09,1.44a5,5,0,0,1,1.6,3.9,5.14,5.14,0,0,1-1.64,4,7.36,7.36,0,0,1-5.08,1.5Zm2.64-1.84a5.61,5.61,0,0,0,3.4-.89,3.19,3.19,0,0,0,1.2-2.75,3.11,3.11,0,0,0-1.16-2.69,5.66,5.66,0,0,0-3.34-.85c-.49,0-1,0-1.46.07s-.92.1-1.31.18v6.93Z"/><path class="cls-22" d="M191.41,257.43a1.15,1.15,0,0,1-.34-.87V241.39a2.26,2.26,0,0,1,.42-.12,2.45,2.45,0,0,1,.62-.07c.8,0,1.21.33,1.21,1v13.66h7.87a1.2,1.2,0,0,1,.3.89,1.05,1.05,0,0,1-.24.73.87.87,0,0,1-.66.27h-8.32A1.24,1.24,0,0,1,191.41,257.43Z"/><path class="cls-22" d="M213.87,253.37h-7.36c-.12.37-.26.76-.41,1.18s-.29.84-.42,1.24-.27.78-.4,1.14-.23.64-.3.87a2.31,2.31,0,0,1-.91.16,1.39,1.39,0,0,1-.78-.22A.85.85,0,0,1,203,257a1.49,1.49,0,0,1,.08-.5c.05-.17.12-.35.19-.55.28-.76.63-1.73,1.06-2.92s.89-2.45,1.4-3.79,1-2.69,1.53-4,1-2.58,1.44-3.66a3.7,3.7,0,0,1,.66-.21,3.44,3.44,0,0,1,.91-.11,3.39,3.39,0,0,1,1.05.16.93.93,0,0,1,.65.54c.44,1,.91,2.24,1.41,3.58s1,2.71,1.52,4.11,1,2.79,1.47,4.15.88,2.59,1.25,3.68a1.68,1.68,0,0,1-.52.4,1.67,1.67,0,0,1-.69.14,1.22,1.22,0,0,1-.79-.22,1.85,1.85,0,0,1-.47-.77ZM210.19,243l-.69,1.85c-.25.7-.52,1.42-.79,2.18s-.55,1.52-.82,2.29-.54,1.51-.77,2.22h6.17c-.27-.81-.56-1.63-.85-2.45l-.84-2.36c-.26-.76-.51-1.45-.74-2.09s-.41-1.19-.56-1.64Z"/><path class="cls-22" d="M231.61,241.79a1.16,1.16,0,0,1,.15.57,1.44,1.44,0,0,1-.15.67,5.25,5.25,0,0,1-.43.68l-9,12.18h9.52a1.21,1.21,0,0,1,.2.36,1.69,1.69,0,0,1,.08.53,1,1,0,0,1-.23.71.82.82,0,0,1-.62.26H219.88a1.67,1.67,0,0,1-.37-.46,1.07,1.07,0,0,1-.16-.57,1.35,1.35,0,0,1,.16-.67,5.07,5.07,0,0,1,.42-.68l9-12.17h-9.14c0-.09-.11-.22-.18-.37a1.44,1.44,0,0,1-.09-.53,1,1,0,0,1,.23-.71.83.83,0,0,1,.65-.26h10.8A1.7,1.7,0,0,1,231.61,241.79Z"/><path class="cls-22" d="M249.81,249.54a10.58,10.58,0,0,1-.6,3.71,7.51,7.51,0,0,1-1.68,2.68,7.09,7.09,0,0,1-2.52,1.62,9.32,9.32,0,0,1-6.31,0,7.22,7.22,0,0,1-2.53-1.62,7.49,7.49,0,0,1-1.67-2.68,10.54,10.54,0,0,1-.6-3.71,10.25,10.25,0,0,1,.61-3.7,7.87,7.87,0,0,1,1.69-2.67,7,7,0,0,1,2.53-1.64,9.15,9.15,0,0,1,6.25,0,7.13,7.13,0,0,1,2.53,1.64,7.7,7.7,0,0,1,1.68,2.67A10.24,10.24,0,0,1,249.81,249.54Zm-2.28,0a7.17,7.17,0,0,0-1.55-5,5.28,5.28,0,0,0-4.13-1.73,5.83,5.83,0,0,0-2.33.45,4.88,4.88,0,0,0-1.78,1.3,5.61,5.61,0,0,0-1.14,2.09,9.23,9.23,0,0,0-.4,2.86,7.22,7.22,0,0,0,1.54,5,5.22,5.22,0,0,0,4.11,1.73,5.29,5.29,0,0,0,4.15-1.73A7.26,7.26,0,0,0,247.53,249.54Z"/><path class="cls-22" d="M268.49,241.33a1.87,1.87,0,0,1,.17.37,1.59,1.59,0,0,1,.08.5,1.09,1.09,0,0,1-.22.72.75.75,0,0,1-.63.27h-7.46v5.61h7.1a2,2,0,0,1,.17.36,1.64,1.64,0,0,1,.08.5,1.1,1.1,0,0,1-.22.73.77.77,0,0,1-.63.27h-6.5v7.05a2.58,2.58,0,0,1-.43.11,2.88,2.88,0,0,1-.59.05c-.82,0-1.23-.32-1.23-1V242.52a1.14,1.14,0,0,1,.33-.86,1.18,1.18,0,0,1,.88-.33Z"/><path class="cls-22" d="M273.68,257.81a2.25,2.25,0,0,1-.6.07c-.81,0-1.21-.33-1.21-1v-15.5l.42-.12a3.11,3.11,0,0,1,.62-.06c.79,0,1.18.33,1.18,1v15.49A2.36,2.36,0,0,1,273.68,257.81Z"/><path class="cls-22" d="M282.36,241.26a3,3,0,0,1,.59-.06c.81,0,1.21.33,1.21,1v11.55a5.1,5.1,0,0,1-.36,2,3.3,3.3,0,0,1-1,1.32,3.79,3.79,0,0,1-1.43.72,6.67,6.67,0,0,1-1.68.21,5.32,5.32,0,0,1-2.28-.36,1.07,1.07,0,0,1-.71-1,1.23,1.23,0,0,1,.16-.65,2.17,2.17,0,0,1,.3-.4,8.57,8.57,0,0,0,1,.35,4.37,4.37,0,0,0,1.21.16,2.76,2.76,0,0,0,1.89-.58,2.5,2.5,0,0,0,.66-2V241.38Z"/><path class="cls-22" d="M303.45,249.54a10.58,10.58,0,0,1-.6,3.71,7.38,7.38,0,0,1-1.68,2.67,6.83,6.83,0,0,1-2.52,1.62,9.17,9.17,0,0,1-6.31,0,7,7,0,0,1-2.53-1.62,7.36,7.36,0,0,1-1.67-2.67,10.58,10.58,0,0,1-.6-3.71,10.21,10.21,0,0,1,.61-3.7,7.72,7.72,0,0,1,1.69-2.67,7,7,0,0,1,2.52-1.64,9.18,9.18,0,0,1,6.26,0,7,7,0,0,1,2.52,1.64,7.58,7.58,0,0,1,1.69,2.67A10.21,10.21,0,0,1,303.45,249.54Zm-2.28,0a7.17,7.17,0,0,0-1.55-5,5.28,5.28,0,0,0-4.13-1.73,5.83,5.83,0,0,0-2.33.45,5,5,0,0,0-1.78,1.29,5.74,5.74,0,0,0-1.14,2.1,9.19,9.19,0,0,0-.4,2.86,7.22,7.22,0,0,0,1.54,5,5.22,5.22,0,0,0,4.11,1.73,5.29,5.29,0,0,0,4.15-1.73A7.26,7.26,0,0,0,301.17,249.54Z"/></g></g></g></svg>