<svg xmlns="http://www.w3.org/2000/svg" xmlns:xlink="http://www.w3.org/1999/xlink" viewBox="0 0 286.06 248.57"><defs><style>.cls-1{fill:none;}.cls-2{isolation:isolate;}.cls-3{fill:#dadada;}.cls-4{fill:#ededed;}.cls-5{fill:#b2b2b2;}.cls-6{fill:#f6f6f6;}.cls-7{opacity:0.1;}.cls-8{clip-path:url(#clip-path);}.cls-9{fill:#1d1d1b;}.cls-10{fill:#edb485;}.cls-11{fill:#fff;}.cls-12{fill:#bbeadb;}.cls-13{fill:#1a252e;}.cls-14{fill:#fff7dc;}.cls-15{fill:#2e3133;}.cls-16{fill:#424549;}.cls-17{fill:#d69b6b;}.cls-18{fill:#edd6b6;}.cls-19{fill:#2a2626;}.cls-20,.cls-27,.cls-40{opacity:0.3;}.cls-20{mix-blend-mode:multiply;}.cls-21{clip-path:url(#clip-path-2);}.cls-22{fill:#222e38;}.cls-23{opacity:0.4;}.cls-24{clip-path:url(#clip-path-3);}.cls-25{fill:#2b3e4f;}.cls-26{fill:#e1e7e8;}.cls-28{clip-path:url(#clip-path-4);}.cls-29{fill:#f3ad7a;}.cls-30{clip-path:url(#clip-path-5);}.cls-31{fill:#ffcd9c;}.cls-32{fill:#fec08a;}.cls-33{fill:#713815;}.cls-34{fill:#52290f;}.cls-35{clip-path:url(#clip-path-6);}.cls-36{fill:#f48fb7;}.cls-37{fill:#f5a505;}.cls-38{fill:#ffca00;}.cls-39{fill:#feac1a;}.cls-40{mix-blend-mode:screen;}.cls-41{clip-path:url(#clip-path-7);}.cls-42{opacity:0.23;}.cls-43{clip-path:url(#clip-path-8);}.cls-44{fill:#a7a6a7;}.cls-45{fill:#218400;}.cls-46{fill:#6d6e71;}</style><clipPath id="clip-path"><rect class="cls-1" x="70.79" y="24.62" width="63.65" height="148.93"/></clipPath><clipPath id="clip-path-2"><rect class="cls-1" x="189.25" y="95.72" width="29.63" height="78"/></clipPath><clipPath id="clip-path-3"><rect class="cls-1" x="192.54" y="95.68" width="59.29" height="70.35"/></clipPath><clipPath id="clip-path-4"><rect class="cls-1" x="191.41" y="35.57" width="29.02" height="59.15"/></clipPath><clipPath id="clip-path-5"><rect class="cls-1" x="202.83" y="17.08" width="8.64" height="20.65"/></clipPath><clipPath id="clip-path-6"><rect class="cls-1" x="213.87" y="21.13" width="3.51" height="2.3"/></clipPath><clipPath id="clip-path-7"><rect class="cls-1" x="177.56" y="46.52" width="12.02" height="12.7"/></clipPath><clipPath id="clip-path-8"><rect class="cls-1" x="8.95" y="189.93" width="277.11" height="55.18"/></clipPath></defs><g class="cls-2"><g id="Capa_2" data-name="Capa 2"><g id="Capa_1-2" data-name="Capa 1"><rect class="cls-3" x="70.79" y="24.62" width="127.3" height="144.16"/><rect class="cls-4" x="89.03" y="42.86" width="90.82" height="107.68"/><path class="cls-4" d="M175.3,146H93.59V47.42H175.3Zm4.56-103.12H89V150.54h90.83Z"/><rect class="cls-4" x="89.03" y="42.86" width="90.82" height="107.68"/><path class="cls-5" d="M175.3,146H93.59V47.42H175.3Zm4.56-103.12H89V150.54h90.83Z"/><rect class="cls-4" x="86.38" y="122.87" width="5.32" height="16.24"/><rect class="cls-4" x="86.38" y="54.29" width="5.32" height="16.24"/><path class="cls-5" d="M157.39,87.24A22.95,22.95,0,1,1,134.45,64.3a22.94,22.94,0,0,1,22.94,22.94"/><path class="cls-6" d="M155.68,87.24A21.24,21.24,0,1,1,134.45,66a21.24,21.24,0,0,1,21.23,21.23"/><polygon class="cls-5" points="134.02 67.55 134.94 67.55 135.58 76.9 136.47 77.03 139.87 68.31 140.74 68.58 138.6 77.7 139.41 78.08 145.23 70.75 145.99 71.26 141.26 79.35 141.91 79.96 149.64 74.66 150.21 75.38 143.3 81.71 143.75 82.48 152.69 79.7 153.03 80.56 144.56 84.57 144.76 85.44 154.13 85.42 154.19 86.33 144.93 87.68 144.86 88.57 153.81 91.31 153.61 92.2 144.35 90.75 144.03 91.58 151.78 96.84 151.32 97.63 142.9 93.52 142.35 94.22 148.2 101.53 147.53 102.14 140.7 95.74 139.96 96.24 143.4 104.95 142.58 105.34 137.94 97.21 137.09 97.47 137.81 106.81 136.91 106.94 134.87 97.8 133.98 97.8 131.92 106.93 131.01 106.8 131.76 97.46 130.91 97.19 126.25 105.32 125.43 104.92 128.9 96.22 128.16 95.72 121.31 102.1 120.64 101.48 126.52 94.19 125.96 93.49 117.53 97.57 117.08 96.78 124.85 91.55 124.52 90.72 115.27 92.13 115.06 91.24 124.03 88.53 123.96 87.64 114.7 86.27 114.77 85.36 124.13 85.41 124.33 84.54 115.89 80.49 116.22 79.64 125.16 82.45 125.6 81.68 118.72 75.33 119.3 74.61 127 79.93 127.66 79.33 122.96 71.22 123.71 70.71 129.51 78.07 130.32 77.68 128.21 68.56 129.09 68.29 132.46 77.02 133.34 76.89 134.02 67.55"/><path class="cls-5" d="M146.56,87.24a12.12,12.12,0,1,1-12.12-12.11,12.11,12.11,0,0,1,12.12,12.11"/><path class="cls-6" d="M144.09,87.24a9.65,9.65,0,1,1-9.65-9.64,9.65,9.65,0,0,1,9.65,9.64"/><polygon class="cls-5" points="131.02 65.08 134.45 59.14 137.88 65.08 131.02 65.08"/><rect class="cls-5" x="117.66" y="120.73" width="6.22" height="10.27"/><rect class="cls-5" x="126.77" y="120.73" width="6.22" height="10.27"/><rect class="cls-5" x="135.89" y="120.73" width="6.22" height="10.27"/><rect class="cls-5" x="145.01" y="120.73" width="6.22" height="10.27"/><rect class="cls-5" x="183.18" y="168.78" width="8.55" height="4.77"/><rect class="cls-5" x="77.16" y="168.78" width="8.55" height="4.77"/><g class="cls-7"><g class="cls-8"><polygon class="cls-9" points="134.44 24.62 70.8 24.62 70.8 168.78 77.16 168.78 77.16 173.55 85.71 173.55 85.71 168.78 134.44 168.78 134.44 24.62"/></g></g><rect class="cls-10" x="239.93" y="93.99" width="3.25" height="5.63" transform="translate(-9.63 164.82) rotate(-36.99)"/><path class="cls-10" d="M243.65,101.62a.83.83,0,0,0-1.48.74l2.21,4.43a.82.82,0,1,0,1.47-.74Z"/><path class="cls-10" d="M246.88,99.45a.83.83,0,0,0-1.15-.18.82.82,0,0,0-.18,1.15l2.9,4a.84.84,0,0,0,1.16.18.83.83,0,0,0,.18-1.15Z"/><path class="cls-10" d="M249.41,98.49a.9.9,0,0,1-.94.86l-4-.19a2.94,2.94,0,0,1-.43-1.3c0-.26.63-.69.63-.69l3.88.38a.9.9,0,0,1,.85.94"/><path class="cls-10" d="M245.68,101.15a.82.82,0,0,0-1.4.87l2.61,4.21a.82.82,0,1,0,1.4-.87Z"/><path class="cls-10" d="M243.08,97.61h2.33A1.63,1.63,0,0,1,247,99.24v2.33a1.63,1.63,0,0,1-1.63,1.63h-2.33a1.63,1.63,0,0,1-1.63-1.63V99.25A1.64,1.64,0,0,1,243.08,97.61Z" transform="matrix(0.85, -0.53, 0.53, 0.85, -16.25, 143.78)"/><path class="cls-11" d="M238,97.27c.79,1.27,1.48,2.27,1.48,2.27l4.76-4s-.89-1.33-1.87-2.57Z"/><path class="cls-12" d="M244,94.46a115.84,115.84,0,0,1-22.12-55.57,3.67,3.67,0,0,0-3.79-3.36,3.52,3.52,0,0,0-3.19,4,122.93,122.93,0,0,0,23.77,59.56c1.75-1.56,3.5-2.78,5.33-4.6"/><path class="cls-13" d="M218.88,95.72V91.89a13,13,0,0,0-13-13h-.23a13,13,0,0,0-13,13l-.06,7.45Z"/><rect class="cls-10" x="243.97" y="162.66" width="5.5" height="4.62" transform="translate(-41.03 92.26) rotate(-19.59)"/><rect class="cls-14" x="244.83" y="165.41" width="6.46" height="6.7" transform="translate(-42.23 92.98) rotate(-19.6)"/><path class="cls-15" d="M245.77,175.28a1.19,1.19,0,0,0,1.51.76l6.71-2.21,10.54-3.48-.5-1.5-18.38,6.07Z"/><path class="cls-16" d="M258.73,166.84l-2.22.73-.69.19-.24,0a2,2,0,0,1-1.08-.08.78.78,0,0,1-.22-.12,1.31,1.31,0,0,1-.47-.68l-.06-.18a2.38,2.38,0,0,0-4.58,1.27h0l.05.15a2.26,2.26,0,0,1-4.29,1.41l0-.13a1.22,1.22,0,0,0-.56,1.43l.76,2.32h0l.59,1.76L264,168.89c-.76-2.31-3-2.82-5.31-2"/><rect class="cls-17" x="192.85" y="168.82" width="4.05" height="4.82" transform="translate(-30.31 300.03) rotate(-71.07)"/><rect class="cls-18" x="190.8" y="171.73" width="5.87" height="5.66" transform="translate(-34.11 301.41) rotate(-71.13)"/><path class="cls-15" d="M188.25,178.56a1,1,0,0,0,.56,1.37l5.73,2.38,9,3.74.53-1.29-15.67-6.51Z"/><path class="cls-15" d="M201.68,180.39l-1.89-.79a5.15,5.15,0,0,1-.57-.27l-.18-.11a1.7,1.7,0,0,1-.67-.67,1,1,0,0,1-.08-.2,1.2,1.2,0,0,1,.08-.72l0-.08h0l0-.06a2.09,2.09,0,0,0-3.77-1.8h0l0,.13a2,2,0,0,1-3.66-1.52l.05-.11a1,1,0,0,0-1.19.62l-.82,2-.63,1.51L204,184.79c.82-2-.38-3.58-2.35-4.4"/><path class="cls-19" d="M218.88,95.72c-3.06,25.87-10.33,53.63-19.55,78-2.91-1-7.16-3.15-10.08-4.17,6.92-23.4,14.61-49.12,17-73.83Z"/><g class="cls-20"><g class="cls-21"><path class="cls-22" d="M207.69,117.79c.9-2.69,4.49.68,6.73,4.55,1.91-9,3.43-17.9,4.46-26.62H206.25c-2.39,24.71-10.08,50.43-17,73.83,2.92,1,7.17,3.14,10.08,4.17l.33-.9c-12.24-13.47,4-37.71,8-55"/></g></g><path class="cls-19" d="M214.23,101a67.17,67.17,0,0,0-7.15-5.31H192.55v5.69a4.66,4.66,0,0,0,2.56,4.16l.31.14c23.85,11,37.36,35.42,45.68,60.36,3-.94,7.79-2.63,10.73-3.57-6.92-22.69-19.57-46.25-37.6-61.47"/><g class="cls-23"><g class="cls-24"><path class="cls-25" d="M244.77,159.66c-17.94-21.53-25.12-45.45-50.23-59.81V95.68h-2v5.69a4.67,4.67,0,0,0,2.57,4.16l.31.14c23.85,11,37.36,35.42,45.68,60.36,3-.94,7.79-2.63,10.73-3.57-.47-1.54-1-3.09-1.49-4.63-2.13,1-4.08,2.57-5.57,1.83"/></g></g><path class="cls-26" d="M220.43,37.82V92.54a2,2,0,0,1-.11.74,1.73,1.73,0,0,1-.3.57v0a2,2,0,0,1-1.26.8,1,1,0,0,1-.39,0H193a1.31,1.31,0,0,1-.34,0,2.28,2.28,0,0,1-.59-.2,2.21,2.21,0,0,1-1.12-1.95V37.82a3,3,0,0,1,0-.44,2.23,2.23,0,0,1,.73-1.28,2,2,0,0,1,1.28-.48l1.05-.18L202.14,34l.62-.12,3.57-.62,0,0,5.15,1,.77.16,2.38.46,2.74.53,1.06.18a3.69,3.69,0,0,1,1.07.53,2,2,0,0,1,.87,1.32,3.1,3.1,0,0,1,0,.44"/><path class="cls-12" d="M220.43,37.82V92.54a2,2,0,0,1-.11.74,1.73,1.73,0,0,1-.3.57v0a2,2,0,0,1-1.26.8,1,1,0,0,1-.39,0H193a1.31,1.31,0,0,1-.34,0,2.28,2.28,0,0,1-.59-.2,2.21,2.21,0,0,1-1.12-1.95V37.82a3,3,0,0,1,0-.44,2.23,2.23,0,0,1,.73-1.28,2,2,0,0,1,1.28-.48l1.05-.18L202.14,34l4.94,29.58,5.21-29.2,2.38.46,2.74.53,1.06.18a3.69,3.69,0,0,1,1.07.53,2,2,0,0,1,.87,1.32,3.1,3.1,0,0,1,0,.44"/><g class="cls-27"><g class="cls-28"><path class="cls-22" d="M220.41,37.38a2,2,0,0,0-.87-1.32,3.06,3.06,0,0,0-1-.49,1.6,1.6,0,0,1,0,.3c0,12.2,2.32,27.3-5.23,37.17,1.16,0,2.33,1.17,2.91,1.75C219.16,80,218,87,213.93,89.31c-7,3.33-14.76,4.56-22.52,4.67a2.09,2.09,0,0,0,.6.51,2.49,2.49,0,0,0,.6.2,1.31,1.31,0,0,0,.34,0h25.42a1,1,0,0,0,.39,0,2,2,0,0,0,1.26-.8v0a1.73,1.73,0,0,0,.3-.57,2,2,0,0,0,.11-.74V37.82a3.1,3.1,0,0,0,0-.44"/></g></g><path class="cls-22" d="M208.42,69.56a1.67,1.67,0,1,0-1.67,1.66,1.66,1.66,0,0,0,1.67-1.66"/><path class="cls-22" d="M208.42,86.33A1.67,1.67,0,1,0,206.75,88a1.66,1.66,0,0,0,1.67-1.67"/><path class="cls-22" d="M208.42,78a1.67,1.67,0,1,0-1.67,1.66A1.66,1.66,0,0,0,208.42,78"/><path class="cls-29" d="M210.91,37.74a4.39,4.39,0,0,0,.56-2.13V21.4a4.32,4.32,0,0,0-8.64,0V35.61a4.28,4.28,0,0,0,.56,2.13Z"/><g class="cls-20"><g class="cls-30"><path class="cls-29" d="M204.6,37.74c-.26-1.45,0-1.87,2.09-3.14,1.19-.7,3.18,1.29,4.78,1V21.4a4.32,4.32,0,0,0-8.64,0V35.61a4.28,4.28,0,0,0,.56,2.13Z"/></g></g><path class="cls-31" d="M218,21.47a9,9,0,0,1-18,0V12a9,9,0,0,1,18,0Z"/><path class="cls-32" d="M205.47,26.13c-3.83-5.3-3.24-12.37-2.06-18.56,4.7-.49,9.4.67,14.1,1.41A9,9,0,0,0,200,12v9.45a9,9,0,0,0,12.4,8.34,9.55,9.55,0,0,1-7-3.68"/><path class="cls-31" d="M218,21.47V12a9,9,0,0,0-.53-3c-4.7-.74-9.4-1.9-14.1-1.41-1.18,6.19-1.77,13.26,2.06,18.56a9.55,9.55,0,0,0,7,3.68,9,9,0,0,0,5.6-8.34"/><path class="cls-33" d="M194.73,6.25c1.3-2.95,5.76-2.79,5.76-2.79s0-3.45,6.66-3.41c5.18-.35,7.95,1.07,9.39,3.54a5.12,5.12,0,0,0,4.53,1,.75.75,0,0,1,.94.71,3.08,3.08,0,0,1-3.22,3.09c-7.32.19-13.68-3.2-16-2-2.83,1.46.11,13.73.11,13.73a1,1,0,1,1-2,.33l-.51-3a3.24,3.24,0,0,0-.39-.63l.05,4.77a9.33,9.33,0,0,0,.76,3.72c-4.27-.78-7.55-5.52-7.55-11.25a22.19,22.19,0,0,1,1.43-7.8"/><path class="cls-33" d="M221.07,4.6a5.12,5.12,0,0,1-4.53-1C215.1,1.12,212.33-.3,207.15.05c-6.69,0-6.66,3.41-6.66,3.41a9.45,9.45,0,0,0-2.44.3c-2.37,2.14-4.24,4.56-3.78,8.23.25,3.88,2.09,9,5.86,10.47a8.51,8.51,0,0,1,0-.88L200,16.81a3.6,3.6,0,0,1,.39.63l.51,3a1,1,0,1,0,2-.33S200,7.83,202.83,6.37c2.28-1.17,8.64,2.22,16,2A3.08,3.08,0,0,0,222,5.31a.75.75,0,0,0-.94-.71"/><path class="cls-34" d="M194.27,12c-.46-3.67,1.41-6.09,3.78-8.23a4.73,4.73,0,0,0-3.32,2.49,22.19,22.19,0,0,0-1.43,7.8c0,5.73,3.28,10.47,7.55,11.25a9.27,9.27,0,0,1-.72-2.84c-3.77-1.51-5.61-6.59-5.86-10.47"/><path class="cls-32" d="M200.23,20.35c-1,.4-2.23-.49-2.85-2s-.34-3,.61-3.42,2.24.49,2.86,2,.34,3-.62,3.42"/><path class="cls-29" d="M199.71,18.92c-.39.2-1-.13-1.25-.72s-.25-1.24.13-1.44.94.13,1.25.72.25,1.24-.13,1.44"/><g class="cls-7"><g class="cls-35"><path class="cls-36" d="M213.9,22.76c.16.58,1.06.83,2,.56s1.6-.94,1.44-1.52-1.07-.83-2-.57-1.6.95-1.44,1.53"/></g></g><path class="cls-33" d="M210.72,29.65a1,1,0,0,0,.05-.28.58.58,0,0,0-.05.28"/><path class="cls-12" d="M181.07,76.81a3.23,3.23,0,0,1-1.95-.66,11.85,11.85,0,0,1-4.61-9.39c-.31-10.76,11.11-25.39,17-30.47a3.19,3.19,0,0,1,4.17,4.84c-5.14,4.43-15,17.43-14.79,25.45a5.43,5.43,0,0,0,2.13,4.5,3.2,3.2,0,0,1-2,5.73"/><path class="cls-37" d="M180,59.18a12.38,12.38,0,0,0,12.72,12L192,46.45a12.39,12.39,0,0,0-12,12.73"/><path class="cls-37" d="M204.74,58.49a12.4,12.4,0,0,1-.46,3.73,12.14,12.14,0,0,1-2.44,4.58,12.27,12.27,0,0,1-6.8,4.13,11.89,11.89,0,0,1-2.34.29L192,46.45h.84a12.38,12.38,0,0,1,11.89,12"/><path class="cls-38" d="M189.61,46.52a12.39,12.39,0,1,0,12.73,12,12.39,12.39,0,0,0-12.73-12"/><path class="cls-39" d="M179.66,59.19a10.3,10.3,0,0,0,10.58,10l-.57-20.6a10.29,10.29,0,0,0-10,10.58"/><path class="cls-39" d="M189.67,48.61l.57,20.6a10.3,10.3,0,0,0-.57-20.6"/><g class="cls-40"><g class="cls-41"><path class="cls-38" d="M186.63,47l-8.78,9.28a13.24,13.24,0,0,0-.28,3l12-12.7a12.52,12.52,0,0,0-3,.45"/></g></g><rect class="cls-10" x="200.51" y="56.82" width="4.8" height="2.77" transform="translate(46.85 200.35) rotate(-58.34)"/><path class="cls-10" d="M206.09,55.05a.7.7,0,0,0,0,1,.71.71,0,0,0,1,0L210,52.87a.7.7,0,1,0-1-.94Z"/><path class="cls-10" d="M203.36,53.16a.7.7,0,1,0,1.18.76l2.28-3.55a.72.72,0,0,0-.21-1,.71.71,0,0,0-1,.22Z"/><path class="cls-10" d="M201.81,51.45a.76.76,0,0,1,1,.48l1.09,3.23a2.54,2.54,0,0,1-.9.74c-.21.08-.74-.29-.74-.29l-.9-3.19a.76.76,0,0,1,.48-1"/><path class="cls-10" d="M205.08,53.58a.71.71,0,1,0,1.13.85l2.53-3.38a.71.71,0,0,0-.14-1,.71.71,0,0,0-1,.14Z"/><path class="cls-10" d="M203.94,52.56h2A1.39,1.39,0,0,1,207.32,54v2a1.39,1.39,0,0,1-1.39,1.39h-2a1.39,1.39,0,0,1-1.39-1.39V54a1.4,1.4,0,0,1,1.4-1.4Z" transform="matrix(0.6, -0.8, 0.8, 0.6, 38, 185.91)"/><path class="cls-11" d="M204.38,60.87c.76-1,1.33-1.88,1.33-1.88l-4.61-2.55s-.78,1.12-1.46,2.28Z"/><path class="cls-12" d="M184.75,78.11a9.13,9.13,0,0,1-5.63-2,3.19,3.19,0,0,1,3.9-5.06,2.63,2.63,0,0,0,2.19.6c4.86-.72,12-10.73,15-15l5.2,3.7c-5.67,8-12.31,16.58-19.27,17.62a9.57,9.57,0,0,1-1.41.11"/><g class="cls-42"><g class="cls-43"><path class="cls-44" d="M260.52,245.11H9V189.93H260.52a25.53,25.53,0,0,1,25.54,25.53v4.11a25.53,25.53,0,0,1-25.54,25.54"/></g></g><path class="cls-45" d="M20.68,218l-8.8,26.39A6.09,6.09,0,1,1,.32,240.54l7.53-22.6L.3,194.43a6.09,6.09,0,1,1,11.6-3.73Z"/><path class="cls-46" d="M45.85,211.06a1,1,0,0,1-.23.65,1.62,1.62,0,0,1-.54.41,10.35,10.35,0,0,0-1.67-.92,7,7,0,0,0-4.83,0,5.31,5.31,0,0,0-1.87,1.27,5.84,5.84,0,0,0-1.24,2.11,8.38,8.38,0,0,0-.46,2.91,8.84,8.84,0,0,0,.44,2.92,5.84,5.84,0,0,0,1.22,2.08,5,5,0,0,0,1.88,1.25,6.79,6.79,0,0,0,2.44.42,7.23,7.23,0,0,0,2.49-.39,7,7,0,0,0,1.77-.93,1.39,1.39,0,0,1,.52.39,1,1,0,0,1,.25.66,1.29,1.29,0,0,1-.66,1,6.92,6.92,0,0,1-1.73.77,9.94,9.94,0,0,1-2.8.33,9.32,9.32,0,0,1-3.21-.54,7.11,7.11,0,0,1-2.57-1.6,7.62,7.62,0,0,1-1.71-2.66,10.12,10.12,0,0,1-.63-3.73,10,10,0,0,1,.64-3.74,7.65,7.65,0,0,1,1.75-2.68,7.07,7.07,0,0,1,2.56-1.62,8.89,8.89,0,0,1,3.09-.54,11.08,11.08,0,0,1,2.07.18,8,8,0,0,1,1.62.5,3.43,3.43,0,0,1,1,.7A1.15,1.15,0,0,1,45.85,211.06Z"/><path class="cls-46" d="M61.81,222.49a5.21,5.21,0,0,1-1.27,1.89,5.91,5.91,0,0,1-2,1.21,9.14,9.14,0,0,1-5.54,0,5.69,5.69,0,0,1-2-1.21,5.16,5.16,0,0,1-1.25-1.89,6.78,6.78,0,0,1-.43-2.49V209.31a2.41,2.41,0,0,1,.43-.12,2.45,2.45,0,0,1,.62-.07c.78,0,1.18.33,1.18,1v9.69a5.19,5.19,0,0,0,.32,1.89,4,4,0,0,0,.9,1.37,3.47,3.47,0,0,0,1.34.82,5.12,5.12,0,0,0,1.69.27,5.21,5.21,0,0,0,1.69-.27,3.47,3.47,0,0,0,1.34-.82,4.11,4.11,0,0,0,.89-1.37,5,5,0,0,0,.33-1.89v-10.5a2.18,2.18,0,0,1,.43-.12,2.37,2.37,0,0,1,.61-.07c.81,0,1.21.33,1.21,1V220A7,7,0,0,1,61.81,222.49Z"/><path class="cls-46" d="M66.87,225.35a1.18,1.18,0,0,1-.33-.87v-14a1.15,1.15,0,0,1,.33-.86,1.18,1.18,0,0,1,.88-.32h9.1a2.19,2.19,0,0,1,.17.37,1.59,1.59,0,0,1,.08.5,1.12,1.12,0,0,1-.22.73.75.75,0,0,1-.63.27H68.76v5.21H76a2,2,0,0,1,.17.36,1.64,1.64,0,0,1,.08.5,1.05,1.05,0,0,1-.22.72.77.77,0,0,1-.63.25H68.76v5.67H77a2,2,0,0,1,.17.36,1.52,1.52,0,0,1,.08.51,1,1,0,0,1-.22.71.77.77,0,0,1-.63.26H67.75A1.22,1.22,0,0,1,66.87,225.35Z"/><path class="cls-46" d="M81.79,225.81c-.8,0-1.2-.33-1.2-1V209.58a2,2,0,0,1,1.48-.49,2,2,0,0,1,2,1.19l5.24,8.64.69,1.2c.24.43.47.85.69,1.27l.61,1.19c.2.37.35.68.48.93l.11,0c-.14-1.45-.23-2.92-.26-4.4s0-2.91,0-4.32v-5.45l.44-.12a2.25,2.25,0,0,1,.6-.07c.81,0,1.21.32,1.21,1v15.28a1.58,1.58,0,0,1-.63.34,2.86,2.86,0,0,1-.85.12,2.36,2.36,0,0,1-1.13-.25,2.4,2.4,0,0,1-.85-.94L85.14,216c-.22-.35-.45-.75-.7-1.18l-.71-1.27c-.23-.42-.44-.81-.63-1.19s-.36-.69-.48-1l-.11,0c.09.87.16,1.85.22,3s.08,2.15.08,3.14v8.08l-.43.12A2.88,2.88,0,0,1,81.79,225.81Z"/><path class="cls-46" d="M104,211.12v14.5l-.43.12a2.88,2.88,0,0,1-.59.07c-.8,0-1.21-.34-1.21-1V211.12H96.66a1.93,1.93,0,0,1-.16-.37,1.42,1.42,0,0,1-.08-.52,1.05,1.05,0,0,1,.22-.72.77.77,0,0,1,.63-.26h11.88a2.26,2.26,0,0,1,.16.37,1.35,1.35,0,0,1,.09.5,1.17,1.17,0,0,1-.22.73.78.78,0,0,1-.64.27Z"/><path class="cls-46" d="M120.21,221.3h-7.36c-.13.36-.26.75-.41,1.17s-.29.84-.42,1.24-.27.78-.4,1.14-.23.64-.3.87a2.31,2.31,0,0,1-.91.17,1.4,1.4,0,0,1-.78-.23.84.84,0,0,1-.34-.75,1.53,1.53,0,0,1,.08-.5c0-.17.12-.35.19-.55.27-.76.63-1.73,1.06-2.91s.89-2.46,1.4-3.8,1-2.69,1.53-4.05,1-2.58,1.44-3.66a3.7,3.7,0,0,1,.66-.21,3.91,3.91,0,0,1,.91-.11,3.39,3.39,0,0,1,1,.16.93.93,0,0,1,.65.54c.44,1.05.91,2.24,1.41,3.58s1,2.71,1.52,4.12,1,2.78,1.47,4.14.88,2.59,1.25,3.69a1.82,1.82,0,0,1-.52.39,1.52,1.52,0,0,1-.69.15,1.2,1.2,0,0,1-.79-.23,1.75,1.75,0,0,1-.47-.77ZM116.53,211l-.69,1.85c-.25.7-.52,1.42-.79,2.18s-.55,1.52-.83,2.29-.53,1.52-.76,2.22h6.17c-.28-.81-.56-1.63-.85-2.45l-.84-2.36c-.26-.76-.51-1.45-.74-2.09s-.42-1.18-.56-1.64Z"/><path class="cls-46" d="M143.77,211.06a.94.94,0,0,1-.23.65,1.49,1.49,0,0,1-.53.41,10.92,10.92,0,0,0-1.68-.92,6.08,6.08,0,0,0-2.49-.43,6.17,6.17,0,0,0-2.34.43,5.27,5.27,0,0,0-1.86,1.27,5.9,5.9,0,0,0-1.25,2.1,8.74,8.74,0,0,0-.45,2.92,8.58,8.58,0,0,0,.44,2.92,5.65,5.65,0,0,0,1.22,2.07,4.87,4.87,0,0,0,1.88,1.26,6.75,6.75,0,0,0,2.44.42,7.13,7.13,0,0,0,2.48-.39,7.34,7.34,0,0,0,1.77-.94,1.46,1.46,0,0,1,.52.4.92.92,0,0,1,.25.66,1.27,1.27,0,0,1-.66,1,6.26,6.26,0,0,1-1.73.77,9.5,9.5,0,0,1-2.8.34,9.32,9.32,0,0,1-3.21-.54,7,7,0,0,1-2.56-1.61,7.42,7.42,0,0,1-1.72-2.66,11.19,11.19,0,0,1,0-7.46,7.82,7.82,0,0,1,1.74-2.69,7.07,7.07,0,0,1,2.56-1.62,8.89,8.89,0,0,1,3.09-.54,11,11,0,0,1,2.07.19,7.39,7.39,0,0,1,1.62.5,3.31,3.31,0,0,1,1,.7A1.13,1.13,0,0,1,143.77,211.06Z"/><path class="cls-46" d="M161.88,217.46a10.54,10.54,0,0,1-.6,3.71,7.41,7.41,0,0,1-1.67,2.68,7.22,7.22,0,0,1-2.53,1.62,9.32,9.32,0,0,1-6.31,0,7.09,7.09,0,0,1-2.52-1.62,7.42,7.42,0,0,1-1.68-2.68,10.54,10.54,0,0,1-.6-3.71,10.24,10.24,0,0,1,.62-3.7,7.7,7.7,0,0,1,1.68-2.67,7.13,7.13,0,0,1,2.53-1.64,9.15,9.15,0,0,1,6.25,0,7.13,7.13,0,0,1,2.53,1.64,7.87,7.87,0,0,1,1.69,2.67A10.25,10.25,0,0,1,161.88,217.46Zm-2.27,0a7.24,7.24,0,0,0-1.55-5,5.29,5.29,0,0,0-4.13-1.73,5.88,5.88,0,0,0-2.34.45,4.88,4.88,0,0,0-1.78,1.3,5.91,5.91,0,0,0-1.14,2.09,9.54,9.54,0,0,0-.4,2.86,7.27,7.27,0,0,0,1.54,5,5.79,5.79,0,0,0,8.26,0A7.27,7.27,0,0,0,159.61,217.46Z"/><path class="cls-46" d="M167.56,225.62l-.44.12a2.77,2.77,0,0,1-.6.06c-.81,0-1.21-.33-1.21-1V210.44a.94.94,0,0,1,.22-.66,1.6,1.6,0,0,1,.69-.37,10.71,10.71,0,0,1,2-.35c.78-.07,1.53-.1,2.26-.1a8.1,8.1,0,0,1,5.15,1.36,4.71,4.71,0,0,1,1.69,3.87,5,5,0,0,1-1,3.14,5.31,5.31,0,0,1-3,1.8l1.37,1.73,1.31,1.63,1.09,1.4c.32.41.58.73.76,1a1.22,1.22,0,0,1-.48.73,1.28,1.28,0,0,1-.76.27,1.22,1.22,0,0,1-.76-.22,2.76,2.76,0,0,1-.64-.67l-4-5.51h-3.68Zm3.13-8a5.24,5.24,0,0,0,3.18-.86,3,3,0,0,0,1.16-2.57,2.93,2.93,0,0,0-1.21-2.55,6,6,0,0,0-3.46-.85c-.49,0-1,0-1.49.07a10.92,10.92,0,0,0-1.34.18v6.58Z"/><path class="cls-46" d="M183.17,225.61l-.44.13a2.77,2.77,0,0,1-.6.06c-.8,0-1.21-.33-1.21-1V210.44a.94.94,0,0,1,.22-.66,1.6,1.6,0,0,1,.69-.37,9.92,9.92,0,0,1,2-.35c.78-.07,1.53-.11,2.27-.11a8.09,8.09,0,0,1,5.14,1.37,4.71,4.71,0,0,1,1.69,3.87,5,5,0,0,1-1,3.14,5.36,5.36,0,0,1-2.95,1.8l1.38,1.73c.45.58.89,1.12,1.3,1.63s.78,1,1.1,1.4l.75,1a1.22,1.22,0,0,1-.48.73,1.28,1.28,0,0,1-.75.27,1.23,1.23,0,0,1-.77-.22,3,3,0,0,1-.63-.67l-4-5.51h-3.68Zm3.13-8a5.22,5.22,0,0,0,3.18-.86,3,3,0,0,0,1.16-2.57,2.93,2.93,0,0,0-1.21-2.55,6,6,0,0,0-3.46-.85c-.49,0-1,0-1.49.07a12.91,12.91,0,0,0-1.33.17v6.59Z"/><path class="cls-46" d="M198.4,225.74a2.77,2.77,0,0,1-.6.06c-.81,0-1.21-.33-1.21-1V209.31a2.72,2.72,0,0,1,1-.19c.79,0,1.18.33,1.18,1v15.49A3.41,3.41,0,0,1,198.4,225.74Z"/><path class="cls-46" d="M203.53,225.34a1.14,1.14,0,0,1-.33-.86v-14a1.14,1.14,0,0,1,.33-.86,1.18,1.18,0,0,1,.88-.33h9.11a1.93,1.93,0,0,1,.16.37,1.35,1.35,0,0,1,.09.5,1.14,1.14,0,0,1-.22.72.77.77,0,0,1-.63.27h-7.49v5.21h7.24a1.8,1.8,0,0,1,.16.36,1.35,1.35,0,0,1,.09.5,1.09,1.09,0,0,1-.22.71.77.77,0,0,1-.63.26h-6.64v5.67h8.23a2.36,2.36,0,0,1,.16.35,1.39,1.39,0,0,1,.08.52,1,1,0,0,1-.22.71.77.77,0,0,1-.63.26h-8.64A1.18,1.18,0,0,1,203.53,225.34Z"/><path class="cls-46" d="M218.46,225.8c-.81,0-1.21-.32-1.21-1V209.58a2,2,0,0,1,1.48-.49,2.22,2.22,0,0,1,1.13.26,2.36,2.36,0,0,1,.85.93l5.24,8.64c.22.37.45.78.68,1.2s.47.84.69,1.27l.62,1.19.48.93.11,0c-.15-1.46-.24-2.93-.26-4.4s0-2.92,0-4.32V209.3l.44-.12a2.77,2.77,0,0,1,.6-.06c.8,0,1.21.32,1.21,1v15.28a1.89,1.89,0,0,1-.63.34,2.88,2.88,0,0,1-.86.12,2.32,2.32,0,0,1-1.12-.26,2.29,2.29,0,0,1-.85-.93L221.81,216c-.22-.36-.46-.76-.7-1.19s-.49-.85-.72-1.27-.44-.81-.63-1.18l-.48-1-.11,0c.09.86.17,1.85.22,2.95s.08,2.16.08,3.15v8.07a2.26,2.26,0,0,1-.42.12A2.32,2.32,0,0,1,218.46,225.8Z"/><path class="cls-46" d="M240.68,211.11v14.5a2.26,2.26,0,0,1-.42.12,2.38,2.38,0,0,1-.59.07c-.81,0-1.21-.33-1.21-1V211.11h-5.13a2,2,0,0,1-.17-.36,1.69,1.69,0,0,1-.08-.53,1,1,0,0,1,.22-.71.8.8,0,0,1,.63-.26h11.88a2,2,0,0,1,.17.36,1.64,1.64,0,0,1,.08.5,1.1,1.1,0,0,1-.22.73.77.77,0,0,1-.63.27Z"/><path class="cls-46" d="M249,225.34a1.14,1.14,0,0,1-.33-.86v-14a1.18,1.18,0,0,1,.33-.87,1.21,1.21,0,0,1,.87-.32H259a2,2,0,0,1,.17.36,1.64,1.64,0,0,1,.08.5,1.1,1.1,0,0,1-.22.73.77.77,0,0,1-.63.27h-7.49v5.21h7.24a2.19,2.19,0,0,1,.17.37,1.59,1.59,0,0,1,.08.5,1,1,0,0,1-.22.71.77.77,0,0,1-.63.26h-6.64v5.67h8.23a2.3,2.3,0,0,1,.17.35,1.6,1.6,0,0,1,.08.51,1.1,1.1,0,0,1-.22.72.8.8,0,0,1-.63.26h-8.65A1.18,1.18,0,0,1,249,225.34Z"/></g></g></g></svg>