<?xml version="1.0" encoding="utf-8"?>
<!-- Generator: Adobe Illustrator 25.0.0, SVG Export Plug-In . SVG Version: 6.00 Build 0)  -->
<svg version="1.1" id="Capa_1" xmlns="http://www.w3.org/2000/svg" xmlns:xlink="http://www.w3.org/1999/xlink" x="0px" y="0px"
	 viewBox="0 0 33.9 33.8" style="enable-background:new 0 0 33.9 33.8;" xml:space="preserve">
<style type="text/css">
	.st0{fill:#FF5000;}
</style>
<g id="Capa_2_1_">
	<g id="Header">
		<path class="st0" d="M17,3.3c3.6,0,6.9,2,8.6,5.2c1.4,2.4,1.9,5.1,1.5,7.9c-0.1,0.8-0.5,1.5-1,2.1c-1.6,1.5-3.6,2.5-5.8,2.8h-0.1
			c-0.2,0-0.4-0.1-0.6-0.2c-0.5-0.2-1.1-0.4-1.6-0.6c-0.3,0-0.6-0.1-0.8,0c-0.4,0-0.8,0-1.1,0c-1.3-0.1-2.4,0.9-2.4,2.2
			c0,0,0,0.1,0,0.1c0,1.2,1,2.2,2.2,2.3c0,0,0.1,0,0.1,0H16c2.1-0.1,4.2-0.3,6.2-0.5c-1.5,1-3.3,1.6-5.1,1.6c-0.3,0-0.6,0-0.9,0
			c-3.7-0.3-7-2.7-8.4-6.2c-1.9-3.9-1.5-8.6,1.1-12.2C10.7,4.9,13.7,3.3,17,3.3 M16.9,2.3c-3.6,0-6.9,1.8-8.8,4.8
			c-2.8,3.8-3.2,8.9-1.2,13.1C8.5,24,12,26.7,16.1,27c0.3,0,0.7,0.1,1,0.1c2,0,4-0.6,5.6-1.8c0.4-0.3,0.5-0.7,0.4-1.2
			c-0.1-0.4-0.5-0.7-1-0.7h-0.1l-1.8,0.1c-1.4,0.1-2.9,0.3-4.3,0.3h-0.1c-0.4,0-0.7-0.1-0.9-0.4c-0.2-0.2-0.4-0.6-0.4-0.9
			c0-0.7,0.6-1.3,1.3-1.3c0,0,0.1,0,0.1,0h0.5h0.6c0.2,0,0.4,0,0.7,0c0.3,0.1,0.6,0.2,0.9,0.3l0.6,0.2h0.1c0.2,0.1,0.5,0.2,0.8,0.2
			h0.2c2.4-0.3,4.6-1.4,6.3-3.1c0.7-0.7,1.1-1.6,1.3-2.6c0.5-2.9-0.1-5.9-1.6-8.5C24.5,4.5,20.9,2.3,16.9,2.3L16.9,2.3z"/>
		<path class="st0" d="M16.9,1h0.4c2.9,0.1,5.6,1.1,7.8,3c2.2,1.9,3.7,4.4,4.2,7.3h1.5c1.2,0.1,2.1,1,2.1,2.2c0,0.8,0,1.6,0,2.3
			c0,1.2-0.9,2.2-2.1,2.2h-0.4c-0.9,0-1.8,0.5-2.3,1.3c-1.8,2.4-4.5,3.5-7.3,4.1c-1.6,0.2-3.2,0.4-4.8,0.4H16
			c-0.6,0.1-1.2-0.4-1.2-1c0-0.1,0-0.1,0-0.2c0-0.7,0.5-1.1,1.4-1.1h1.8c0.5,0,1,0.2,1.3,0.7c0.1,0.1,0.3,0.2,0.4,0.3l0,0
			c3-0.5,5.9-1.4,7.8-4c0.4-0.5,0.7-1.1,0.8-1.8c0.4-2.5,0.1-5-0.7-7.4c-2.4-5.8-9-8.6-14.8-6.3c-4.2,1.7-7,5.8-7.1,10.4
			c0,1,0,2,0,3c0,1.4-0.3,1.7-1.7,1.7H3.3c-1.2,0-2.3-0.9-2.3-2.2c0,0,0,0,0,0c0-0.8,0-1.6,0-2.4c0-1.2,1-2.2,2.2-2.2c0,0,0,0,0,0
			h1.4C5.3,7.9,7.2,5,10,3.1C12,1.7,14.5,1,16.9,1 M16.9,0L16.9,0c-2.7,0-5.3,0.8-7.5,2.3c-2.8,1.9-4.8,4.7-5.6,8H3.2
			c-1.8,0-3.2,1.4-3.2,3.2c0,0.9,0,1.7,0,2.5c0.1,1.8,1.5,3.1,3.3,3.1h0.6c2,0,2.7-0.7,2.7-2.7v-0.9c0-0.7,0-1.4,0-2.1
			c0.1-4.9,3.6-9.1,8.4-10c0.6-0.1,1.3-0.2,1.9-0.2c4.2,0,8.1,2.5,9.7,6.5c0.8,2.2,1,4.6,0.7,6.9c-0.1,0.5-0.3,0.9-0.6,1.3
			c-1.4,1.9-3.5,3-6.8,3.6c-0.5-0.6-1.2-0.9-1.9-0.9h-1.8c-1.2-0.1-2.2,0.7-2.4,1.9c0,0.1,0,0.2,0,0.2c0,0.6,0.2,1.1,0.6,1.5
			c0.4,0.4,1,0.7,1.6,0.6h0.2h0.8c1.4-0.1,2.7-0.2,4.1-0.4c3.6-0.7,6.2-2.1,7.9-4.4c0.6-0.8,0.9-0.9,1.5-0.9h0.4
			c1.7,0,3.1-1.4,3.1-3.2c0,0,0,0,0,0c0-0.8,0-1.6,0-2.4c0-1.7-1.3-3.1-3-3.2c-0.2,0-0.4,0-0.6,0h-0.2c-0.7-2.7-2.2-5.2-4.4-7
			c-2.3-2-5.3-3.2-8.4-3.3H16.9z"/>
		<path class="st0" d="M20.6,26.6c0.1,0,0.3,0,0.4,0c3.2,1,6,3.1,8,5.9c0,0.1,0.1,0.2,0.1,0.3H4.8c0.2-0.3,0.4-0.5,0.5-0.7
			c1.9-2.5,4.4-4.4,7.4-5.4c0.2-0.1,0.4-0.1,0.6-0.1c0.2,0,0.4,0,0.5,0.1c1,0.3,2.1,0.4,3.1,0.5c1,0,2-0.2,3-0.4
			C20.2,26.7,20.4,26.6,20.6,26.6 M20.6,25.6L20.6,25.6c-0.3,0-0.6,0-0.9,0.1c-0.9,0.3-1.8,0.4-2.8,0.4c-1,0-1.9-0.1-2.8-0.4
			c-0.3-0.1-0.5-0.1-0.8-0.1c-0.3,0-0.6,0-0.9,0.1c-3.1,1.1-5.9,3.1-7.9,5.7c-0.1,0.1-0.2,0.3-0.4,0.5L4,32.3
			c-0.3,0.4-0.2,1.1,0.2,1.4c0.2,0.1,0.4,0.2,0.6,0.2H29c0.3,0,0.6-0.2,0.8-0.4c0.2-0.3,0.2-0.6,0.1-0.9v-0.1c0-0.2-0.1-0.3-0.2-0.5
			c-2.1-2.9-5-5.1-8.4-6.3C21.2,25.7,20.9,25.6,20.6,25.6L20.6,25.6z"/>
	</g>
</g>
</svg>
