<svg xmlns="http://www.w3.org/2000/svg" viewBox="0 0 33.92 33.84"><defs><style>.cls-1{fill:#fff;}</style></defs><g id="Capa_2" data-name="Capa 2"><g id="Header"><path class="cls-1" d="M17,3.27a9.92,9.92,0,0,1,8.6,5.17,11.86,11.86,0,0,1,1.51,7.85,4.31,4.31,0,0,1-1,2.07,10,10,0,0,1-5.78,2.8H20.2a2.1,2.1,0,0,1-.56-.2A10.48,10.48,0,0,0,18,20.38a5.69,5.69,0,0,0-.83-.05c-.38,0-.76,0-1.13,0a2.31,2.31,0,0,0-2.44,2.28,2.23,2.23,0,0,0,2.3,2.27H16c2.1-.09,4.18-.31,6.21-.47a8.89,8.89,0,0,1-5.07,1.62c-.3,0-.6,0-.91,0a9.89,9.89,0,0,1-8.37-6.23A11.8,11.8,0,0,1,8.93,7.63a9.71,9.71,0,0,1,8-4.36m0-1A10.71,10.71,0,0,0,8.1,7.06,12.86,12.86,0,0,0,6.93,20.19,10.87,10.87,0,0,0,16.11,27a8.68,8.68,0,0,0,1,.06,9.82,9.82,0,0,0,5.63-1.79,1,1,0,0,0,.39-1.16,1,1,0,0,0-.95-.67h-.07l-1.84.15c-1.42.12-2.89.25-4.34.31h-.08a1.31,1.31,0,0,1-.95-.37,1.25,1.25,0,0,1-.35-.89A1.31,1.31,0,0,1,16,21.36l.51,0h.61a4.3,4.3,0,0,1,.67,0,5,5,0,0,1,.94.32l.56.22.1,0a1.78,1.78,0,0,0,.8.22l.24,0A11.08,11.08,0,0,0,26.76,19a5.16,5.16,0,0,0,1.31-2.6,12.82,12.82,0,0,0-1.64-8.5A10.91,10.91,0,0,0,17,2.27Z"/><path class="cls-1" d="M16.94,1h.38a12.14,12.14,0,0,1,7.77,3,12.58,12.58,0,0,1,4.21,7.26h1.5a2.21,2.21,0,0,1,2.11,2.22c0,.77,0,1.55,0,2.32A2.16,2.16,0,0,1,30.82,18h-.38a2.58,2.58,0,0,0-2.28,1.28c-1.79,2.43-4.46,3.52-7.33,4.06a35.67,35.67,0,0,1-4.75.41H16a1.11,1.11,0,0,1-1.25-1.16c0-.71.5-1.13,1.39-1.14h1.79a1.29,1.29,0,0,1,1.26.68.63.63,0,0,0,.44.26h0c3.05-.47,5.89-1.41,7.84-4a3.78,3.78,0,0,0,.77-1.78,14.92,14.92,0,0,0-.73-7.4A11.37,11.37,0,0,0,5.6,13.3c0,1,0,2,0,3,0,1.44-.3,1.74-1.71,1.74H3.32A2.24,2.24,0,0,1,1,15.87a23.82,23.82,0,0,1,0-2.39,2.23,2.23,0,0,1,2.24-2.23H4.63A12.65,12.65,0,0,1,10,3.11,12.09,12.09,0,0,1,16.94,1m0-1h0A13.17,13.17,0,0,0,9.45,2.28a13.54,13.54,0,0,0-5.6,8H3.22A3.23,3.23,0,0,0,0,13.44c0,.87,0,1.71,0,2.49a3.25,3.25,0,0,0,3.26,3.14h.57c2,0,2.73-.74,2.73-2.74v-.91c0-.7,0-1.4,0-2.1A10.32,10.32,0,0,1,15,3.31a10.19,10.19,0,0,1,1.9-.18,10.38,10.38,0,0,1,9.66,6.46,14.29,14.29,0,0,1,.66,6.92,2.86,2.86,0,0,1-.58,1.29c-1.44,1.93-3.49,3-6.84,3.58a2.3,2.3,0,0,0-1.94-.89H16.08a2.14,2.14,0,0,0-2.37,2.14,2.07,2.07,0,0,0,.6,1.53,2.21,2.21,0,0,0,1.65.63h.18l.81,0A30,30,0,0,0,21,24.35c3.64-.68,6.24-2.14,7.94-4.44.56-.75.9-.88,1.48-.88h.38a3.13,3.13,0,0,0,3.09-3.21q0-1.22,0-2.37a3.22,3.22,0,0,0-3-3.19c-.21,0-.42,0-.62,0h-.17a13.55,13.55,0,0,0-4.35-7A13.23,13.23,0,0,0,17.34,0Z"/><path class="cls-1" d="M20.65,26.64a1.23,1.23,0,0,1,.39.05A15.55,15.55,0,0,1,29,32.58a1.44,1.44,0,0,1,.09.26H4.81c.21-.29.36-.51.53-.72a15.34,15.34,0,0,1,7.38-5.38,1.93,1.93,0,0,1,.6-.09,1.91,1.91,0,0,1,.54.08,11.21,11.21,0,0,0,3.12.45A10.78,10.78,0,0,0,20,26.73a2.51,2.51,0,0,1,.62-.09m0-1h0a3.38,3.38,0,0,0-.9.13,9.83,9.83,0,0,1-2.77.41,10.43,10.43,0,0,1-2.84-.41,2.81,2.81,0,0,0-.82-.12,2.94,2.94,0,0,0-.91.14,16.36,16.36,0,0,0-7.86,5.72c-.12.15-.23.3-.36.48L4,32.26a1,1,0,0,0,.81,1.58H29.05a1,1,0,0,0,.81-.41,1,1,0,0,0,.14-.9l0-.08a1.16,1.16,0,0,0-.2-.45,16.55,16.55,0,0,0-8.42-6.26,2.28,2.28,0,0,0-.7-.1Z"/></g></g></svg>