<?xml version="1.0" encoding="utf-8"?>
<!-- Generator: Adobe Illustrator 24.3.0, SVG Export Plug-In . SVG Version: 6.00 Build 0)  -->
<svg version="1.1" id="Capa_1" xmlns="http://www.w3.org/2000/svg" xmlns:xlink="http://www.w3.org/1999/xlink" x="0px" y="0px"
	 viewBox="0 0 460 360" style="enable-background:new 0 0 460 360;" xml:space="preserve">
<style type="text/css">
	.st0{fill:none;}
	.st1{fill:none;stroke:#97694D;stroke-width:2;stroke-miterlimit:10;}
	.st2{fill:none;stroke:#782B78;stroke-width:2;stroke-miterlimit:10;}
	.st3{fill:#97694D;}
</style>
<g>
	<path class="st0" d="M148.7,183.1c0-39-31.6-70.7-70.7-70.7c-0.9,0-1.9,0-2.8,0.1v141.2c0.9,0,1.8,0.1,2.8,0.1
		C117.1,253.8,148.7,222.2,148.7,183.1z"/>
	<path class="st1" d="M178.3,5.5c-56.9,0-103,46.1-103,103v4c0.9,0,1.8-0.1,2.8-0.1c39,0,70.7,31.6,70.7,70.7
		c0,39-31.6,70.7-70.7,70.7c-0.9,0-1.9,0-2.8-0.1v102.1h273.2c56.9,0,103-46.1,103-103V5.5H178.3z"/>
	<path class="st2" d="M75.3,112.6"/>
	<path class="st2" d="M75.3,253.7"/>
	<path class="st1" d="M75.3,112.6C37.5,114,7.4,145,7.4,183.1s30.1,69.1,67.9,70.6"/>
</g>
<path class="st3" d="M281.2,162.8c-28.3,0-51.4-23.1-51.4-51.4c0-28.3,23.1-51.4,51.4-51.4c28.3,0,51.4,23.1,51.4,51.4
	C332.6,139.8,309.5,162.8,281.2,162.8 M281.2,69.1c-23.4,0-42.4,19-42.4,42.4c0,23.4,19,42.4,42.4,42.4c23.4,0,42.4-19,42.4-42.4
	C323.5,88.1,304.5,69.1,281.2,69.1"/>
<path class="st3" d="M381.6,301.1c-2.5,0-4.5-2-4.5-4.5c0-68.7-25.6-93.1-48-106.7c-32.2-19.6-63.5-19.6-95.6,0
	c-22.3,13.6-48,38-48,106.7c0,2.5-2,4.5-4.5,4.5c-2.5,0-4.5-2-4.5-4.5c0-73.2,28-99.6,52.3-114.4c35.3-21.5,69.7-21.5,105,0
	c24.4,14.8,52.3,41.2,52.3,114.4C386.2,299.1,384.1,301.1,381.6,301.1"/>
<path class="st3" d="M281.3,281.6c-1.7,0-3.2-0.9-4-2.4L266.6,259c-0.4-0.8-0.6-1.8-0.5-2.7l7.9-56.7c0.3-2.5,2.6-4.2,5.1-3.9
	c0.8,0.1,1.5,0.4,2,0.8c0.6-0.4,1.3-0.7,2-0.8c2.5-0.4,4.8,1.4,5.1,3.8l8.1,56.1c0.1,0.9,0,1.9-0.4,2.7l-10.7,20.8
	C284.5,280.7,283,281.6,281.3,281.6L281.3,281.6z M275.3,256l5.9,11.3l6-11.8l-6.1-41.9L275.3,256z"/>
<path class="st3" d="M283.8,204.7c-0.7,0-1.5-0.2-2.1-0.5c-2.2-1.2-3-3.9-1.8-6.1l11.3-21.1l-10.7-1.7c-2.5-0.4-4.1-2.7-3.7-5.2
	c0.4-2.5,2.7-4.1,5.2-3.7l17,2.7c1.4,0.2,2.7,1.2,3.3,2.5c0.6,1.3,0.6,2.9-0.1,4.1l-14.3,26.7C287,203.8,285.4,204.7,283.8,204.7"/>
<path class="st3" d="M278.5,204.7c-1.6,0-3.2-0.9-4-2.4l-14.3-26.7c-0.7-1.3-0.7-2.8-0.1-4.1c0.6-1.3,1.9-2.2,3.3-2.5l17-2.7
	c2.5-0.4,4.8,1.3,5.2,3.7c0.4,2.5-1.3,4.8-3.7,5.2l-10.7,1.7l11.3,21.1c1.2,2.2,0.4,4.9-1.8,6.1C280,204.5,279.2,204.7,278.5,204.7"
	/>
<path class="st3" d="M296.4,293.9c-0.3,0-0.7,0-1-0.1c-2.4-0.5-4-3-3.4-5.4l14.8-65.5l-6.3-4.4c-2-1.4-2.5-4.1-1.2-6.1l21.1-32.7
	c1.4-2.1,4.1-2.7,6.2-1.3c2.1,1.4,2.7,4.2,1.3,6.2l-18.8,29.1l5.2,3.7c1.5,1.1,2.2,2.9,1.8,4.7l-15.5,68.4
	C300.3,292.4,298.5,293.9,296.4,293.9"/>
<path class="st3" d="M266,293.9c-2.1,0-3.9-1.4-4.4-3.5l-15.5-68.4c-0.4-1.8,0.3-3.6,1.8-4.7l5.2-3.7l-18.8-29.1
	c-1.4-2.1-0.8-4.9,1.3-6.2c2.1-1.4,4.9-0.7,6.2,1.3l21.1,32.7c1.3,2,0.8,4.7-1.2,6.1l-6.3,4.4l14.8,65.5c0.5,2.4-1,4.9-3.4,5.4
	C266.6,293.8,266.3,293.9,266,293.9"/>
<path class="st3" d="M350.2,256h-29c-2.5,0-4.5-2-4.5-4.5c0-2.5,2-4.5,4.5-4.5h29c2.5,0,4.5,2,4.5,4.5
	C354.7,254,352.7,256,350.2,256"/>
<g>
	<path class="st3" d="M75.2,223.9c-15.9,0-22.3-5.6-22.3-13.8v-5.5h0.5c5,4.3,10.3,6.4,20.2,6.4c10.9,0,15-4.1,15-11.3
		c0-7.5-5.7-10.5-17.6-10.5c-6,0-12.2,1.2-17.4,2.4v-29.2c0-8.5,3-13.1,11.9-13.1h35.9v3.9c0,5.4-3.5,8.9-10.1,8.9H68.2v16.4
		c2.5-0.3,6.6-0.6,9.8-0.6c14.3,0,25.9,7.8,25.9,21.1C103.9,214.6,92.6,223.9,75.2,223.9z"/>
</g>
</svg>
