<?xml version="1.0" encoding="utf-8"?>
<!-- Generator: Adobe Illustrator 25.0.0, SVG Export Plug-In . SVG Version: 6.00 Build 0)  -->
<svg version="1.1" id="Capa_1" xmlns="http://www.w3.org/2000/svg" xmlns:xlink="http://www.w3.org/1999/xlink" x="0px" y="0px"
	 viewBox="0 0 31.1 31.1" style="enable-background:new 0 0 31.1 31.1;" xml:space="preserve">
<style type="text/css">
	.st0{fill:#FF5000;}
</style>
<g id="Capa_2_1_">
	<g id="Header">
		<g id="_2gq6EC.tif">
			<path class="st0" d="M31.1,15.6c-0.1,8.6-7.1,15.6-15.7,15.5c-2.3,0-4.5-0.5-6.6-1.5c-0.4-0.2-0.9-0.2-1.3-0.1
				c-2.1,0.5-4.3,1-6.4,1.5c-0.9,0.2-1.3-0.1-1-1c0.6-2.1,1.2-4.1,1.7-6.2c0.1-0.4,0.1-0.8-0.1-1.2C-2.2,15,0.9,5.6,8.5,1.8
				s17-0.8,20.8,6.8c0.7,1.3,1.2,2.8,1.4,4.2C30.9,13.7,31,14.6,31.1,15.6z M1.6,29.4c0.2,0,0.3,0,0.5-0.1C4,28.9,5.8,28.4,7.6,28
				c0.5-0.1,1,0,1.4,0.2c2.8,1.5,6.1,1.9,9.2,1.3c7.7-1.6,12.6-9.2,10.9-16.8c-1.6-7.4-8.6-12.2-16-11.1C5.4,2.9,0.2,10.3,1.6,18.1
				c0.3,1.5,0.8,3,1.5,4.3c0.2,0.4,0.3,0.9,0.1,1.4C2.7,25.6,2.2,27.5,1.6,29.4z"/>
			<path class="st0" d="M12.3,14.3c1.2,2,3,3.6,5.2,4.4l1.2-1.5c0.3-0.5,1-0.7,1.6-0.4c1.1,0.5,2.3,1,3.4,1.6
				c0.3,0.2,0.6,0.5,0.6,0.9c0.2,1.2-0.3,2.4-1.3,3.2c-1.4,1.1-3.3,1.4-5,0.9c-4.8-1.3-8-4.4-10.4-8.5c-1.3-2.1-1.1-4.8,0.6-6.6
				c0.8-0.8,2-1.1,3-0.7c0.4,0.1,0.7,0.5,0.9,0.9c0.5,1,0.8,2,1.3,3c0.2,0.6,0.2,1.2-0.2,1.7C12.9,13.6,12.6,13.9,12.3,14.3z
				 M19.8,18c-0.4,0.5-0.8,1-1.2,1.4c-0.4,0.6-1.2,0.8-1.9,0.5c-2.1-0.9-3.9-2.3-5.2-4.2c-0.7-1-1-1.6,0.1-2.7
				c0.5-0.4,0.6-1.1,0.3-1.6c-0.3-0.6-0.5-1.2-0.8-1.8c-0.4-1-1.2-1.1-2-0.3c-1.2,1.3-1.4,3.2-0.5,4.7c1.6,3.1,4.1,5.7,7.3,7.2
				c1.3,0.8,2.9,1.1,4.5,1c1.2-0.1,2.2-1,2.5-2.2c0-0.3-0.1-0.5-0.3-0.7C21.7,18.9,20.7,18.5,19.8,18z"/>
		</g>
	</g>
</g>
</svg>
