<svg xmlns="http://www.w3.org/2000/svg" viewBox="0 0 31.14 31.08"><defs><style>.cls-1{fill:#fff;}</style></defs><g id="Capa_2" data-name="Capa 2"><g id="Header"><g id="_2gq6EC.tif" data-name="2gq6EC.tif"><path class="cls-1" d="M31.14,15.58a15.6,15.6,0,0,1-22.27,14,2.25,2.25,0,0,0-1.33-.14c-2.14.48-4.27,1-6.4,1.55-.93.22-1.28-.12-1-1,.57-2.07,1.17-4.13,1.7-6.2a1.81,1.81,0,0,0-.12-1.19,15.51,15.51,0,1,1,29.09-9.8C30.94,13.69,31,14.64,31.14,15.58ZM1.63,29.44a3.86,3.86,0,0,0,.52-.08C4,28.91,5.77,28.43,7.6,28A2.27,2.27,0,0,1,9,28.19a14.05,14.05,0,0,0,9.18,1.29A14.2,14.2,0,0,0,13.1,1.55a14.24,14.24,0,0,0-10,20.82,2.13,2.13,0,0,1,.14,1.39C2.73,25.64,2.18,27.5,1.63,29.44Z"/><path class="cls-1" d="M12.27,14.32a9.91,9.91,0,0,0,5.19,4.36l1.19-1.46a1.24,1.24,0,0,1,1.59-.44c1.14.51,2.29,1,3.39,1.59a1.33,1.33,0,0,1,.63.93A3.54,3.54,0,0,1,23,22.5a5.41,5.41,0,0,1-5,.9C13.25,22.09,10,19,7.58,14.88a5.36,5.36,0,0,1,.62-6.6,2.91,2.91,0,0,1,3-.69c.35.07.7.55.88.93.47,1,.83,2,1.26,3a1.64,1.64,0,0,1-.23,1.69C12.89,13.56,12.58,13.92,12.27,14.32ZM19.77,18c-.44.53-.82,1-1.18,1.41a1.42,1.42,0,0,1-1.86.45,11.51,11.51,0,0,1-5.22-4.23c-.7-1-1-1.63.12-2.67a1.14,1.14,0,0,0,.27-1.58,15.76,15.76,0,0,1-.76-1.79c-.42-1-1.23-1.14-2-.33A3.81,3.81,0,0,0,8.68,14,15.94,15.94,0,0,0,16,21.22a7.48,7.48,0,0,0,4.46,1,2.81,2.81,0,0,0,2.47-2.17.86.86,0,0,0-.29-.71C21.69,18.88,20.73,18.46,19.77,18Z"/></g></g></g></svg>