<svg xmlns="http://www.w3.org/2000/svg" xmlns:xlink="http://www.w3.org/1999/xlink" viewBox="0 0 129.66 226.68"><defs><style>.cls-1{isolation:isolate;}.cls-2{fill:#575756;}.cls-3{fill:#4fd7e8;}.cls-4{fill:#878787;}.cls-5{fill:#9d9d9c;}.cls-6{fill:url(#linear-gradient);}.cls-7{fill:url(#linear-gradient-2);}.cls-8{fill:url(#linear-gradient-3);}.cls-9{fill:url(#linear-gradient-4);}.cls-10{fill:url(#linear-gradient-5);}.cls-11{fill:#818386;}.cls-12{fill:url(#linear-gradient-6);}.cls-13{fill:url(#linear-gradient-7);}.cls-14{fill:#2b424c;}.cls-15{fill:#1d323b;}.cls-16{fill:url(#linear-gradient-8);}.cls-17{fill:url(#linear-gradient-9);}.cls-18{fill:url(#linear-gradient-10);}.cls-19{fill:url(#linear-gradient-11);}.cls-20{fill:url(#linear-gradient-12);}.cls-21{fill:url(#linear-gradient-13);}.cls-22{fill:url(#linear-gradient-14);}.cls-23{fill:url(#linear-gradient-15);}.cls-24{fill:url(#linear-gradient-16);}.cls-25{fill:#231f20;opacity:0.3;mix-blend-mode:overlay;}.cls-26{fill:url(#linear-gradient-17);}.cls-27{fill:url(#linear-gradient-18);}.cls-28{fill:url(#linear-gradient-19);}.cls-29{fill:url(#linear-gradient-20);}.cls-30{fill:url(#linear-gradient-21);}.cls-31{fill:url(#linear-gradient-22);}.cls-32{fill:url(#linear-gradient-23);}.cls-33{fill:url(#linear-gradient-24);}.cls-34{fill:url(#linear-gradient-25);}.cls-35{fill:url(#linear-gradient-26);}.cls-36{fill:url(#linear-gradient-27);}.cls-37{fill:url(#linear-gradient-28);}.cls-38{fill:url(#linear-gradient-29);}.cls-39{fill:url(#linear-gradient-30);}.cls-40{fill:url(#linear-gradient-31);}.cls-41{fill:url(#linear-gradient-32);}.cls-42{fill:url(#linear-gradient-33);}.cls-43{fill:url(#linear-gradient-34);}.cls-44{fill:url(#linear-gradient-35);}.cls-45{fill:url(#linear-gradient-36);}.cls-46{fill:url(#linear-gradient-37);}.cls-47{fill:url(#linear-gradient-38);}.cls-48{fill:url(#linear-gradient-39);}.cls-49{fill:url(#linear-gradient-40);}.cls-50{fill:url(#linear-gradient-41);}.cls-51{fill:url(#linear-gradient-42);}.cls-52{fill:url(#linear-gradient-43);}.cls-53{fill:url(#linear-gradient-44);}.cls-54{fill:#1d1d1b;opacity:0.15;}</style><linearGradient id="linear-gradient" x1="65.13" y1="141.83" x2="65.13" y2="147.95" gradientUnits="userSpaceOnUse"><stop offset="0" stop-color="#3a5560"/><stop offset="0.29" stop-color="#344e59"/><stop offset="0.73" stop-color="#243c45"/><stop offset="1" stop-color="#172d35"/></linearGradient><linearGradient id="linear-gradient-2" x1="65.13" y1="146.6" x2="65.13" y2="153.81" gradientUnits="userSpaceOnUse"><stop offset="0" stop-color="#fff"/><stop offset="0.4" stop-color="#e2e3e4"/><stop offset="1" stop-color="#afb1b4"/></linearGradient><linearGradient id="linear-gradient-3" x1="65.04" y1="103.4" x2="65.04" y2="69.57" xlink:href="#linear-gradient-2"/><linearGradient id="linear-gradient-4" x1="65.04" y1="64.31" x2="65.04" y2="92.77" xlink:href="#linear-gradient"/><linearGradient id="linear-gradient-5" x1="65.04" y1="64.96" x2="65.04" y2="85.16" xlink:href="#linear-gradient-2"/><linearGradient id="linear-gradient-6" x1="65.04" y1="64.96" x2="65.04" y2="85.16" xlink:href="#linear-gradient-2"/><linearGradient id="linear-gradient-7" x1="65.12" y1="109.84" x2="65.12" y2="142.51" xlink:href="#linear-gradient"/><linearGradient id="linear-gradient-8" x1="65.13" y1="137.32" x2="65.13" y2="143.01" xlink:href="#linear-gradient"/><linearGradient id="linear-gradient-9" x1="31.37" y1="123.21" x2="37.12" y2="123.21" xlink:href="#linear-gradient-2"/><linearGradient id="linear-gradient-10" x1="35.96" y1="123.21" x2="36.68" y2="123.21" xlink:href="#linear-gradient-2"/><linearGradient id="linear-gradient-11" x1="34.94" y1="123.21" x2="35.58" y2="123.21" xlink:href="#linear-gradient-2"/><linearGradient id="linear-gradient-12" x1="33.91" y1="123.21" x2="34.63" y2="123.21" xlink:href="#linear-gradient-2"/><linearGradient id="linear-gradient-13" x1="32.89" y1="123.21" x2="33.67" y2="123.21" xlink:href="#linear-gradient-2"/><linearGradient id="linear-gradient-14" x1="31.89" y1="123.21" x2="32.76" y2="123.21" xlink:href="#linear-gradient-2"/><linearGradient id="linear-gradient-15" x1="29.88" y1="106.08" x2="38.61" y2="106.08" gradientUnits="userSpaceOnUse"><stop offset="0" stop-color="#eceded"/><stop offset="0.36" stop-color="#c3c5c7"/><stop offset="0.52" stop-color="#afb1b4"/><stop offset="0.65" stop-color="#a8aaad"/><stop offset="0.84" stop-color="#94979a"/><stop offset="1" stop-color="#7f8285"/></linearGradient><linearGradient id="linear-gradient-16" x1="29.88" y1="140.17" x2="38.61" y2="140.17" xlink:href="#linear-gradient-15"/><linearGradient id="linear-gradient-17" x1="41.03" y1="123.21" x2="46.78" y2="123.21" xlink:href="#linear-gradient-2"/><linearGradient id="linear-gradient-18" x1="45.62" y1="123.21" x2="46.34" y2="123.21" xlink:href="#linear-gradient-2"/><linearGradient id="linear-gradient-19" x1="44.6" y1="123.21" x2="45.24" y2="123.21" xlink:href="#linear-gradient-2"/><linearGradient id="linear-gradient-20" x1="43.57" y1="123.21" x2="44.29" y2="123.21" xlink:href="#linear-gradient-2"/><linearGradient id="linear-gradient-21" x1="42.56" y1="123.21" x2="43.34" y2="123.21" xlink:href="#linear-gradient-2"/><linearGradient id="linear-gradient-22" x1="41.55" y1="123.21" x2="42.42" y2="123.21" xlink:href="#linear-gradient-2"/><linearGradient id="linear-gradient-23" x1="39.54" y1="106.08" x2="48.27" y2="106.08" xlink:href="#linear-gradient-15"/><linearGradient id="linear-gradient-24" x1="39.54" y1="140.17" x2="48.27" y2="140.17" xlink:href="#linear-gradient-15"/><linearGradient id="linear-gradient-25" x1="82.37" y1="123.21" x2="88.12" y2="123.21" xlink:href="#linear-gradient-2"/><linearGradient id="linear-gradient-26" x1="86.96" y1="123.21" x2="87.68" y2="123.21" xlink:href="#linear-gradient-2"/><linearGradient id="linear-gradient-27" x1="85.94" y1="123.21" x2="86.58" y2="123.21" xlink:href="#linear-gradient-2"/><linearGradient id="linear-gradient-28" x1="84.91" y1="123.21" x2="85.63" y2="123.21" xlink:href="#linear-gradient-2"/><linearGradient id="linear-gradient-29" x1="83.89" y1="123.21" x2="84.68" y2="123.21" xlink:href="#linear-gradient-2"/><linearGradient id="linear-gradient-30" x1="82.89" y1="123.21" x2="83.76" y2="123.21" xlink:href="#linear-gradient-2"/><linearGradient id="linear-gradient-31" x1="80.88" y1="106.08" x2="89.61" y2="106.08" xlink:href="#linear-gradient-15"/><linearGradient id="linear-gradient-32" x1="80.88" y1="140.17" x2="89.61" y2="140.17" xlink:href="#linear-gradient-15"/><linearGradient id="linear-gradient-33" x1="92.03" y1="123.21" x2="97.78" y2="123.21" xlink:href="#linear-gradient-2"/><linearGradient id="linear-gradient-34" x1="96.63" y1="123.21" x2="97.34" y2="123.21" xlink:href="#linear-gradient-2"/><linearGradient id="linear-gradient-35" x1="95.6" y1="123.21" x2="96.24" y2="123.21" xlink:href="#linear-gradient-2"/><linearGradient id="linear-gradient-36" x1="94.57" y1="123.21" x2="95.3" y2="123.21" xlink:href="#linear-gradient-2"/><linearGradient id="linear-gradient-37" x1="93.56" y1="123.21" x2="94.34" y2="123.21" xlink:href="#linear-gradient-2"/><linearGradient id="linear-gradient-38" x1="92.56" y1="123.21" x2="93.42" y2="123.21" xlink:href="#linear-gradient-2"/><linearGradient id="linear-gradient-39" x1="90.54" y1="106.08" x2="99.28" y2="106.08" xlink:href="#linear-gradient-15"/><linearGradient id="linear-gradient-40" x1="90.54" y1="140.17" x2="99.28" y2="140.17" xlink:href="#linear-gradient-15"/><linearGradient id="linear-gradient-41" x1="65.13" y1="96.96" x2="65.13" y2="106.41" xlink:href="#linear-gradient-2"/><linearGradient id="linear-gradient-42" x1="65.13" y1="140.91" x2="65.13" y2="148.33" xlink:href="#linear-gradient-2"/><linearGradient id="linear-gradient-43" x1="65.13" y1="97.52" x2="65.13" y2="105.45" xlink:href="#linear-gradient-15"/><linearGradient id="linear-gradient-44" x1="65.13" y1="97.68" x2="65.13" y2="106.31" xlink:href="#linear-gradient"/></defs><g class="cls-1"><g id="Capa_2" data-name="Capa 2"><g id="Layer_1" data-name="Layer 1"><rect class="cls-2" width="129.66" height="226.68" rx="18.41"/><rect class="cls-3" x="14.71" y="16.25" width="100.23" height="183.66" rx="3.7"/><path class="cls-4" d="M69.58,8.46a4.75,4.75,0,1,1-4.75-4.75A4.76,4.76,0,0,1,69.58,8.46Z"/><path class="cls-5" d="M73,213.53a8.12,8.12,0,1,1-8.12-8.12A8.11,8.11,0,0,1,73,213.53Z"/><path class="cls-5" d="M45.37,212.46a3.46,3.46,0,0,1-3.46,3.45H26.13a3.46,3.46,0,0,1-3.45-3.45h0A3.45,3.45,0,0,1,26.13,209H41.91a3.45,3.45,0,0,1,3.46,3.45Z"/><path class="cls-5" d="M106.36,212.46a3.45,3.45,0,0,1-3.45,3.45H87.13a3.46,3.46,0,0,1-3.45-3.45h0A3.45,3.45,0,0,1,87.13,209h15.78a3.44,3.44,0,0,1,3.45,3.45Z"/><polygon class="cls-6" points="110.91 147.32 19.35 147.32 24.58 144.65 105.65 144.67 110.91 147.32"/><rect class="cls-7" x="19.35" y="147.32" width="91.56" height="3.56"/><polygon class="cls-8" points="98.14 101.02 98.14 84.37 64.85 70.25 31.95 84.37 31.95 101.02 98.14 101.02"/><polygon class="cls-9" points="64.84 67.78 30.26 85.03 30.26 87.5 64.85 70.25 99.83 87.37 99.83 84.9 64.84 67.78"/><polygon class="cls-10" points="64.83 66.7 29.63 84.26 29.63 85.43 64.84 67.87 100.46 85.29 100.46 84.13 64.83 66.7"/><polygon class="cls-11" points="31.95 87.31 31.95 88.48 64.84 72.07 98.14 88.36 98.14 87.2 64.83 70.91 31.95 87.31"/><polygon class="cls-12" points="64.83 70.12 29.63 87.68 29.63 88.84 64.84 71.28 100.46 88.7 100.46 87.55 64.83 70.12"/><rect class="cls-13" x="28.71" y="103.27" width="72.83" height="39.82"/><polygon class="cls-14" points="106.26 104.02 101.54 103.67 101.54 103.28 28.72 103.26 28.72 103.67 24 104.02 28.71 106.51 28.71 108.84 101.54 108.86 101.54 106.51 106.26 104.02"/><polygon class="cls-15" points="101.89 106.33 106.26 104.02 101.54 103.67 101.54 103.28 28.72 103.26 28.72 103.67 24 104.02 28.37 106.33 101.89 106.33"/><polygon class="cls-16" points="106.26 142.29 24 142.29 28.7 139.9 101.53 139.92 106.26 142.29"/><rect class="cls-17" x="31.37" y="106.23" width="5.75" height="33.97"/><rect class="cls-18" x="36.06" y="106.23" width="0.51" height="33.97"/><rect class="cls-19" x="35.02" y="106.23" width="0.51" height="33.97"/><rect class="cls-20" x="33.98" y="106.23" width="0.51" height="33.97"/><rect class="cls-21" x="32.93" y="106.23" width="0.51" height="33.97"/><rect class="cls-22" x="31.89" y="106.23" width="0.51" height="33.97"/><rect class="cls-23" x="29.88" y="105.02" width="8.73" height="2.11"/><rect class="cls-24" x="29.88" y="139.11" width="8.73" height="2.11"/><polygon class="cls-25" points="49.72 107.13 49.72 105.02 40.99 105.02 40.99 107.13 42.48 107.13 42.48 139.11 40.99 139.11 40.99 141.22 49.72 141.22 49.72 139.11 48.23 139.11 48.23 107.13 49.72 107.13"/><polygon class="cls-25" points="88.06 107.13 88.06 105.02 79.32 105.02 79.32 107.13 80.81 107.13 80.81 139.11 79.32 139.11 79.32 141.22 88.06 141.22 88.06 139.11 86.56 139.11 86.56 107.13 88.06 107.13"/><polygon class="cls-25" points="96.83 107.13 96.83 105.02 88.1 105.02 88.1 107.13 89.59 107.13 89.59 139.11 88.1 139.11 88.1 141.22 96.83 141.22 96.83 139.11 95.34 139.11 95.34 107.13 96.83 107.13"/><polygon class="cls-25" points="41.51 107.13 41.51 105.02 32.78 105.02 32.78 107.13 34.27 107.13 34.27 139.11 32.78 139.11 32.78 141.22 41.51 141.22 41.51 139.11 40.02 139.11 40.02 107.13 41.51 107.13"/><rect class="cls-26" x="41.03" y="106.23" width="5.75" height="33.97"/><rect class="cls-27" x="45.72" y="106.23" width="0.51" height="33.97"/><rect class="cls-28" x="44.68" y="106.23" width="0.51" height="33.97"/><rect class="cls-29" x="43.64" y="106.23" width="0.51" height="33.97"/><rect class="cls-30" x="42.6" y="106.23" width="0.51" height="33.97"/><rect class="cls-31" x="41.55" y="106.23" width="0.51" height="33.97"/><rect class="cls-32" x="39.54" y="105.02" width="8.73" height="2.11"/><rect class="cls-33" x="39.54" y="139.11" width="8.73" height="2.11"/><rect class="cls-34" x="82.37" y="106.23" width="5.75" height="33.97"/><rect class="cls-35" x="87.06" y="106.23" width="0.51" height="33.97"/><rect class="cls-36" x="86.02" y="106.23" width="0.51" height="33.97"/><rect class="cls-37" x="84.98" y="106.23" width="0.51" height="33.97"/><rect class="cls-38" x="83.94" y="106.23" width="0.51" height="33.97"/><rect class="cls-39" x="82.89" y="106.23" width="0.51" height="33.97"/><rect class="cls-40" x="80.88" y="105.02" width="8.73" height="2.11"/><rect class="cls-41" x="80.88" y="139.11" width="8.73" height="2.11"/><rect class="cls-42" x="92.03" y="106.23" width="5.75" height="33.97"/><rect class="cls-43" x="96.73" y="106.23" width="0.51" height="33.97"/><rect class="cls-44" x="95.68" y="106.23" width="0.51" height="33.97"/><rect class="cls-45" x="94.64" y="106.23" width="0.51" height="33.97"/><rect class="cls-46" x="93.6" y="106.23" width="0.51" height="33.97"/><rect class="cls-47" x="92.56" y="106.23" width="0.51" height="33.97"/><rect class="cls-48" x="90.54" y="105.02" width="8.73" height="2.11"/><rect class="cls-49" x="90.54" y="139.11" width="8.73" height="2.11"/><rect class="cls-50" x="24" y="98.68" width="82.26" height="5.33"/><rect class="cls-51" x="24" y="142.29" width="82.26" height="3.19"/><rect class="cls-52" x="24" y="99.65" width="82.26" height="3.39"/><rect class="cls-53" x="24" y="100.31" width="82.26" height="2.07"/><path class="cls-54" d="M64.83,0H18.41A18.41,18.41,0,0,0,0,18.41V208.27a18.41,18.41,0,0,0,18.41,18.41H64.83Z"/></g></g></g></svg>