<?xml version="1.0" encoding="utf-8"?>
<!-- Generator: Adobe Illustrator 16.0.0, SVG Export Plug-In . SVG Version: 6.00 Build 0)  -->
<!DOCTYPE svg PUBLIC "-//W3C//DTD SVG 1.1//EN" "http://www.w3.org/Graphics/SVG/1.1/DTD/svg11.dtd">
<svg version="1.1" xmlns="http://www.w3.org/2000/svg" xmlns:xlink="http://www.w3.org/1999/xlink" x="0px" y="0px" width="350px"
	 height="304px" viewBox="0 0 350 304" enable-background="new 0 0 350 304" xml:space="preserve">
<g id="Capa_1" display="none">
	<g display="inline" opacity="0.2">
		<g>
			<defs>
				<rect id="SVGID_1_" x="-101.768" y="149.613" width="538.117" height="134.587"/>
			</defs>
			<clipPath id="SVGID_2_">
				<use xlink:href="#SVGID_1_"  overflow="visible"/>
			</clipPath>
			<rect x="-88.732" y="269.541" clip-path="url(#SVGID_2_)" fill="#565656" width="1.878" height="10.836"/>
			<path clip-path="url(#SVGID_2_)" fill="#8C8C8C" d="M-80.411,260.917c0-14.702-7.051-40.717-7.051-40.717
				s-7.052,26.015-7.052,40.717c0,14.701,1.763,16.048,7.052,16.048C-82.173,276.965-80.411,275.618-80.411,260.917"/>
			<polygon clip-path="url(#SVGID_2_)" fill="#C5C5C5" points="30.732,281.268 1.282,281.268 1.282,212.282 30.732,222.949 			"/>
			<rect x="9.857" y="225.721" clip-path="url(#SVGID_2_)" fill="#7F7F7F" width="17.726" height="55.547"/>
			<rect x="8.916" y="229.905" clip-path="url(#SVGID_2_)" fill="#C5C5C5" width="13.979" height="6.953"/>
			<rect x="11.286" y="231.734" clip-path="url(#SVGID_2_)" fill="#525252" width="9.239" height="3.295"/>
			<rect x="8.916" y="240.886" clip-path="url(#SVGID_2_)" fill="#C5C5C5" width="13.979" height="6.953"/>
			<rect x="11.286" y="242.715" clip-path="url(#SVGID_2_)" fill="#525252" width="9.239" height="3.296"/>
			<rect x="8.916" y="251.867" clip-path="url(#SVGID_2_)" fill="#C5C5C5" width="13.979" height="6.953"/>
			<rect x="11.286" y="253.696" clip-path="url(#SVGID_2_)" fill="#525252" width="9.239" height="3.294"/>
			<polygon clip-path="url(#SVGID_2_)" fill="#555555" points="9.766,212.557 36.5,222.583 36.5,226.688 10.484,226.688 			"/>
			<rect x="-71.714" y="163.758" clip-path="url(#SVGID_2_)" fill="#A8A8A8" width="83.833" height="115"/>
			<rect x="-71.714" y="163.758" clip-path="url(#SVGID_2_)" fill="#7F7F7F" width="83.833" height="4.811"/>
			<rect x="-65.532" y="219.344" clip-path="url(#SVGID_2_)" fill="#7F7F7F" width="71.466" height="12.246"/>
			<rect x="-67.596" y="218.714" clip-path="url(#SVGID_2_)" fill="#E9E9E9" width="75.596" height="3.153"/>
			<polygon clip-path="url(#SVGID_2_)" fill="#656565" points="7.975,218.729 -67.57,218.729 -63.596,212.073 4,212.073 			"/>
			<polygon clip-path="url(#SVGID_2_)" fill="#656565" points="16.844,165.326 -76.44,165.326 -69.456,149.613 9.86,149.613 			"/>
			<polygon clip-path="url(#SVGID_2_)" fill="#555555" points="-74.162,160.201 -76.44,165.326 16.844,165.326 14.567,160.201 			
				"/>
			<rect x="-37.952" y="243.466" clip-path="url(#SVGID_2_)" fill="#E9E9E9" width="16.471" height="33.304"/>
			<rect x="-35.408" y="236.292" clip-path="url(#SVGID_2_)" fill="#E9E9E9" width="11.537" height="4.371"/>
			<path clip-path="url(#SVGID_2_)" fill="#E9E9E9" d="M-29.639,234.098L-29.639,234.098c-2.06,0-3.729-1.67-3.729-3.729v-1.173
				c0-2.06,1.669-3.729,3.729-3.729c2.06,0,3.729,1.67,3.729,3.729v1.173C-25.909,232.428-27.579,234.098-29.639,234.098"/>
			<path clip-path="url(#SVGID_2_)" fill="#525252" d="M-29.639,231.829L-29.639,231.829c-0.977,0-1.769-0.792-1.769-1.769v-0.557
				c0-0.977,0.792-1.769,1.769-1.769s1.769,0.792,1.769,1.769v0.557C-27.87,231.037-28.662,231.829-29.639,231.829"/>
			<rect x="-36.521" y="245.089" clip-path="url(#SVGID_2_)" fill="#6D6D6D" width="13.606" height="31.681"/>
			<polygon clip-path="url(#SVGID_2_)" fill="#565656" points="-36.521,261.777 -36.521,276.77 -22.915,276.77 -22.915,248.173 			
				"/>
			<rect x="-64.255" y="237.247" clip-path="url(#SVGID_2_)" fill="#E9E9E9" width="13.909" height="22.216"/>
			<rect x="-62.073" y="239.64" clip-path="url(#SVGID_2_)" fill="#707070" width="9.546" height="17.432"/>
			<path clip-path="url(#SVGID_2_)" fill="#525252" d="M-52.528,242.045v-2.405h-9.545v9.165
				C-58.884,246.557-55.707,244.299-52.528,242.045"/>
			<rect x="-9.873" y="237.247" clip-path="url(#SVGID_2_)" fill="#E9E9E9" width="13.909" height="22.216"/>
			<rect x="-7.691" y="239.64" clip-path="url(#SVGID_2_)" fill="#707070" width="9.545" height="17.432"/>
			<path clip-path="url(#SVGID_2_)" fill="#525252" d="M1.854,242.045v-2.405h-9.545v9.165
				C-4.503,246.557-1.326,244.299,1.854,242.045"/>
			<rect x="-64.255" y="179.653" clip-path="url(#SVGID_2_)" fill="#E9E9E9" width="13.909" height="22.217"/>
			<rect x="-62.073" y="182.046" clip-path="url(#SVGID_2_)" fill="#707070" width="9.546" height="17.432"/>
			<path clip-path="url(#SVGID_2_)" fill="#525252" d="M-52.528,184.451v-2.405h-9.545v9.166
				C-58.884,188.963-55.707,186.706-52.528,184.451"/>
			<rect x="-36.642" y="179.653" clip-path="url(#SVGID_2_)" fill="#E9E9E9" width="13.909" height="22.217"/>
			<rect x="-34.46" y="182.046" clip-path="url(#SVGID_2_)" fill="#707070" width="9.545" height="17.432"/>
			<path clip-path="url(#SVGID_2_)" fill="#525252" d="M-24.915,184.451v-2.405h-9.545v9.166
				C-31.271,188.963-28.094,186.706-24.915,184.451"/>
			<rect x="-9.873" y="179.653" clip-path="url(#SVGID_2_)" fill="#E9E9E9" width="13.909" height="22.217"/>
			<rect x="-7.691" y="182.046" clip-path="url(#SVGID_2_)" fill="#707070" width="9.545" height="17.432"/>
			<path clip-path="url(#SVGID_2_)" fill="#525252" d="M1.854,184.451v-2.405h-9.545v9.166
				C-4.503,188.963-1.326,186.706,1.854,184.451"/>
			<rect x="-74.344" y="275.653" clip-path="url(#SVGID_2_)" fill="#CDCDCD" width="89.092" height="5.644"/>
			<rect x="-40.486" y="275.653" clip-path="url(#SVGID_2_)" fill="#ADADAD" width="21.376" height="5.644"/>
			<rect x="-40.486" y="276.926" clip-path="url(#SVGID_2_)" fill="#808080" width="21.376" height="1.319"/>
			<rect x="-99.741" y="279.599" clip-path="url(#SVGID_2_)" fill="#B7B7B7" width="139.885" height="4.602"/>
			<rect x="-99.741" y="268.86" clip-path="url(#SVGID_2_)" fill="#E9E9E9" width="2.188" height="10.738"/>
			<rect x="-101.768" y="268.184" clip-path="url(#SVGID_2_)" fill="#E9E9E9" width="61.167" height="2.188"/>
			<rect x="-18.313" y="268.184" clip-path="url(#SVGID_2_)" fill="#E9E9E9" width="61.167" height="2.188"/>
			<rect x="-92.856" y="268.86" clip-path="url(#SVGID_2_)" fill="#E9E9E9" width="2.188" height="10.738"/>
			<rect x="-85.972" y="268.86" clip-path="url(#SVGID_2_)" fill="#E9E9E9" width="2.188" height="10.738"/>
			<rect x="-79.087" y="268.86" clip-path="url(#SVGID_2_)" fill="#E9E9E9" width="2.188" height="10.738"/>
			<rect x="-45.87" y="224.639" clip-path="url(#SVGID_2_)" fill="#E9E9E9" width="3.594" height="51.123"/>
			<rect x="-46.55" y="223.402" clip-path="url(#SVGID_2_)" fill="#C5C5C5" width="4.953" height="1.849"/>
			<rect x="-47.648" y="221.606" clip-path="url(#SVGID_2_)" fill="#E9E9E9" width="7.15" height="1.848"/>
			<rect x="-46.55" y="272.014" clip-path="url(#SVGID_2_)" fill="#C5C5C5" width="4.953" height="1.848"/>
			<rect x="-47.648" y="273.81" clip-path="url(#SVGID_2_)" fill="#E9E9E9" width="7.15" height="1.848"/>
			<rect x="-65.819" y="224.639" clip-path="url(#SVGID_2_)" fill="#E9E9E9" width="3.594" height="51.123"/>
			<rect x="-66.499" y="223.402" clip-path="url(#SVGID_2_)" fill="#C5C5C5" width="4.953" height="1.849"/>
			<rect x="-67.596" y="221.606" clip-path="url(#SVGID_2_)" fill="#E9E9E9" width="7.149" height="1.848"/>
			<rect x="-66.498" y="272.013" clip-path="url(#SVGID_2_)" fill="#C5C5C5" width="4.953" height="1.849"/>
			<rect x="-67.596" y="273.81" clip-path="url(#SVGID_2_)" fill="#E9E9E9" width="7.149" height="1.848"/>
			<rect x="2.654" y="224.639" clip-path="url(#SVGID_2_)" fill="#E9E9E9" width="3.594" height="51.123"/>
			<rect x="1.974" y="223.402" clip-path="url(#SVGID_2_)" fill="#C5C5C5" width="4.954" height="1.849"/>
			<rect x="0.876" y="221.606" clip-path="url(#SVGID_2_)" fill="#E9E9E9" width="7.149" height="1.848"/>
			<rect x="1.974" y="272.014" clip-path="url(#SVGID_2_)" fill="#C5C5C5" width="4.954" height="1.848"/>
			<rect x="0.876" y="273.81" clip-path="url(#SVGID_2_)" fill="#E9E9E9" width="7.15" height="1.848"/>
			<rect x="-17.294" y="224.639" clip-path="url(#SVGID_2_)" fill="#E9E9E9" width="3.594" height="51.123"/>
			<rect x="-17.974" y="223.402" clip-path="url(#SVGID_2_)" fill="#C5C5C5" width="4.953" height="1.849"/>
			<rect x="-19.073" y="221.606" clip-path="url(#SVGID_2_)" fill="#E9E9E9" width="7.15" height="1.848"/>
			<rect x="-17.974" y="272.014" clip-path="url(#SVGID_2_)" fill="#C5C5C5" width="4.954" height="1.848"/>
			<rect x="-19.072" y="273.81" clip-path="url(#SVGID_2_)" fill="#E9E9E9" width="7.149" height="1.848"/>
			<rect x="-72.203" y="268.86" clip-path="url(#SVGID_2_)" fill="#E9E9E9" width="2.188" height="10.738"/>
			<rect x="-65.318" y="268.86" clip-path="url(#SVGID_2_)" fill="#E9E9E9" width="2.188" height="10.738"/>
			<rect x="-58.434" y="268.86" clip-path="url(#SVGID_2_)" fill="#E9E9E9" width="2.188" height="10.738"/>
			<rect x="-51.549" y="268.86" clip-path="url(#SVGID_2_)" fill="#E9E9E9" width="2.188" height="10.738"/>
			<rect x="-44.666" y="268.86" clip-path="url(#SVGID_2_)" fill="#E9E9E9" width="2.188" height="10.738"/>
			<rect x="-17.128" y="268.86" clip-path="url(#SVGID_2_)" fill="#E9E9E9" width="2.188" height="10.738"/>
			<rect x="-10.243" y="268.86" clip-path="url(#SVGID_2_)" fill="#E9E9E9" width="2.188" height="10.738"/>
			<rect x="-3.359" y="268.86" clip-path="url(#SVGID_2_)" fill="#E9E9E9" width="2.188" height="10.738"/>
			<rect x="3.525" y="268.86" clip-path="url(#SVGID_2_)" fill="#E9E9E9" width="2.188" height="10.738"/>
			<rect x="10.41" y="268.86" clip-path="url(#SVGID_2_)" fill="#E9E9E9" width="2.188" height="10.738"/>
			<rect x="17.293" y="268.86" clip-path="url(#SVGID_2_)" fill="#E9E9E9" width="2.188" height="10.738"/>
			<rect x="24.178" y="268.86" clip-path="url(#SVGID_2_)" fill="#E9E9E9" width="2.188" height="10.738"/>
			<rect x="31.062" y="268.86" clip-path="url(#SVGID_2_)" fill="#E9E9E9" width="2.188" height="10.738"/>
			<rect x="37.947" y="268.86" clip-path="url(#SVGID_2_)" fill="#E9E9E9" width="2.188" height="10.738"/>
			<rect x="-62.073" y="173.262" clip-path="url(#SVGID_2_)" fill="#E9E9E9" width="9.546" height="3.045"/>
			<rect x="-34.46" y="173.262" clip-path="url(#SVGID_2_)" fill="#E9E9E9" width="9.545" height="3.045"/>
			<rect x="-20.237" y="208.149" clip-path="url(#SVGID_2_)" fill="#7F7F7F" width="4.62" height="1.475"/>
			<rect x="-41.302" y="201.814" clip-path="url(#SVGID_2_)" fill="#7F7F7F" width="4.621" height="1.475"/>
			<rect x="-24.778" y="171.695" clip-path="url(#SVGID_2_)" fill="#7F7F7F" width="4.621" height="1.475"/>
			<rect x="-48.927" y="176.198" clip-path="url(#SVGID_2_)" fill="#7F7F7F" width="4.621" height="1.474"/>
			<rect x="4.096" y="186.552" clip-path="url(#SVGID_2_)" fill="#7F7F7F" width="4.62" height="1.474"/>
			<rect x="-66.924" y="206.206" clip-path="url(#SVGID_2_)" fill="#7F7F7F" width="4.203" height="1.475"/>
			<rect x="-39.609" y="234.817" clip-path="url(#SVGID_2_)" fill="#7F7F7F" width="4.203" height="1.476"/>
			<rect x="-53.538" y="263.307" clip-path="url(#SVGID_2_)" fill="#7F7F7F" width="4.203" height="1.475"/>
			<rect x="-9.823" y="261.058" clip-path="url(#SVGID_2_)" fill="#7F7F7F" width="4.202" height="1.475"/>
			<rect x="-7.691" y="173.262" clip-path="url(#SVGID_2_)" fill="#E9E9E9" width="9.545" height="3.045"/>
			<g opacity="0.5" clip-path="url(#SVGID_2_)">
				<g>
					<defs>
						<rect id="SVGID_3_" x="217.34" y="151.261" width="114.525" height="91.934"/>
					</defs>
					<clipPath id="SVGID_4_">
						<use xlink:href="#SVGID_3_"  overflow="visible"/>
					</clipPath>
					<polygon clip-path="url(#SVGID_4_)" fill="#C5C5C5" points="327.958,240.902 304.932,240.902 304.932,186.966 327.958,195.307 
											"/>
					<rect x="311.637" y="197.473" clip-path="url(#SVGID_4_)" fill="#6D6D6D" width="13.858" height="43.43"/>
					<rect x="310.408" y="211.012" clip-path="url(#SVGID_4_)" fill="#C5C5C5" width="10.55" height="16.28"/>
					<rect x="313.542" y="212.716" clip-path="url(#SVGID_4_)" fill="#525252" width="5.645" height="12.871"/>
					<polygon clip-path="url(#SVGID_4_)" fill="#555555" points="311.264,187.692 331.865,195.021 331.865,199.253 312.127,199.253 
											"/>
					<polygon clip-path="url(#SVGID_4_)" fill="#C5C5C5" points="222.093,240.902 245.119,240.902 245.119,186.966 222.093,195.307 
											"/>
					<rect x="224.555" y="197.473" clip-path="url(#SVGID_4_)" fill="#6D6D6D" width="13.859" height="43.43"/>
					<rect x="229.094" y="211.012" clip-path="url(#SVGID_4_)" fill="#C5C5C5" width="10.549" height="16.28"/>
					<rect x="230.863" y="212.716" clip-path="url(#SVGID_4_)" fill="#525252" width="5.646" height="12.871"/>
					<polygon clip-path="url(#SVGID_4_)" fill="#555555" points="238.363,187.692 217.34,195.021 217.34,199.253 237.924,199.253 
											"/>
					<rect x="234.549" y="169.478" clip-path="url(#SVGID_4_)" fill="#9D9D9D" width="80.75" height="71.528"/>
					<rect x="234.549" y="169.478" clip-path="url(#SVGID_4_)" fill="#7C7C7C" width="80.75" height="3.762"/>
					<polygon clip-path="url(#SVGID_4_)" fill="#656565" points="319.85,170.705 229.996,170.705 245.057,151.262 304.791,151.262 
											"/>
					<polygon clip-path="url(#SVGID_4_)" fill="#555555" points="233.098,166.702 229.996,170.705 319.851,170.705 316.749,166.702 
											"/>
					<rect x="267.615" y="210.501" clip-path="url(#SVGID_4_)" fill="#E9E9E9" width="14.741" height="26.884"/>
					<rect x="270.002" y="206.24" clip-path="url(#SVGID_4_)" fill="#E9E9E9" width="9.969" height="2.386"/>
					<rect x="269.668" y="212.616" clip-path="url(#SVGID_4_)" fill="#7F7F7F" width="10.637" height="24.769"/>
					<polygon clip-path="url(#SVGID_4_)" fill="#5C5C5C" points="269.668,225.664 269.668,237.385 280.305,237.385 280.305,215.026 
											"/>
					<rect x="288.002" y="206.484" clip-path="url(#SVGID_4_)" fill="#E9E9E9" width="17.148" height="17.37"/>
					<rect x="289.816" y="208.355" clip-path="url(#SVGID_4_)" fill="#707070" width="13.521" height="13.629"/>
					<polygon clip-path="url(#SVGID_4_)" fill="#525252" points="300.166,208.355 289.816,208.355 289.816,217.274 					"/>
					<rect x="295.545" y="206.484" clip-path="url(#SVGID_4_)" fill="#E9E9E9" width="2.064" height="17.37"/>
					<rect x="288.514" y="214.138" clip-path="url(#SVGID_4_)" fill="#E9E9E9" width="16.126" height="2.065"/>
					<rect x="245.822" y="206.484" clip-path="url(#SVGID_4_)" fill="#E9E9E9" width="17.148" height="17.37"/>
					<rect x="247.637" y="208.355" clip-path="url(#SVGID_4_)" fill="#707070" width="13.521" height="13.629"/>
					<polygon clip-path="url(#SVGID_4_)" fill="#525252" points="257.986,208.355 247.637,208.355 247.637,217.274 					"/>
					<rect x="253.363" y="206.484" clip-path="url(#SVGID_4_)" fill="#E9E9E9" width="2.066" height="17.37"/>
					<rect x="246.334" y="214.138" clip-path="url(#SVGID_4_)" fill="#E9E9E9" width="16.126" height="2.065"/>
					<rect x="238.271" y="181.907" clip-path="url(#SVGID_4_)" fill="#E9E9E9" width="10.874" height="17.369"/>
					<rect x="239.975" y="183.777" clip-path="url(#SVGID_4_)" fill="#707070" width="7.463" height="13.629"/>
					<path clip-path="url(#SVGID_4_)" fill="#525252" d="M247.438,185.657v-1.88h-7.462v7.166
						C242.469,189.186,244.952,187.42,247.438,185.657"/>
					<rect x="259.178" y="181.907" clip-path="url(#SVGID_4_)" fill="#E9E9E9" width="10.875" height="17.369"/>
					<rect x="260.883" y="183.777" clip-path="url(#SVGID_4_)" fill="#707070" width="7.463" height="13.629"/>
					<path clip-path="url(#SVGID_4_)" fill="#525252" d="M268.346,185.657v-1.88h-7.463v7.166
						C263.377,189.186,265.86,187.42,268.346,185.657"/>
					<rect x="280.107" y="181.907" clip-path="url(#SVGID_4_)" fill="#E9E9E9" width="10.873" height="17.369"/>
					<rect x="281.812" y="183.777" clip-path="url(#SVGID_4_)" fill="#707070" width="7.464" height="13.629"/>
					<path clip-path="url(#SVGID_4_)" fill="#525252" d="M289.275,185.657v-1.88h-7.464v7.166
						C284.305,189.186,286.789,187.42,289.275,185.657"/>
					<rect x="240.095" y="236.513" clip-path="url(#SVGID_4_)" fill="#CDCDCD" width="69.657" height="4.412"/>
					<rect x="266.566" y="236.513" clip-path="url(#SVGID_4_)" fill="#ADADAD" width="16.714" height="4.412"/>
					<rect x="266.566" y="237.508" clip-path="url(#SVGID_4_)" fill="#808080" width="16.714" height="1.032"/>
					<rect x="220.239" y="239.597" clip-path="url(#SVGID_4_)" fill="#B7B7B7" width="109.368" height="3.599"/>
					<rect x="220.239" y="231.201" clip-path="url(#SVGID_4_)" fill="#E9E9E9" width="1.71" height="8.396"/>
					<rect x="218.654" y="230.673" clip-path="url(#SVGID_4_)" fill="#E9E9E9" width="47.822" height="1.71"/>
					<rect x="283.902" y="230.673" clip-path="url(#SVGID_4_)" fill="#E9E9E9" width="47.822" height="1.71"/>
					<rect x="225.621" y="231.201" clip-path="url(#SVGID_4_)" fill="#E9E9E9" width="1.711" height="8.396"/>
					<rect x="231.005" y="231.201" clip-path="url(#SVGID_4_)" fill="#E9E9E9" width="1.711" height="8.396"/>
					<rect x="236.387" y="231.201" clip-path="url(#SVGID_4_)" fill="#E9E9E9" width="1.711" height="8.396"/>
					<rect x="241.77" y="231.201" clip-path="url(#SVGID_4_)" fill="#E9E9E9" width="1.71" height="8.396"/>
					<rect x="247.152" y="231.201" clip-path="url(#SVGID_4_)" fill="#E9E9E9" width="1.71" height="8.396"/>
					<rect x="252.535" y="231.201" clip-path="url(#SVGID_4_)" fill="#E9E9E9" width="1.71" height="8.396"/>
					<rect x="257.917" y="231.201" clip-path="url(#SVGID_4_)" fill="#E9E9E9" width="1.71" height="8.396"/>
					<rect x="263.299" y="231.201" clip-path="url(#SVGID_4_)" fill="#E9E9E9" width="1.711" height="8.396"/>
					<rect x="284.829" y="231.201" clip-path="url(#SVGID_4_)" fill="#E9E9E9" width="1.711" height="8.396"/>
					<rect x="290.213" y="231.201" clip-path="url(#SVGID_4_)" fill="#E9E9E9" width="1.71" height="8.396"/>
					<rect x="295.595" y="231.201" clip-path="url(#SVGID_4_)" fill="#E9E9E9" width="1.71" height="8.396"/>
					<rect x="300.977" y="231.201" clip-path="url(#SVGID_4_)" fill="#E9E9E9" width="1.711" height="8.396"/>
					<rect x="306.359" y="231.201" clip-path="url(#SVGID_4_)" fill="#E9E9E9" width="1.711" height="8.396"/>
					<rect x="311.742" y="231.201" clip-path="url(#SVGID_4_)" fill="#E9E9E9" width="1.711" height="8.396"/>
					<rect x="317.124" y="231.201" clip-path="url(#SVGID_4_)" fill="#E9E9E9" width="1.712" height="8.396"/>
					<rect x="322.507" y="231.201" clip-path="url(#SVGID_4_)" fill="#E9E9E9" width="1.71" height="8.396"/>
					<rect x="327.889" y="231.201" clip-path="url(#SVGID_4_)" fill="#E9E9E9" width="1.711" height="8.396"/>
					<rect x="239.975" y="176.91" clip-path="url(#SVGID_4_)" fill="#E9E9E9" width="7.463" height="2.38"/>
					<rect x="260.883" y="176.909" clip-path="url(#SVGID_4_)" fill="#E9E9E9" width="7.463" height="2.381"/>
					<rect x="281.812" y="176.909" clip-path="url(#SVGID_4_)" fill="#E9E9E9" width="7.464" height="2.381"/>
					<rect x="256.402" y="161.98" clip-path="url(#SVGID_4_)" fill="#555555" width="2.769" height="0.947"/>
					<rect x="290.068" y="155.527" clip-path="url(#SVGID_4_)" fill="#555555" width="2.77" height="0.948"/>
					<rect x="246.951" y="155.527" clip-path="url(#SVGID_4_)" fill="#555555" width="2.77" height="0.948"/>
					<rect x="296.033" y="159.447" clip-path="url(#SVGID_4_)" fill="#555555" width="2.77" height="0.948"/>
					<rect x="261.438" y="155.187" clip-path="url(#SVGID_4_)" fill="#555555" width="2.769" height="0.948"/>
					<rect x="239.794" y="163.538" clip-path="url(#SVGID_4_)" fill="#555555" width="2.769" height="0.947"/>
					<rect x="300.539" y="181.907" clip-path="url(#SVGID_4_)" fill="#E9E9E9" width="10.875" height="17.369"/>
					<rect x="302.244" y="183.777" clip-path="url(#SVGID_4_)" fill="#707070" width="7.463" height="13.629"/>
					<path clip-path="url(#SVGID_4_)" fill="#525252" d="M309.707,185.657v-1.88h-7.463v7.166
						C304.738,189.186,307.223,187.42,309.707,185.657"/>
					<rect x="302.244" y="176.91" clip-path="url(#SVGID_4_)" fill="#E9E9E9" width="7.463" height="2.38"/>
					<path clip-path="url(#SVGID_4_)" fill="#555555" d="M285.254,167.628h-20.661l1.43-4.22c1.21-3.57,4.798-6.003,8.855-6.003
						h0.091c4.059,0,7.646,2.433,8.855,6.003L285.254,167.628z"/>
					<path clip-path="url(#SVGID_4_)" fill="#9D9D9D" d="M284.445,168.65h-19.044l1.318-4.22c1.114-3.57,4.421-6.002,8.162-6.002
						h0.083c3.74,0,7.047,2.432,8.162,6.002L284.445,168.65z"/>
					<path clip-path="url(#SVGID_4_)" fill="#7C7C7C" d="M282.805,163.634c-1.332-3.124-4.391-5.205-7.84-5.205h-0.083
						c-3.45,0-6.509,2.081-7.841,5.205H282.805z"/>
					<path clip-path="url(#SVGID_4_)" fill="#E9E9E9" d="M278.182,163.719c0,1.882-1.526,3.408-3.408,3.408
						c-1.883,0-3.409-1.526-3.409-3.408c0-1.883,1.526-3.408,3.409-3.408C276.655,160.311,278.182,161.836,278.182,163.719"/>
					<path clip-path="url(#SVGID_4_)" fill="#BDBDBD" d="M277.617,163.719c0,1.571-1.274,2.844-2.845,2.844
						c-1.569,0-2.844-1.272-2.844-2.844c0-1.57,1.274-2.844,2.844-2.844C276.343,160.875,277.617,162.148,277.617,163.719"/>
					<path clip-path="url(#SVGID_4_)" fill="#E9E9E9" d="M275.795,163.719c0,0.564-0.457,1.022-1.021,1.022
						c-0.566,0-1.022-0.458-1.022-1.022s0.456-1.022,1.022-1.022C275.338,162.696,275.795,163.154,275.795,163.719"/>
				</g>
			</g>
			<rect x="307.235" y="264.398" clip-path="url(#SVGID_2_)" fill="#565656" width="1.88" height="10.836"/>
			<path clip-path="url(#SVGID_2_)" fill="#8C8C8C" d="M314.949,246.768c0-22.212-6.443-61.515-6.443-61.515
				s-6.444,39.303-6.444,61.515c0,22.211,1.61,24.245,6.444,24.245C313.338,271.013,314.949,268.979,314.949,246.768"/>
			<polygon clip-path="url(#SVGID_2_)" fill="#BDBDBD" points="429.344,212.159 429.344,277.889 391.811,277.889 391.811,210.276 
							"/>
			<polygon clip-path="url(#SVGID_2_)" fill="#535353" points="407.182,212.106 435.849,212.106 415.03,172.938 407.182,185.589 			
				"/>
			<rect x="391.811" y="214.878" clip-path="url(#SVGID_2_)" fill="#767676" width="34.605" height="63.011"/>
			<rect x="404.243" y="232.243" clip-path="url(#SVGID_2_)" fill="#B8B8B8" width="13.89" height="23.669"/>
			<rect x="407.127" y="234.843" clip-path="url(#SVGID_2_)" fill="#737373" width="8.121" height="18.469"/>
			<rect x="321.86" y="208.377" clip-path="url(#SVGID_2_)" fill="#E9E9E9" width="89.093" height="67.777"/>
			<polygon clip-path="url(#SVGID_2_)" fill="#747474" points="321.518,166.955 318.901,208.604 414.156,208.604 410.234,166.955 
							"/>
			<polygon clip-path="url(#SVGID_2_)" fill="#5F5F5F" points="319.527,198.658 318.902,208.604 414.156,208.604 413.22,198.658 			
				"/>
			<rect x="367.647" y="210.916" clip-path="url(#SVGID_2_)" fill="#A4A4A4" width="40.677" height="62.7"/>
			<polygon clip-path="url(#SVGID_2_)" fill="#E9E9E9" points="372.96,201.601 344.645,163.128 316.645,201.601 			"/>
			<polygon clip-path="url(#SVGID_2_)" fill="#A4A4A4" points="367.51,199.094 344.675,167.681 322.094,199.094 			"/>
			<path clip-path="url(#SVGID_2_)" fill="#A4A4A4" d="M324.834,197.678c-0.215,1.182-0.343,2.394-0.343,3.636v72.303h40.622
				v-72.303c0-1.242-0.13-2.454-0.344-3.636H324.834z"/>
			<rect x="380.22" y="240.207" clip-path="url(#SVGID_2_)" fill="#E9E9E9" width="19.339" height="32.51"/>
			<path clip-path="url(#SVGID_2_)" fill="#E9E9E9" d="M396.813,235.42h-13.665c-1.567,0-2.837-1.271-2.837-2.836v-0.988
				c0-1.566,1.27-2.837,2.837-2.837h13.665c1.567,0,2.837,1.271,2.837,2.837v0.988C399.65,234.149,398.381,235.42,396.813,235.42"/>
			<rect x="384.77" y="231.194" clip-path="url(#SVGID_2_)" fill="#747474" width="10.425" height="1.79"/>
			<rect x="382.615" y="243.339" clip-path="url(#SVGID_2_)" fill="#7F7F7F" width="14.547" height="29.377"/>
			<polygon clip-path="url(#SVGID_2_)" fill="#5C5C5C" points="397.162,272.716 397.162,246.636 382.615,261.183 382.615,272.716 
							"/>
			<rect x="321.861" y="270.51" clip-path="url(#SVGID_2_)" fill="#CDCDCD" width="89.093" height="5.645"/>
			<rect x="377.865" y="270.51" clip-path="url(#SVGID_2_)" fill="#ADADAD" width="23.916" height="5.645"/>
			<rect x="377.865" y="271.783" clip-path="url(#SVGID_2_)" fill="#808080" width="23.916" height="1.319"/>
			<rect x="379.508" y="188.084" clip-path="url(#SVGID_2_)" fill="#5F5F5F" width="3.862" height="1.067"/>
			<rect x="394.775" y="197.077" clip-path="url(#SVGID_2_)" fill="#5F5F5F" width="3.864" height="1.068"/>
			<rect x="394.764" y="181.174" clip-path="url(#SVGID_2_)" fill="#5F5F5F" width="3.862" height="1.067"/>
			<rect x="368.874" y="169.585" clip-path="url(#SVGID_2_)" fill="#5F5F5F" width="3.862" height="1.068"/>
			<rect x="385.782" y="172.396" clip-path="url(#SVGID_2_)" fill="#5F5F5F" width="3.863" height="1.069"/>
			<rect x="325.12" y="176.664" clip-path="url(#SVGID_2_)" fill="#5F5F5F" width="3.863" height="1.068"/>
			<rect x="357.326" y="175.574" clip-path="url(#SVGID_2_)" fill="#5F5F5F" width="3.863" height="1.068"/>
			<rect x="331.675" y="222.8" clip-path="url(#SVGID_2_)" fill="#767676" width="3.862" height="1.068"/>
			<rect x="354.274" y="201.949" clip-path="url(#SVGID_2_)" fill="#767676" width="3.863" height="1.068"/>
			<rect x="353.403" y="258.842" clip-path="url(#SVGID_2_)" fill="#767676" width="3.862" height="1.068"/>
			<rect x="378.253" y="218.931" clip-path="url(#SVGID_2_)" fill="#767676" width="3.863" height="1.067"/>
			<rect x="359.258" y="231.475" clip-path="url(#SVGID_2_)" fill="#767676" width="3.864" height="1.068"/>
			<rect x="371.06" y="255.986" clip-path="url(#SVGID_2_)" fill="#767676" width="3.862" height="1.068"/>
			<rect x="296.465" y="274.456" clip-path="url(#SVGID_2_)" fill="#B7B7B7" width="139.885" height="4.603"/>
			<rect x="337.025" y="232.505" clip-path="url(#SVGID_2_)" fill="#E9E9E9" width="14.1" height="22.521"/>
			<rect x="339.441" y="235.303" clip-path="url(#SVGID_2_)" fill="#B0B0B0" width="9.269" height="16.926"/>
			<path clip-path="url(#SVGID_2_)" fill="#737373" d="M348.71,237.638v-2.336h-9.269v8.901
				C342.537,242.02,345.622,239.827,348.71,237.638"/>
			<path clip-path="url(#SVGID_2_)" fill="#E9E9E9" d="M351.125,216.771h-14.1v-22.011c0-3.894,3.156-7.05,7.05-7.05
				s7.05,3.156,7.05,7.05V216.771z"/>
			<rect x="339.441" y="197.047" clip-path="url(#SVGID_2_)" fill="#B0B0B0" width="9.269" height="16.927"/>
			<path clip-path="url(#SVGID_2_)" fill="#737373" d="M344.303,195.118h-0.455c-1.332,0-2.413-1.08-2.413-2.414
				c0-1.333,1.081-2.414,2.413-2.414h0.455c1.332,0,2.413,1.081,2.413,2.414C346.716,194.038,345.635,195.118,344.303,195.118"/>
			<rect x="342.818" y="178.06" clip-path="url(#SVGID_2_)" fill="#444444" width="2.513" height="4.634"/>
			<rect x="388.757" y="218.056" clip-path="url(#SVGID_2_)" fill="#444444" width="2.514" height="4.635"/>
			<path clip-path="url(#SVGID_2_)" fill="#737373" d="M348.71,199.383v-2.336h-9.269v8.9
				C342.537,203.765,345.622,201.573,348.71,199.383"/>
			<g opacity="0.5" clip-path="url(#SVGID_2_)">
				<g>
					<defs>
						<rect id="SVGID_5_" x="18.572" y="167.24" width="119.475" height="83.956"/>
					</defs>
					<clipPath id="SVGID_6_">
						<use xlink:href="#SVGID_5_"  overflow="visible"/>
					</clipPath>
					<rect x="23.943" y="189.111" clip-path="url(#SVGID_6_)" fill="#CACACA" width="108.733" height="60.15"/>
					<rect x="26.044" y="189.111" clip-path="url(#SVGID_6_)" fill="#EBEBEB" width="104.531" height="60.15"/>
					<rect x="26.044" y="189.111" clip-path="url(#SVGID_6_)" fill="#CACACA" width="104.531" height="5.836"/>
					<rect x="67.581" y="228.261" clip-path="url(#SVGID_6_)" fill="#CACACA" width="21.588" height="20.491"/>
					<path clip-path="url(#SVGID_6_)" fill="#CACACA" d="M81.647,226.804h-6.544c-1.446,0-2.619-1.172-2.619-2.618
						s1.173-2.619,2.619-2.619h6.544c1.446,0,2.619,1.173,2.619,2.619S83.093,226.804,81.647,226.804"/>
					<rect x="75.364" y="223.671" clip-path="url(#SVGID_6_)" fill="#7C7C7C" width="6.021" height="1.111"/>
					<rect x="69.818" y="230.518" clip-path="url(#SVGID_6_)" fill="#565656" width="7.909" height="18.057"/>
					<path clip-path="url(#SVGID_6_)" fill="#6D6D6D" d="M77.727,235.516v-4.998h-7.909v15.354
						C72.448,242.411,75.086,238.961,77.727,235.516"/>
					<rect x="78.924" y="230.518" clip-path="url(#SVGID_6_)" fill="#565656" width="7.909" height="18.057"/>
					<path clip-path="url(#SVGID_6_)" fill="#6D6D6D" d="M86.834,235.516v-4.998h-7.909v15.354
						C81.555,242.411,84.193,238.961,86.834,235.516"/>
					<rect x="18.572" y="247.91" clip-path="url(#SVGID_6_)" fill="#898989" width="119.475" height="3.286"/>
					<rect x="20.985" y="185.843" clip-path="url(#SVGID_6_)" fill="#EBEBEB" width="114.648" height="3.735"/>
					<polygon clip-path="url(#SVGID_6_)" fill="#676767" points="137.347,185.997 19.273,185.997 23.427,169.653 133.193,169.653 
											"/>
					<polygon clip-path="url(#SVGID_6_)" fill="#505050" points="20.697,180.394 19.273,185.997 137.347,185.997 135.922,180.394 
											"/>
					<rect x="34.806" y="171.641" clip-path="url(#SVGID_6_)" fill="#EBEBEB" width="8.203" height="11.258"/>
					<rect x="36.667" y="173.937" clip-path="url(#SVGID_6_)" fill="#707070" width="4.481" height="6.665"/>
					<path clip-path="url(#SVGID_6_)" fill="#525252" d="M41.149,175.158v-1.222h-4.481v5.704
						C38.163,178.148,39.659,176.656,41.149,175.158"/>
					<path clip-path="url(#SVGID_6_)" fill="#505050" d="M38.931,170.623c1.478,0,2.42,0.77,2.874,1.787h3.077l-5.991-5.17
						l-5.992,5.17h3.039C36.464,171.393,37.461,170.623,38.931,170.623"/>
					<polygon clip-path="url(#SVGID_6_)" fill="#EBEBEB" points="43.01,172.418 38.891,169.048 34.771,172.418 					"/>
					<rect x="74.345" y="171.641" clip-path="url(#SVGID_6_)" fill="#EBEBEB" width="8.204" height="11.258"/>
					<rect x="76.206" y="173.937" clip-path="url(#SVGID_6_)" fill="#707070" width="4.481" height="6.665"/>
					<path clip-path="url(#SVGID_6_)" fill="#525252" d="M80.688,175.158v-1.222h-4.482v5.704
						C77.702,178.148,79.197,176.656,80.688,175.158"/>
					<path clip-path="url(#SVGID_6_)" fill="#505050" d="M78.509,170.739c1.421,0,2.353,0.711,2.825,1.671h3.086l-5.991-5.17
						l-5.992,5.17h3.134C76.114,171.45,77.094,170.739,78.509,170.739"/>
					<polygon clip-path="url(#SVGID_6_)" fill="#EBEBEB" points="82.549,172.418 78.429,169.048 74.31,172.418 					"/>
					<rect x="113.883" y="171.641" clip-path="url(#SVGID_6_)" fill="#EBEBEB" width="8.204" height="11.258"/>
					<rect x="115.744" y="173.937" clip-path="url(#SVGID_6_)" fill="#707070" width="4.482" height="6.665"/>
					<path clip-path="url(#SVGID_6_)" fill="#525252" d="M120.226,175.158v-1.222h-4.481v5.704
						C117.24,178.148,118.736,176.656,120.226,175.158"/>
					<path clip-path="url(#SVGID_6_)" fill="#505050" d="M115.511,171.425c0.666-0.62,1.559-0.919,2.458-0.919h0.117
						c1.31,0,2.351,0.816,2.894,1.904h2.979l-5.992-5.17l-5.991,5.17h2.816C114.985,172.034,115.23,171.687,115.511,171.425"/>
					<polygon clip-path="url(#SVGID_6_)" fill="#EBEBEB" points="122.087,172.418 117.968,169.048 113.848,172.418 					"/>
					<rect x="34.025" y="197.862" clip-path="url(#SVGID_6_)" fill="#CACACA" width="9.933" height="15.866"/>
					<rect x="45.038" y="197.862" clip-path="url(#SVGID_6_)" fill="#858585" width="5.146" height="15.866"/>
					<rect x="27.604" y="197.862" clip-path="url(#SVGID_6_)" fill="#858585" width="5.147" height="15.866"/>
					<rect x="35.583" y="199.571" clip-path="url(#SVGID_6_)" fill="#707070" width="6.817" height="12.447"/>
					<path clip-path="url(#SVGID_6_)" fill="#525252" d="M42.4,201.288v-1.717h-6.816v6.546
						C37.861,204.512,40.129,202.899,42.4,201.288"/>
					<rect x="73.408" y="197.862" clip-path="url(#SVGID_6_)" fill="#CACACA" width="9.933" height="15.866"/>
					<rect x="84.421" y="197.862" clip-path="url(#SVGID_6_)" fill="#858585" width="5.147" height="15.866"/>
					<rect x="66.987" y="197.862" clip-path="url(#SVGID_6_)" fill="#858585" width="5.147" height="15.866"/>
					<rect x="74.966" y="199.571" clip-path="url(#SVGID_6_)" fill="#707070" width="6.817" height="12.447"/>
					<path clip-path="url(#SVGID_6_)" fill="#525252" d="M81.783,201.288v-1.717h-6.816v6.546
						C77.244,204.512,79.512,202.899,81.783,201.288"/>
					<rect x="112.792" y="197.862" clip-path="url(#SVGID_6_)" fill="#CACACA" width="9.933" height="15.866"/>
					<rect x="123.804" y="197.862" clip-path="url(#SVGID_6_)" fill="#858585" width="5.146" height="15.866"/>
					<rect x="106.37" y="197.862" clip-path="url(#SVGID_6_)" fill="#858585" width="5.146" height="15.866"/>
					<rect x="114.35" y="199.571" clip-path="url(#SVGID_6_)" fill="#707070" width="6.816" height="12.447"/>
					<path clip-path="url(#SVGID_6_)" fill="#525252" d="M121.166,201.288v-1.717h-6.817v6.546
						C116.627,204.512,118.895,202.899,121.166,201.288"/>
					<rect x="34.025" y="222.612" clip-path="url(#SVGID_6_)" fill="#CACACA" width="9.933" height="15.865"/>
					<rect x="45.038" y="222.612" clip-path="url(#SVGID_6_)" fill="#858585" width="5.146" height="15.865"/>
					<rect x="27.604" y="222.612" clip-path="url(#SVGID_6_)" fill="#858585" width="5.147" height="15.865"/>
					<rect x="35.583" y="224.321" clip-path="url(#SVGID_6_)" fill="#707070" width="6.817" height="12.449"/>
					<path clip-path="url(#SVGID_6_)" fill="#525252" d="M42.4,226.039v-1.718h-6.816v6.547
						C37.861,229.262,40.129,227.649,42.4,226.039"/>
					<rect x="112.792" y="222.612" clip-path="url(#SVGID_6_)" fill="#CACACA" width="9.933" height="15.865"/>
					<rect x="123.804" y="222.612" clip-path="url(#SVGID_6_)" fill="#858585" width="5.146" height="15.865"/>
					<rect x="106.37" y="222.612" clip-path="url(#SVGID_6_)" fill="#858585" width="5.146" height="15.865"/>
					<rect x="45.038" y="197.862" clip-path="url(#SVGID_6_)" fill="#858585" width="5.146" height="15.866"/>
					<rect x="27.604" y="197.862" clip-path="url(#SVGID_6_)" fill="#858585" width="5.147" height="15.866"/>
					<rect x="84.421" y="197.862" clip-path="url(#SVGID_6_)" fill="#858585" width="5.147" height="15.866"/>
					<rect x="66.987" y="197.862" clip-path="url(#SVGID_6_)" fill="#858585" width="5.147" height="15.866"/>
					<rect x="123.804" y="197.862" clip-path="url(#SVGID_6_)" fill="#858585" width="5.146" height="15.866"/>
					<rect x="106.37" y="197.862" clip-path="url(#SVGID_6_)" fill="#858585" width="5.146" height="15.866"/>
					<rect x="45.038" y="222.612" clip-path="url(#SVGID_6_)" fill="#858585" width="5.146" height="15.865"/>
					<rect x="27.604" y="222.612" clip-path="url(#SVGID_6_)" fill="#858585" width="5.147" height="15.865"/>
					<rect x="123.804" y="222.612" clip-path="url(#SVGID_6_)" fill="#858585" width="5.146" height="15.865"/>
					<rect x="106.37" y="222.612" clip-path="url(#SVGID_6_)" fill="#858585" width="5.146" height="15.865"/>
					<rect x="114.35" y="224.321" clip-path="url(#SVGID_6_)" fill="#707070" width="6.816" height="12.449"/>
					<path clip-path="url(#SVGID_6_)" fill="#525252" d="M121.166,226.039v-1.718h-6.817v6.547
						C116.627,229.262,118.895,227.649,121.166,226.039"/>
					<rect x="29.365" y="190.804" clip-path="url(#SVGID_6_)" fill="#8A8A8A" width="1.566" height="2.875"/>
					<rect x="39.006" y="190.804" clip-path="url(#SVGID_6_)" fill="#8A8A8A" width="1.566" height="2.875"/>
					<rect x="48.648" y="190.804" clip-path="url(#SVGID_6_)" fill="#8A8A8A" width="1.566" height="2.875"/>
					<rect x="58.29" y="190.804" clip-path="url(#SVGID_6_)" fill="#8A8A8A" width="1.565" height="2.875"/>
					<rect x="67.931" y="190.804" clip-path="url(#SVGID_6_)" fill="#8A8A8A" width="1.565" height="2.875"/>
					<rect x="77.572" y="190.804" clip-path="url(#SVGID_6_)" fill="#8A8A8A" width="1.566" height="2.875"/>
					<rect x="87.213" y="190.804" clip-path="url(#SVGID_6_)" fill="#8A8A8A" width="1.566" height="2.875"/>
					<rect x="96.855" y="190.804" clip-path="url(#SVGID_6_)" fill="#8A8A8A" width="1.566" height="2.875"/>
					<rect x="106.497" y="190.804" clip-path="url(#SVGID_6_)" fill="#8A8A8A" width="1.566" height="2.875"/>
					<rect x="116.138" y="190.804" clip-path="url(#SVGID_6_)" fill="#8A8A8A" width="1.565" height="2.875"/>
					<rect x="125.779" y="190.804" clip-path="url(#SVGID_6_)" fill="#8A8A8A" width="1.566" height="2.875"/>
					<rect x="56.44" y="176.27" clip-path="url(#SVGID_6_)" fill="#505050" width="2.919" height="0.817"/>
					<rect x="104.19" y="172.767" clip-path="url(#SVGID_6_)" fill="#505050" width="2.919" height="0.816"/>
					<rect x="92.866" y="178.254" clip-path="url(#SVGID_6_)" fill="#505050" width="2.919" height="0.817"/>
					<rect x="27.37" y="178.254" clip-path="url(#SVGID_6_)" fill="#505050" width="2.919" height="0.817"/>
					<rect x="48.969" y="172.183" clip-path="url(#SVGID_6_)" fill="#505050" width="2.918" height="0.817"/>
					<rect x="127.89" y="176.23" clip-path="url(#SVGID_6_)" fill="#505050" width="2.919" height="0.816"/>
					<rect x="58.775" y="220.983" clip-path="url(#SVGID_6_)" fill="#CACACA" width="2.919" height="0.816"/>
					<rect x="98.625" y="233.593" clip-path="url(#SVGID_6_)" fill="#CACACA" width="2.919" height="0.816"/>
					<rect x="51.538" y="209.542" clip-path="url(#SVGID_6_)" fill="#CACACA" width="2.918" height="0.817"/>
					<rect x="91.776" y="201.837" clip-path="url(#SVGID_6_)" fill="#CACACA" width="2.919" height="0.817"/>
					<rect x="98.159" y="215.536" clip-path="url(#SVGID_6_)" fill="#CACACA" width="2.919" height="0.816"/>
					<rect x="114.659" y="240.13" clip-path="url(#SVGID_6_)" fill="#CACACA" width="2.918" height="0.817"/>
					<rect x="50.836" y="238.884" clip-path="url(#SVGID_6_)" fill="#CACACA" width="2.919" height="0.817"/>
					<path clip-path="url(#SVGID_6_)" fill="#B7B7B7" d="M133.922,247.928H93.839c-1.075,0-1.946-0.871-1.946-1.946v-3.322
						c0-1.075,0.871-1.946,1.946-1.946h40.083c1.075,0,1.946,0.871,1.946,1.946v3.322
						C135.868,247.057,134.997,247.928,133.922,247.928"/>
					<path clip-path="url(#SVGID_6_)" fill="#B7B7B7" d="M62.939,247.928H22.856c-1.075,0-1.946-0.871-1.946-1.946v-3.322
						c0-1.075,0.871-1.946,1.946-1.946h40.083c1.075,0,1.946,0.871,1.946,1.946v3.322C64.885,247.057,64.014,247.928,62.939,247.928
						"/>
					<path clip-path="url(#SVGID_6_)" fill="#8C8C8C" d="M91.919,246.239c0.127,0.951,0.933,1.688,1.92,1.688h40.083
						c0.987,0,1.793-0.737,1.92-1.688H91.919z"/>
					<path clip-path="url(#SVGID_6_)" fill="#8C8C8C" d="M20.936,246.239c0.127,0.951,0.934,1.688,1.92,1.688H62.94
						c0.986,0,1.792-0.737,1.919-1.688H20.936z"/>
				</g>
			</g>
		</g>
	</g>
	<g display="inline" opacity="0.2">
		<g>
			<defs>
				<rect id="SVGID_7_" x="-10.21" y="278.779" width="398.159" height="17.525"/>
			</defs>
			<clipPath id="SVGID_8_">
				<use xlink:href="#SVGID_7_"  overflow="visible"/>
			</clipPath>
			<path clip-path="url(#SVGID_8_)" fill="#272425" d="M387.948,287.542c0,4.839-89.133,8.763-199.079,8.763
				c-109.949,0-199.079-3.924-199.079-8.763s89.13-8.763,199.079-8.763C298.815,278.779,387.948,282.703,387.948,287.542"/>
		</g>
	</g>
	<rect x="71.43" y="116.647" display="inline" fill="#585E66" width="218.045" height="142.984"/>
	<polygon display="inline" fill="#E8E2D4" points="41.653,103.751 321.007,103.751 321.007,79.343 178.264,3.372 41.653,78.776 	"/>
	<polygon display="inline" fill="#9A9284" points="67.216,94.55 52.923,94.55 65.513,87.942 178.23,25.727 295.08,87.917 
		307.94,94.55 293.426,94.55 	"/>
	<polygon display="inline" fill="#585E66" points="67.216,91.028 178.26,29.734 293.426,91.028 	"/>
	<rect x="38.806" y="107.057" display="inline" fill="#9A9284" width="286.554" height="16.048"/>
	<rect x="35.282" y="98.64" display="inline" fill="#E8E2D4" width="293.601" height="16.441"/>
	<rect x="35.282" y="98.641" display="inline" fill="#9A9284" width="293.601" height="5.11"/>
	<rect x="38.806" y="253.466" display="inline" fill="#9A9284" width="286.554" height="16.048"/>
	<rect x="35.282" y="261.488" display="inline" fill="#E8E2D4" width="293.601" height="16.444"/>
	<rect x="30.976" y="269.472" display="inline" fill="#585E66" width="302.213" height="16.92"/>
	<rect x="65.915" y="125.43" display="inline" fill="#585E66" width="15.438" height="11.247"/>
	<polygon display="inline" fill="#E8E2D4" points="63.307,132.491 61.525,227.688 85.814,227.688 84.118,132.48 	"/>
	<polygon display="inline" fill="#9A9284" points="85.288,233.638 91.068,235.159 91.068,250.153 56.598,250.153 56.598,235.159 
		62.356,233.668 	"/>
	<polygon display="inline" fill="#F3E6D1" points="90.954,235.097 85.288,232.048 62.356,232.073 56.715,235.097 	"/>
	<rect x="71.431" y="125.21" display="inline" fill="#9A9284" width="4.487" height="7.276"/>
	<rect x="79.106" y="125.21" display="inline" fill="#9A9284" width="4.493" height="7.276"/>
	<rect x="61.073" y="122.373" display="inline" fill="#9A9284" width="25.132" height="4.48"/>
	<path display="inline" fill="#9A9284" d="M87.333,231.024c0,0.757-0.787,1.374-1.76,1.374H62.095c-0.973,0-1.76-0.617-1.76-1.374
		c0-0.755,0.787-1.367,1.76-1.367h23.478C86.546,229.657,87.333,230.27,87.333,231.024"/>
	<path display="inline" fill="#9A9284" d="M87.333,228.452c0,0.754-0.787,1.366-1.76,1.366H62.095c-0.973,0-1.76-0.612-1.76-1.366
		c0-0.756,0.787-1.374,1.76-1.374h23.478C86.546,227.078,87.333,227.696,87.333,228.452"/>
	<path display="inline" fill="#9A9284" d="M61.539,227.169c-0.695,0.182-1.204,0.678-1.204,1.283c0,0.609,0.525,1.112,1.235,1.288
		c-0.71,0.172-1.235,0.675-1.235,1.284c0,0.683,0.655,1.227,1.497,1.33l-5.116,2.742h0.123l-0.239,0.063v14.994h17.205V124.006
		h-12.73v2.847h1.996L61.539,227.169z"/>
	<rect x="66.595" y="126.853" display="inline" fill="#585E66" width="3.189" height="5.633"/>
	<rect x="49.571" y="239.204" display="inline" fill="#9A9284" width="47.956" height="17.674"/>
	<rect x="137.101" y="125.43" display="inline" fill="#585E66" width="15.439" height="11.247"/>
	<polygon display="inline" fill="#E8E2D4" points="134.494,132.491 132.712,227.688 157.001,227.688 155.304,132.48 	"/>
	<polygon display="inline" fill="#9A9284" points="156.474,233.638 162.255,235.159 162.255,250.153 127.785,250.153 
		127.785,235.159 133.541,233.668 	"/>
	<polygon display="inline" fill="#F3E6D1" points="162.139,235.097 156.474,232.048 133.541,232.073 127.901,235.097 	"/>
	<rect x="142.616" y="125.21" display="inline" fill="#9A9284" width="4.486" height="7.276"/>
	<rect x="150.292" y="125.21" display="inline" fill="#9A9284" width="4.493" height="7.276"/>
	<rect x="132.258" y="122.373" display="inline" fill="#9A9284" width="25.133" height="4.48"/>
	<path display="inline" fill="#9A9284" d="M158.518,231.024c0,0.757-0.787,1.374-1.759,1.374h-23.477
		c-0.974,0-1.76-0.617-1.76-1.374c0-0.755,0.787-1.367,1.76-1.367h23.477C157.731,229.657,158.518,230.27,158.518,231.024"/>
	<path display="inline" fill="#9A9284" d="M158.518,228.452c0,0.754-0.787,1.366-1.759,1.366h-23.477
		c-0.974,0-1.76-0.612-1.76-1.366c0-0.756,0.787-1.374,1.76-1.374h23.477C157.731,227.078,158.518,227.696,158.518,228.452"/>
	<path display="inline" fill="#9A9284" d="M132.725,227.169c-0.695,0.182-1.204,0.678-1.204,1.283c0,0.609,0.523,1.112,1.233,1.288
		c-0.71,0.172-1.233,0.675-1.233,1.284c0,0.683,0.655,1.227,1.496,1.33l-5.116,2.742h0.122l-0.238,0.063v14.994h17.205V124.006
		h-12.732v2.847h1.997L132.725,227.169z"/>
	<rect x="137.781" y="126.853" display="inline" fill="#585E66" width="3.19" height="5.633"/>
	<rect x="120.757" y="239.204" display="inline" fill="#9A9284" width="47.955" height="17.674"/>
	<rect x="208.287" y="125.43" display="inline" fill="#585E66" width="15.439" height="11.247"/>
	<polygon display="inline" fill="#E8E2D4" points="205.68,132.491 203.898,227.688 228.188,227.688 226.49,132.48 	"/>
	<polygon display="inline" fill="#9A9284" points="227.66,233.638 233.443,235.159 233.443,250.153 198.972,250.153 
		198.972,235.159 204.729,233.668 	"/>
	<polygon display="inline" fill="#F3E6D1" points="233.326,235.097 227.66,232.048 204.729,232.073 199.09,235.097 	"/>
	<rect x="213.803" y="125.21" display="inline" fill="#9A9284" width="4.486" height="7.276"/>
	<rect x="221.479" y="125.21" display="inline" fill="#9A9284" width="4.492" height="7.276"/>
	<rect x="203.445" y="122.373" display="inline" fill="#9A9284" width="25.135" height="4.48"/>
	<path display="inline" fill="#9A9284" d="M229.703,231.024c0,0.757-0.783,1.374-1.76,1.374h-23.477c-0.973,0-1.76-0.617-1.76-1.374
		c0-0.755,0.787-1.367,1.76-1.367h23.477C228.92,229.657,229.703,230.27,229.703,231.024"/>
	<path display="inline" fill="#9A9284" d="M229.703,228.452c0,0.754-0.783,1.366-1.76,1.366h-23.477c-0.973,0-1.76-0.612-1.76-1.366
		c0-0.756,0.787-1.374,1.76-1.374h23.477C228.92,227.078,229.703,227.696,229.703,228.452"/>
	<path display="inline" fill="#9A9284" d="M203.91,227.169c-0.693,0.182-1.201,0.678-1.201,1.283c0,0.609,0.523,1.112,1.231,1.288
		c-0.708,0.172-1.231,0.675-1.231,1.284c0,0.683,0.652,1.227,1.494,1.33l-5.113,2.742h0.12l-0.238,0.063v14.994h17.205V124.006
		h-12.732v2.847h1.996L203.91,227.169z"/>
	<rect x="208.967" y="126.853" display="inline" fill="#585E66" width="3.191" height="5.633"/>
	<rect x="191.942" y="239.204" display="inline" fill="#9A9284" width="47.955" height="17.674"/>
	<rect x="279.471" y="125.43" display="inline" fill="#585E66" width="15.439" height="11.247"/>
	<polygon display="inline" fill="#E8E2D4" points="276.866,132.491 275.085,227.688 299.371,227.688 297.678,132.48 	"/>
	<polygon display="inline" fill="#9A9284" points="298.845,233.638 304.627,235.159 304.627,250.153 270.158,250.153 
		270.158,235.159 275.912,233.668 	"/>
	<polygon display="inline" fill="#F3E6D1" points="304.512,235.097 298.845,232.048 275.912,232.073 270.274,235.097 	"/>
	<rect x="284.989" y="125.21" display="inline" fill="#9A9284" width="4.485" height="7.276"/>
	<rect x="292.664" y="125.21" display="inline" fill="#9A9284" width="4.492" height="7.276"/>
	<rect x="274.631" y="122.373" display="inline" fill="#9A9284" width="25.135" height="4.48"/>
	<path display="inline" fill="#9A9284" d="M300.891,231.024c0,0.757-0.787,1.374-1.762,1.374h-23.477
		c-0.973,0-1.76-0.617-1.76-1.374c0-0.755,0.787-1.367,1.76-1.367h23.477C300.104,229.657,300.891,230.27,300.891,231.024"/>
	<path display="inline" fill="#9A9284" d="M300.891,228.452c0,0.754-0.787,1.366-1.762,1.366h-23.477
		c-0.973,0-1.76-0.612-1.76-1.366c0-0.756,0.787-1.374,1.76-1.374h23.477C300.104,227.078,300.891,227.696,300.891,228.452"/>
	<path display="inline" fill="#9A9284" d="M275.096,227.169c-0.693,0.182-1.203,0.678-1.203,1.283c0,0.609,0.522,1.112,1.233,1.288
		c-0.711,0.172-1.233,0.675-1.233,1.284c0,0.683,0.655,1.227,1.496,1.33l-5.114,2.742h0.122l-0.238,0.063v14.994h17.205V124.006
		h-12.732v2.847h1.996L275.096,227.169z"/>
	<rect x="280.153" y="126.853" display="inline" fill="#585E66" width="3.188" height="5.633"/>
	<rect x="263.128" y="239.204" display="inline" fill="#9A9284" width="47.955" height="17.674"/>
	<rect x="97.232" y="142.844" display="inline" fill="#9A9284" width="22.706" height="31.512"/>
	<rect x="99.387" y="145.24" display="inline" fill="#E8E2D4" width="18.398" height="26.716"/>
	<rect x="97.232" y="188.141" display="inline" fill="#9A9284" width="22.706" height="31.511"/>
	<rect x="99.387" y="190.536" display="inline" fill="#E8E2D4" width="18.398" height="26.72"/>
	<rect x="169.079" y="142.844" display="inline" fill="#9A9284" width="22.705" height="31.512"/>
	<rect x="171.231" y="145.24" display="inline" fill="#E8E2D4" width="18.4" height="26.716"/>
	<rect x="169.079" y="188.141" display="inline" fill="#9A9284" width="22.705" height="31.511"/>
	<rect x="171.231" y="190.536" display="inline" fill="#E8E2D4" width="18.4" height="26.72"/>
	<rect x="240.924" y="142.844" display="inline" fill="#9A9284" width="22.703" height="31.512"/>
	<rect x="243.077" y="145.24" display="inline" fill="#E8E2D4" width="18.4" height="26.716"/>
	<rect x="240.924" y="188.141" display="inline" fill="#9A9284" width="22.703" height="31.511"/>
	<rect x="243.077" y="190.536" display="inline" fill="#E8E2D4" width="18.4" height="26.72"/>
	<polygon display="inline" fill="#9A9284" points="297.403,84.254 192.684,28.535 194.279,25.727 298.994,81.444 	"/>
</g>
<g id="Capa_2">
	<g opacity="0.3">
		<g>
			<defs>
				<rect id="SVGID_9_" x="240.477" y="132.642" width="31.471" height="52.886"/>
			</defs>
			<clipPath id="SVGID_10_">
				<use xlink:href="#SVGID_9_"  overflow="visible"/>
			</clipPath>
			<rect x="240.477" y="132.642" clip-path="url(#SVGID_10_)" fill="#C0B8BA" width="31.471" height="52.885"/>
			<rect x="247.496" y="136.617" clip-path="url(#SVGID_10_)" fill="#D8D2D5" width="17.057" height="25.09"/>
			<rect x="248.776" y="136.617" clip-path="url(#SVGID_10_)" fill="#9B9395" width="14.495" height="23.857"/>
			<rect x="249.744" y="136.617" clip-path="url(#SVGID_10_)" fill="#D8D2D5" width="12.789" height="23.031"/>
			<path clip-path="url(#SVGID_10_)" fill="#9B9395" d="M250.1,136.617c-0.001,0.052-0.008,0.103-0.008,0.156
				c0,3.31,2.685,5.994,5.994,5.994c3.311,0,5.994-2.684,5.994-5.994c0-0.053-0.006-0.104-0.007-0.156H250.1z"/>
			<path clip-path="url(#SVGID_10_)" fill="#9B9395" d="M251.693,136.617c-0.001,0.052-0.007,0.103-0.007,0.156
				c0,2.459,1.992,4.452,4.451,4.452c2.46,0,4.453-1.993,4.453-4.452c0-0.053-0.006-0.104-0.008-0.156H251.693z"/>
			<path clip-path="url(#SVGID_10_)" fill="#D8D2D5" d="M253.073,136.617c-0.004,0.069-0.012,0.136-0.012,0.206
				c0,1.699,1.378,3.076,3.076,3.076c1.7,0,3.075-1.377,3.075-3.076c0-0.07-0.004-0.137-0.008-0.206H253.073z"/>
			<path clip-path="url(#SVGID_10_)" fill="#FFFFFF" d="M255.718,157.189c-2.227,0-4.031-1.805-4.031-4.031s1.805-4.032,4.031-4.032
				s4.032,1.805,4.032,4.032S257.944,157.189,255.718,157.189"/>
			<path clip-path="url(#SVGID_10_)" fill="#D8D2D5" d="M255.718,155.988c-1.538,0-2.784-1.246-2.784-2.785
				c0-1.538,1.246-2.784,2.784-2.784c1.539,0,2.786,1.247,2.786,2.784C258.504,154.742,257.257,155.988,255.718,155.988"/>
			<path clip-path="url(#SVGID_10_)" fill="#847F80" d="M261.695,155.926l-0.154-0.305l0.198-0.113l0.293,0.473v0.254h-1.438
				l-0.013,0.27h-0.221v-0.902h0.212l0.018,0.248c0.001,0.051,0.02,0.076,0.085,0.076H261.695z"/>
			<path clip-path="url(#SVGID_10_)" fill="#847F80" d="M261.212,157.865c-0.614,0-0.877-0.213-0.877-0.609s0.263-0.596,0.867-0.596
				c0.597,0,0.863,0.244,0.863,0.615C262.065,157.639,261.825,157.865,261.212,157.865 M261.208,157.555
				c0.471,0,0.605-0.117,0.605-0.287c0-0.182-0.148-0.293-0.639-0.293c-0.45,0-0.59,0.111-0.59,0.287
				C260.585,157.434,260.715,157.555,261.208,157.555"/>
			<path clip-path="url(#SVGID_10_)" fill="#847F80" d="M261.212,159.25c-0.614,0-0.877-0.213-0.877-0.607
				c0-0.396,0.263-0.596,0.867-0.596c0.597,0,0.863,0.242,0.863,0.613C262.065,159.025,261.825,159.25,261.212,159.25
				 M261.208,158.941c0.471,0,0.605-0.117,0.605-0.289c0-0.182-0.148-0.291-0.639-0.291c-0.45,0-0.59,0.109-0.59,0.287
				C260.585,158.82,260.715,158.941,261.208,158.941"/>
			<path clip-path="url(#SVGID_10_)" fill="#847F80" d="M251.357,155.926l-0.154-0.305l0.199-0.113l0.293,0.473v0.254h-1.438
				l-0.013,0.27h-0.221v-0.902h0.214l0.016,0.248c0.001,0.051,0.021,0.076,0.085,0.076H251.357z"/>
			<path clip-path="url(#SVGID_10_)" fill="#847F80" d="M250.874,157.865c-0.614,0-0.876-0.213-0.876-0.609s0.262-0.596,0.866-0.596
				c0.597,0,0.865,0.244,0.865,0.615C251.729,157.639,251.488,157.865,250.874,157.865 M250.87,157.555
				c0.473,0,0.605-0.117,0.605-0.287c0-0.182-0.148-0.293-0.639-0.293c-0.45,0-0.59,0.111-0.59,0.287
				C250.247,157.434,250.377,157.555,250.87,157.555"/>
			<path clip-path="url(#SVGID_10_)" fill="#847F80" d="M250.874,159.25c-0.614,0-0.876-0.213-0.876-0.607
				c0-0.396,0.262-0.596,0.866-0.596c0.597,0,0.865,0.242,0.865,0.613C251.729,159.025,251.488,159.25,250.874,159.25
				 M250.87,158.941c0.473,0,0.605-0.117,0.605-0.289c0-0.182-0.148-0.291-0.639-0.291c-0.45,0-0.59,0.109-0.59,0.287
				C250.247,158.82,250.377,158.941,250.87,158.941"/>
			<path clip-path="url(#SVGID_10_)" fill="#847F80" d="M257.221,145.886l-0.426-0.828l0.545-0.311l0.801,1.288v0.694h-3.922
				l-0.035,0.736h-0.603v-2.464h0.581l0.043,0.68c0.008,0.135,0.057,0.205,0.232,0.205H257.221z"/>
			<path clip-path="url(#SVGID_10_)" fill="#847F80" d="M255.904,151.179c-1.679,0-2.394-0.581-2.394-1.656
				c0-1.083,0.715-1.628,2.364-1.628c1.628,0,2.357,0.665,2.357,1.678C258.232,150.563,257.574,151.179,255.904,151.179
				 M255.89,150.336c1.288,0,1.649-0.318,1.649-0.786c0-0.496-0.403-0.8-1.742-0.8c-1.224,0-1.605,0.305-1.605,0.786
				C254.191,150.004,254.546,150.336,255.89,150.336"/>
			<path clip-path="url(#SVGID_10_)" fill="#847F80" d="M255.904,154.963c-1.679,0-2.394-0.58-2.394-1.656
				c0-1.083,0.715-1.628,2.364-1.628c1.628,0,2.357,0.666,2.357,1.679C258.232,154.348,257.574,154.963,255.904,154.963
				 M255.89,154.121c1.288,0,1.649-0.318,1.649-0.787c0-0.495-0.403-0.799-1.742-0.799c-1.224,0-1.605,0.304-1.605,0.785
				C254.191,153.789,254.546,154.121,255.89,154.121"/>
			<path clip-path="url(#SVGID_10_)" fill="#FFFFFF" d="M251.297,138.995c-0.329-0.346-0.34-0.998,0.121-1.264
				C251.739,138.005,251.759,138.722,251.297,138.995"/>
			<path clip-path="url(#SVGID_10_)" fill="#FFFFFF" d="M252.734,137.766c-0.317-0.357-0.984-0.446-1.316-0.037
				C251.662,138.071,252.397,138.175,252.734,137.766"/>
			<path clip-path="url(#SVGID_10_)" fill="#FFFFFF" d="M251.979,140.302c-0.395-0.271-0.546-0.91-0.156-1.268
				C252.195,139.236,252.368,139.937,251.979,140.302"/>
			<path clip-path="url(#SVGID_10_)" fill="#FFFFFF" d="M253.106,138.792c-0.385-0.285-1.054-0.231-1.284,0.24
				C252.133,139.318,252.87,139.265,253.106,138.792"/>
			<path clip-path="url(#SVGID_10_)" fill="#FFFFFF" d="M253.072,141.069c-0.451-0.161-0.762-0.74-0.478-1.186
				C253.009,139.984,253.354,140.618,253.072,141.069"/>
			<path clip-path="url(#SVGID_10_)" fill="#FFFFFF" d="M253.775,139.321c-0.445-0.177-1.078,0.045-1.181,0.559
				C252.97,140.078,253.668,139.839,253.775,139.321"/>
			<path clip-path="url(#SVGID_10_)" fill="#FFFFFF" d="M254.21,141.465c-0.459-0.14-0.796-0.704-0.534-1.163
				C254.093,140.383,254.47,141,254.21,141.465"/>
			<path clip-path="url(#SVGID_10_)" fill="#FFFFFF" d="M254.828,139.686c-0.452-0.157-1.074,0.095-1.152,0.614
				C254.059,140.479,254.745,140.208,254.828,139.686"/>
			<path clip-path="url(#SVGID_10_)" fill="#FFFFFF" d="M255.415,141.843c-0.479-0.038-0.93-0.515-0.772-1.02
				C255.067,140.812,255.568,141.333,255.415,141.843"/>
			<path clip-path="url(#SVGID_10_)" fill="#FFFFFF" d="M255.636,139.973c-0.478-0.055-1.029,0.325-0.993,0.848
				C255.055,140.913,255.666,140.5,255.636,139.973"/>
			<path clip-path="url(#SVGID_10_)" fill="#FFFFFF" d="M256.488,142.008c-0.479-0.038-0.931-0.515-0.771-1.02
				C256.142,140.977,256.641,141.498,256.488,142.008"/>
			<path clip-path="url(#SVGID_10_)" fill="#FFFFFF" d="M256.709,140.137c-0.477-0.055-1.028,0.325-0.992,0.849
				C256.129,141.078,256.739,140.665,256.709,140.137"/>
			<path clip-path="url(#SVGID_10_)" fill="#FFFFFF" d="M257.663,141.898c-0.48-0.012-0.956-0.465-0.824-0.978
				C257.261,140.886,257.789,141.38,257.663,141.898"/>
			<path clip-path="url(#SVGID_10_)" fill="#FFFFFF" d="M258.955,140.982c-0.349,0.328-1.005,0.34-1.273-0.117
				C257.96,140.545,258.683,140.525,258.955,140.982"/>
			<path clip-path="url(#SVGID_10_)" fill="#FFFFFF" d="M257.783,140.018c-0.479-0.03-1.01,0.379-0.946,0.9
				C257.254,140.988,257.842,140.543,257.783,140.018"/>
			<rect x="261.448" y="147.817" clip-path="url(#SVGID_10_)" fill="#847F80" width="0.632" height="7.298"/>
			<rect x="250.283" y="147.817" clip-path="url(#SVGID_10_)" fill="#847F80" width="0.632" height="7.298"/>
			<path clip-path="url(#SVGID_10_)" fill="#FFFFFF" d="M255.978,161.711c-1.258-2.434-1.733-3.885-1.857-4.658
				c-0.031-0.195-0.062-0.383-0.097-0.568c-0.001-0.014-0.004-0.027-0.006-0.041c-0.033-0.184-0.07-0.367-0.113-0.553
				c-0.003-0.016-0.008-0.031-0.011-0.047c-0.044-0.188-0.097-0.377-0.158-0.572c-0.003-0.012-0.007-0.023-0.012-0.035
				c-0.097-0.301-0.216-0.617-0.376-0.961c-0.314-0.672-0.825-0.945-1.409-0.75c-1.002,0.338-2.196,2.176-1.576,5.051
				c0.339,1.578,0.71,2.646,1.007,3.508c0.354,1.021,0.618,1.787,0.639,2.797c0.003,0.133,0,0.273-0.006,0.416
				c0,0.021-0.001,0.043-0.003,0.063c-0.007,0.148-0.019,0.301-0.037,0.463c0,0.002,0,0.008-0.002,0.01
				c-0.016,0.15-0.039,0.309-0.064,0.471c-0.008,0.041-0.013,0.08-0.021,0.123c-0.03,0.17-0.062,0.346-0.104,0.535
				c-0.01,0.053-0.019,0.1-0.03,0.152c0,0,0,0.002,0,0.004c-0.205,0.996-0.302,1.777-0.227,2.449
				c0.13,1.172,0.626,2.385,1.801,3.725c0.363,0.412,1.424,1.414,1.837,1.91c1.085,1.299,1.204,3.748,1.301,4.904h6.238
				c0.164-2.854,0.917-14.635,0.987-17.775c0.005-0.229,0.005-0.43-0.001-0.621L255.978,161.711z"/>
			<path clip-path="url(#SVGID_10_)" fill="#C0B8BA" d="M255.986,161.707c0.024,0.096,0.905,3.451,1.807,3.713
				c0.913,0.268,1.751-0.926,1.752-3.713H255.986z"/>
			<path clip-path="url(#SVGID_10_)" fill="#C0B8BA" d="M251.191,156.375c0,0-0.333-2.082,0.978-2.219
				c1.312-0.137,1.193,1.926,1.193,1.926L251.191,156.375z"/>
			<rect x="245.3" y="136.773" clip-path="url(#SVGID_10_)" fill="#847F80" width="21.824" height="1.907"/>
			<rect x="245.3" y="134.866" clip-path="url(#SVGID_10_)" fill="#9B9395" width="21.824" height="1.907"/>
		</g>
	</g>
	<g opacity="0.3">
		<g>
			<defs>
				<rect id="SVGID_11_" x="80.921" y="188.166" width="56.052" height="33.135"/>
			</defs>
			<clipPath id="SVGID_12_">
				<use xlink:href="#SVGID_11_"  overflow="visible"/>
			</clipPath>
			<rect x="80.921" y="188.166" clip-path="url(#SVGID_12_)" fill="#C0B8BA" width="56.052" height="33.135"/>
			<path clip-path="url(#SVGID_12_)" fill="#D8D2D5" d="M122.091,216.256l0.083-0.082c0.103-0.104,0.13-0.25,0.089-0.379
				c-0.001-0.006-0.001-0.012-0.003-0.016c-0.008-0.021-0.022-0.039-0.033-0.059c-0.011-0.02-0.017-0.043-0.033-0.061l-0.02-0.02
				l-6.34-6.34l-0.021-0.02c-0.016-0.018-0.039-0.021-0.059-0.033s-0.038-0.025-0.06-0.033c-0.004-0.002-0.01-0.002-0.014-0.002
				c-0.129-0.041-0.276-0.016-0.38,0.088l-0.083,0.084l-0.817,0.816l6.873,6.871L122.091,216.256z"/>
			<path clip-path="url(#SVGID_12_)" fill="#9B9395" d="M113.439,211.164l0.013,0.014c-0.085,0.143-0.073,0.33,0.051,0.455
				l6.34,6.34c0.125,0.125,0.311,0.137,0.455,0.051l0.013,0.014l0.064-0.064l0.9-0.9l-6.874-6.871l-0.899,0.898L113.439,211.164z"/>
			<path clip-path="url(#SVGID_12_)" fill="#D8D2D5" d="M96.907,215.275v-0.117c0-0.146-0.085-0.27-0.206-0.33
				c-0.005-0.004-0.009-0.008-0.013-0.01c-0.021-0.01-0.043-0.012-0.065-0.018c-0.022-0.006-0.042-0.02-0.066-0.02h-0.027h-8.968
				h-0.027c-0.023,0-0.043,0.014-0.065,0.02c-0.022,0.006-0.045,0.008-0.065,0.018c-0.004,0.002-0.008,0.006-0.012,0.01
				c-0.121,0.061-0.206,0.184-0.206,0.33v0.117v1.154h9.72V215.275z"/>
			<path clip-path="url(#SVGID_12_)" fill="#9B9395" d="M87.187,217.793h0.018c0.042,0.164,0.183,0.285,0.358,0.285h8.967
				c0.176,0,0.316-0.121,0.357-0.285h0.019v-0.09v-1.271h-9.719v1.271V217.793z"/>
			<path clip-path="url(#SVGID_12_)" fill="#D8D2D5" d="M96.907,211.119v-0.117c0-0.146-0.085-0.268-0.206-0.332
				c-0.005-0.002-0.009-0.006-0.013-0.008c-0.021-0.008-0.043-0.012-0.065-0.018c-0.022-0.008-0.042-0.02-0.066-0.02h-0.027h-8.968
				h-0.027c-0.023,0-0.043,0.012-0.065,0.02c-0.022,0.006-0.045,0.01-0.065,0.018c-0.004,0.002-0.008,0.006-0.012,0.008
				c-0.121,0.064-0.206,0.186-0.206,0.332v0.117v1.154h9.72V211.119z"/>
			<path clip-path="url(#SVGID_12_)" fill="#9B9395" d="M87.187,213.637h0.018c0.042,0.164,0.183,0.285,0.358,0.285h8.967
				c0.176,0,0.316-0.121,0.357-0.285h0.019v-0.09v-1.273h-9.719v1.273V213.637z"/>
			<path clip-path="url(#SVGID_12_)" fill="#D8D2D5" d="M98.583,206.979v-0.117c0-0.146-0.085-0.268-0.206-0.332
				c-0.005-0.002-0.008-0.006-0.013-0.008c-0.021-0.008-0.043-0.012-0.065-0.018c-0.021-0.008-0.042-0.02-0.065-0.02h-0.027H89.24
				h-0.028c-0.023,0-0.043,0.012-0.065,0.02c-0.022,0.006-0.045,0.01-0.065,0.018c-0.004,0.002-0.007,0.006-0.012,0.008
				c-0.121,0.064-0.206,0.186-0.206,0.332v0.117v1.154h9.72V206.979z"/>
			<path clip-path="url(#SVGID_12_)" fill="#9B9395" d="M88.864,209.496h0.018c0.041,0.164,0.183,0.285,0.358,0.285h8.967
				c0.176,0,0.317-0.121,0.357-0.285h0.019v-0.09v-1.273h-9.719v1.273V209.496z"/>
			<path clip-path="url(#SVGID_12_)" fill="#D8D2D5" d="M96.907,202.822v-0.117c0-0.146-0.085-0.27-0.206-0.33
				c-0.005-0.004-0.009-0.008-0.013-0.01c-0.021-0.01-0.043-0.012-0.065-0.018c-0.022-0.006-0.042-0.02-0.066-0.02h-0.027h-8.968
				h-0.027c-0.023,0-0.043,0.014-0.065,0.02c-0.022,0.006-0.045,0.008-0.065,0.018c-0.004,0.002-0.008,0.006-0.012,0.01
				c-0.121,0.061-0.206,0.184-0.206,0.33v0.117v1.154h9.72V202.822z"/>
			<path clip-path="url(#SVGID_12_)" fill="#9B9395" d="M87.187,205.34h0.018c0.042,0.164,0.183,0.287,0.358,0.287h8.967
				c0.176,0,0.316-0.123,0.357-0.287h0.019v-0.09v-1.273h-9.719v1.273V205.34z"/>
			<path clip-path="url(#SVGID_12_)" fill="#D8D2D5" d="M98.583,198.701v-0.117c0-0.146-0.085-0.27-0.206-0.332
				c-0.005-0.002-0.008-0.004-0.013-0.008c-0.021-0.01-0.043-0.012-0.065-0.018c-0.021-0.006-0.042-0.02-0.065-0.02h-0.027H89.24
				h-0.028c-0.023,0-0.043,0.014-0.065,0.02s-0.045,0.008-0.065,0.018c-0.004,0.004-0.007,0.006-0.012,0.008
				c-0.121,0.063-0.206,0.186-0.206,0.332v0.117v1.154h9.72V198.701z"/>
			<path clip-path="url(#SVGID_12_)" fill="#9B9395" d="M88.864,201.219h0.018c0.041,0.162,0.183,0.285,0.358,0.285h8.967
				c0.176,0,0.317-0.123,0.357-0.285h0.019v-0.09v-1.273h-9.719v1.273V201.219z"/>
			<path clip-path="url(#SVGID_12_)" fill="#D8D2D5" d="M96.907,194.545v-0.117c0-0.146-0.085-0.268-0.206-0.33
				c-0.005-0.004-0.009-0.006-0.013-0.01c-0.021-0.01-0.043-0.014-0.065-0.02c-0.022-0.004-0.042-0.018-0.066-0.018h-0.027h-8.968
				h-0.027c-0.023,0-0.043,0.014-0.065,0.018c-0.022,0.006-0.045,0.01-0.065,0.02c-0.004,0.004-0.008,0.006-0.012,0.01
				c-0.121,0.063-0.206,0.184-0.206,0.33v0.117v1.154h9.72V194.545z"/>
			<path clip-path="url(#SVGID_12_)" fill="#9B9395" d="M87.187,197.063h0.018c0.042,0.164,0.183,0.285,0.358,0.285h8.967
				c0.176,0,0.316-0.121,0.357-0.285h0.019v-0.09v-1.273h-9.719v1.273V197.063z"/>
			<path clip-path="url(#SVGID_12_)" fill="#D8D2D5" d="M110.8,215.275v-0.117c0-0.146-0.085-0.27-0.206-0.33
				c-0.005-0.004-0.008-0.008-0.012-0.01c-0.021-0.01-0.043-0.012-0.065-0.018c-0.021-0.006-0.042-0.02-0.065-0.02h-0.027h-8.967
				h-0.028c-0.023,0-0.043,0.014-0.065,0.02c-0.023,0.006-0.045,0.008-0.066,0.018c-0.004,0.002-0.008,0.006-0.012,0.01
				c-0.121,0.061-0.206,0.184-0.206,0.33v0.117v1.154h9.719V215.275z"/>
			<path clip-path="url(#SVGID_12_)" fill="#9B9395" d="M101.081,217.793h0.019c0.041,0.164,0.182,0.285,0.357,0.285h8.967
				c0.176,0,0.316-0.121,0.357-0.285h0.019v-0.09v-1.271h-9.719v1.271V217.793z"/>
			<path clip-path="url(#SVGID_12_)" fill="#D8D2D5" d="M112.477,211.135v-0.117c0-0.146-0.084-0.27-0.205-0.33
				c-0.005-0.004-0.009-0.008-0.013-0.01c-0.02-0.01-0.042-0.012-0.064-0.018s-0.042-0.02-0.065-0.02h-0.027h-8.967h-0.027
				c-0.023,0-0.044,0.014-0.066,0.02c-0.022,0.006-0.045,0.008-0.065,0.018c-0.004,0.002-0.007,0.006-0.012,0.01
				c-0.121,0.061-0.207,0.184-0.207,0.33v0.117v1.154h9.72V211.135z"/>
			<path clip-path="url(#SVGID_12_)" fill="#9B9395" d="M102.758,213.652h0.019c0.041,0.162,0.183,0.285,0.357,0.285h8.967
				c0.176,0,0.316-0.123,0.358-0.285h0.018v-0.09v-1.273h-9.719v1.273V213.652z"/>
			<path clip-path="url(#SVGID_12_)" fill="#D8D2D5" d="M110.8,206.979v-0.117c0-0.146-0.085-0.268-0.206-0.332
				c-0.005-0.002-0.008-0.006-0.012-0.008c-0.021-0.008-0.043-0.012-0.065-0.018c-0.021-0.008-0.042-0.02-0.065-0.02h-0.027h-8.967
				h-0.028c-0.023,0-0.043,0.012-0.065,0.02c-0.023,0.006-0.045,0.01-0.066,0.018c-0.004,0.002-0.008,0.006-0.012,0.008
				c-0.121,0.064-0.206,0.186-0.206,0.332v0.117v1.154h9.719V206.979z"/>
			<path clip-path="url(#SVGID_12_)" fill="#9B9395" d="M101.081,209.496h0.019c0.041,0.164,0.182,0.285,0.357,0.285h8.967
				c0.176,0,0.316-0.121,0.357-0.285h0.019v-0.09v-1.273h-9.719v1.273V209.496z"/>
			<path clip-path="url(#SVGID_12_)" fill="#9B9395" d="M113.396,198.215c0,3.803-3.083,6.887-6.886,6.887s-6.886-3.084-6.886-6.887
				s3.083-6.887,6.886-6.887S113.396,194.412,113.396,198.215"/>
			<path clip-path="url(#SVGID_12_)" fill="#D8D2D5" d="M112.126,198.215c0,3.102-2.514,5.615-5.616,5.615s-5.615-2.514-5.615-5.615
				s2.514-5.617,5.615-5.617S112.126,195.113,112.126,198.215"/>
			<path clip-path="url(#SVGID_12_)" fill="#9B9395" d="M106.177,201.563c-0.645-0.02-1.174-0.137-1.683-0.371v-1.459l0.969-0.068
				v0.568c0,0.176,0.029,0.244,0.196,0.303c0.137,0.049,0.322,0.078,0.518,0.078v-1.83c-0.9-0.244-1.712-0.625-1.712-1.76
				c0-0.98,0.676-1.635,1.712-1.783v-0.9h0.734v0.881c0.529,0.031,1.037,0.148,1.517,0.373v1.379l-0.959,0.061v-0.529
				c0-0.176-0.029-0.244-0.196-0.305c-0.107-0.029-0.235-0.059-0.362-0.066v1.721h0.01c0.861,0.266,1.762,0.646,1.762,1.83
				c0,1.059-0.734,1.693-1.771,1.85v1.01h-0.734V201.563z M106.177,197.6v-1.408c-0.313,0.107-0.508,0.332-0.508,0.723
				C105.669,197.268,105.865,197.453,106.177,197.6 M106.912,199.018v1.529c0.333-0.109,0.558-0.354,0.558-0.814
				C107.47,199.361,107.245,199.156,106.912,199.018"/>
			<rect x="131.859" y="191.039" clip-path="url(#SVGID_12_)" fill="#9B9395" width="2.608" height="27.039"/>
			<rect x="126.732" y="191.039" clip-path="url(#SVGID_12_)" fill="#9B9395" width="2.608" height="27.039"/>
		</g>
	</g>
	<g opacity="0.3">
		<g>
			<defs>
				<rect id="SVGID_13_" x="229.582" y="5.927" width="23.185" height="31.724"/>
			</defs>
			<clipPath id="SVGID_14_">
				<use xlink:href="#SVGID_13_"  overflow="visible"/>
			</clipPath>
			<rect x="229.581" y="5.926" clip-path="url(#SVGID_14_)" fill="#C0B8BA" width="23.184" height="31.724"/>
		</g>
	</g>
	<g opacity="0.3">
		<g>
			<defs>
				<rect id="SVGID_15_" x="81.096" y="1.074" width="82.729" height="90.06"/>
			</defs>
			<clipPath id="SVGID_16_">
				<use xlink:href="#SVGID_15_"  overflow="visible"/>
			</clipPath>
			<g opacity="0.5" clip-path="url(#SVGID_16_)">
				<g>
					<defs>
						<rect id="SVGID_17_" x="87.852" y="7.515" width="70.658" height="77.177"/>
					</defs>
					<clipPath id="SVGID_18_">
						<use xlink:href="#SVGID_17_"  overflow="visible"/>
					</clipPath>
					<path clip-path="url(#SVGID_18_)" fill="#C0B8BA" d="M139.404,40.184c-2.185,9.354-11.539,15.166-20.893,12.98
						c-9.354-2.185-15.166-11.539-12.981-20.893c2.186-9.354,11.54-15.166,20.894-12.981
						C135.778,21.476,141.589,30.83,139.404,40.184"/>
					<path clip-path="url(#SVGID_18_)" fill="#C0B8BA" d="M101.318,33.416c0-8.693,4.287-16.38,10.858-21.078
						c-11.832,2.393-20.74,12.848-20.74,25.385c0,14.305,11.597,25.901,25.901,25.901c5.612,0,10.802-1.79,15.043-4.823
						c-1.668,0.337-3.394,0.516-5.161,0.516C112.913,59.317,101.318,47.721,101.318,33.416"/>
					<path clip-path="url(#SVGID_18_)" fill="#C0B8BA" d="M153.12,33.416c0-14.304-11.596-25.901-25.9-25.901
						c-5.612,0-10.802,1.791-15.044,4.823c1.668-0.338,3.394-0.516,5.163-0.516c14.305,0,25.9,11.597,25.9,25.901
						c0,8.693-4.287,16.38-10.858,21.078C144.212,56.409,153.12,45.954,153.12,33.416"/>
					<path clip-path="url(#SVGID_18_)" fill="#FFFFFF" d="M109.943,18.546c0,0-4.869,1.377-5.197,9.834
						c-0.22,5.665,8.679,12.529,8.679,12.529l-4.753,2.067c0,0,4.537,2.873,9.177,3.476c3.352,0.436,8.483-0.193,8.483-0.193
						s1.152-13.843-3.345-18.841c-2.23,3.623-4.62,8.209-4.62,8.209s-5.473-8.26-5.243-12.845c0.3-5.982,3.551-6.52,3.551-6.52
						L109.943,18.546z"/>
					<rect x="87.853" y="69.768" clip-path="url(#SVGID_18_)" fill="#C0B8BA" width="70.657" height="4.16"/>
					<rect x="87.853" y="80.532" clip-path="url(#SVGID_18_)" fill="#C0B8BA" width="70.657" height="4.16"/>
				</g>
			</g>
			<g opacity="0.5" clip-path="url(#SVGID_16_)">
				<g>
					<defs>
						<rect id="SVGID_19_" x="81.096" y="1.074" width="82.729" height="90.06"/>
					</defs>
					<clipPath id="SVGID_20_">
						<use xlink:href="#SVGID_19_"  overflow="visible"/>
					</clipPath>
					<path clip-path="url(#SVGID_20_)" fill="#C0B8BA" d="M163.824,91.134H81.096V1.074h82.729V91.134z M83.308,88.922h78.305V3.285
						H83.308V88.922z"/>
				</g>
			</g>
		</g>
	</g>
	<path fill="#CACACA" d="M271.396,289.645c0,7.336-38.351,13.281-85.658,13.281s-85.658-5.945-85.658-13.281
		c0-7.334,38.35-13.281,85.658-13.281S271.396,282.311,271.396,289.645"/>
	<rect x="136.291" y="24.916" fill="#4E7373" width="98.897" height="264.729"/>
	<rect x="158.473" y="31.99" fill="#405E5D" width="54.532" height="21.106"/>
	<path fill="#F1F1F1" d="M170.294,46.713h-3.89l4.458-12.047h3.701l4.457,12.047h-3.889l-0.551-1.703h-3.734L170.294,46.713z
		 M173.84,42.531l-1.136-3.614l-1.119,3.614H173.84z"/>
	<polygon fill="#F1F1F1" points="178.493,37.97 178.493,34.666 189.06,34.666 189.06,37.97 185.654,37.97 185.654,46.713 
		181.9,46.713 181.9,37.97 	"/>
	<polygon fill="#F1F1F1" points="194.109,38.796 194.022,38.814 194.109,39.726 194.109,46.713 190.701,46.713 190.701,34.666 
		195.795,34.666 197.74,41.481 197.844,42.308 197.93,42.308 198.051,41.481 199.979,34.666 205.072,34.666 205.072,46.713 
		201.664,46.713 201.664,39.726 201.75,38.814 201.664,38.796 199.256,46.713 196.52,46.713 	"/>
	<rect x="166.335" y="48.388" fill="#F1F1F1" width="38.807" height="0.718"/>
	<path fill="#405E5D" d="M126.95,24.916c-1.82,0-3.296,1.476-3.296,3.297v261.432h12.637V24.916H126.95z"/>
	<path fill="#405E5D" d="M244.528,24.916h-9.341v264.729h12.636V28.212C247.823,26.392,246.347,24.916,244.528,24.916"/>
	<polygon fill="#466663" points="145.417,68.595 136.29,60.17 235.188,60.17 226.061,68.595 	"/>
	<polygon fill="#344D4B" points="136.29,60.171 136.29,153.175 141.771,153.175 141.84,137.709 145.417,68.595 	"/>
	<polygon fill="#344D4B" points="235.188,60.171 235.188,153.175 229.706,153.175 229.637,137.709 226.061,68.595 	"/>
	<polygon fill="#363636" points="229.637,137.709 141.84,137.709 145.416,68.595 226.061,68.595 	"/>
	<path fill="#7F7F7F" d="M219.383,103.303h2.629c0.514,0,0.922-0.43,0.898-0.942l-0.133-2.813c-0.022-0.48-0.418-0.857-0.899-0.857
		h-2.613c-0.512,0-0.92,0.426-0.898,0.937l0.117,2.813C218.504,102.923,218.9,103.303,219.383,103.303"/>
	<path fill="#7F7F7F" d="M219.649,109.733h2.667c0.513,0,0.923-0.429,0.898-0.942l-0.136-2.888c-0.024-0.479-0.42-0.857-0.901-0.857
		h-2.647c-0.511,0-0.92,0.427-0.898,0.938l0.12,2.888C218.771,109.353,219.168,109.733,219.649,109.733"/>
	<path fill="#7F7F7F" d="M219.923,116.27h2.702c0.513,0,0.921-0.429,0.898-0.942l-0.141-2.965c-0.022-0.479-0.418-0.857-0.898-0.857
		H219.8c-0.512,0-0.92,0.426-0.899,0.937l0.124,2.965C219.044,115.89,219.439,116.27,219.923,116.27"/>
	<path fill="#7F7F7F" d="M223.693,118.929c-0.023-0.479-0.418-0.857-0.898-0.857h-2.723c-0.511,0-0.92,0.426-0.898,0.937
		l0.127,3.044c0.021,0.482,0.417,0.862,0.898,0.862h2.74c0.513,0,0.923-0.429,0.897-0.942L223.693,118.929z"/>
	<path fill="#7F7F7F" d="M152.108,98.691h-2.599c-0.483,0-0.882,0.38-0.905,0.863l-0.133,2.799c-0.024,0.517,0.389,0.95,0.906,0.95
		h2.615c0.485,0,0.886-0.383,0.905-0.869l0.117-2.799C153.036,99.12,152.624,98.691,152.108,98.691"/>
	<path fill="#7F7F7F" d="M151.844,105.047h-2.635c-0.484,0-0.882,0.379-0.905,0.864l-0.136,2.874
		c-0.025,0.517,0.388,0.95,0.905,0.95h2.65c0.487,0,0.886-0.383,0.906-0.87l0.12-2.874
		C152.771,105.475,152.359,105.047,151.844,105.047"/>
	<path fill="#7F7F7F" d="M151.575,111.505h-2.671c-0.484,0-0.883,0.381-0.905,0.864l-0.14,2.951c-0.024,0.517,0.388,0.95,0.905,0.95
		h2.688c0.486,0,0.886-0.383,0.906-0.869l0.123-2.952C152.502,111.936,152.09,111.505,151.575,111.505"/>
	<path fill="#7F7F7F" d="M151.302,118.071h-2.708c-0.485,0-0.883,0.38-0.906,0.863l-0.144,3.031
		c-0.024,0.518,0.389,0.949,0.906,0.949h2.725c0.487,0,0.886-0.383,0.907-0.868l0.126-3.03
		C152.229,118.5,151.816,118.071,151.302,118.071"/>
	<polygon fill="#F1F1F1" points="215.96,122.915 155.548,122.915 157.27,76.779 214.23,76.779 	"/>
	<polygon fill="#FFFFFF" points="156.77,90.175 156.596,94.837 214.583,86.169 214.427,82.026 	"/>
	<polygon fill="#FFFFFF" points="156.398,100.146 155.976,111.441 215.197,102.588 214.798,91.892 	"/>
	<polygon fill="#7F7F7F" points="146.993,128.532 146.795,132.999 160.931,132.999 160.98,128.532 	"/>
	<rect x="148.126" y="130.208" fill="#202020" width="11.524" height="1.116"/>
	<polygon fill="#7F7F7F" points="219.138,133.634 201.485,133.634 201.42,127.519 218.925,127.519 	"/>
	<polygon fill="#202020" points="218.096,132.526 202.479,132.526 202.464,130.902 218.027,130.902 	"/>
	<polygon fill="#282828" points="229.637,137.709 141.84,137.709 136.29,149.43 235.188,149.43 232.843,144.48 	"/>
	<path fill="#7F7F7F" d="M174.617,138.993h-3.57c-0.304,0-0.565,0.088-0.583,0.197l-0.209,1.292
		c-0.018,0.113,0.218,0.203,0.529,0.203h3.633c0.31,0,0.572-0.09,0.584-0.203l0.146-1.292
		C175.159,139.082,174.921,138.993,174.617,138.993"/>
	<path fill="#7F7F7F" d="M180.642,138.993h-3.569c-0.305,0-0.561,0.088-0.571,0.197l-0.126,1.292
		c-0.012,0.113,0.23,0.203,0.541,0.203h3.634c0.31,0,0.565-0.09,0.571-0.203l0.063-1.292
		C181.189,139.082,180.946,138.993,180.642,138.993"/>
	<path fill="#7F7F7F" d="M186.666,138.993h-3.569c-0.305,0-0.555,0.088-0.558,0.197l-0.045,1.292
		c-0.004,0.113,0.246,0.203,0.555,0.203h3.634c0.312,0,0.56-0.09,0.559-0.203l-0.021-1.292
		C187.22,139.082,186.971,138.993,186.666,138.993"/>
	<path fill="#7F7F7F" d="M199.361,138.993h-7.797c-0.895,0-1.608,0.259-1.594,0.581l0.023,0.519
		c0.015,0.327,0.764,0.593,1.676,0.593h7.938c0.91,0,1.605-0.267,1.552-0.593l-0.083-0.519
		C201.023,139.252,200.257,138.993,199.361,138.993"/>
	<path fill="#7F7F7F" d="M174.357,141.186h-3.652c-0.312,0-0.58,0.092-0.598,0.207l-0.22,1.354
		c-0.019,0.117,0.223,0.212,0.541,0.212h3.719c0.318,0,0.586-0.095,0.6-0.212l0.152-1.354
		C174.912,141.278,174.668,141.186,174.357,141.186"/>
	<path fill="#7F7F7F" d="M180.522,141.186h-3.652c-0.313,0-0.573,0.092-0.585,0.207l-0.133,1.354
		c-0.012,0.117,0.236,0.212,0.555,0.212h3.72c0.317,0,0.579-0.095,0.585-0.212l0.065-1.354
		C181.082,141.278,180.834,141.186,180.522,141.186"/>
	<path fill="#7F7F7F" d="M186.688,141.186h-3.652c-0.312,0-0.568,0.092-0.57,0.207l-0.047,1.354
		c-0.004,0.117,0.25,0.212,0.567,0.212h3.72c0.318,0,0.574-0.095,0.572-0.212l-0.021-1.354
		C187.254,141.278,186.999,141.186,186.688,141.186"/>
	<path fill="#7F7F7F" d="M199.68,141.186H191.7c-0.915,0-1.646,0.271-1.63,0.607l0.023,0.544c0.016,0.342,0.784,0.622,1.717,0.622
		h8.126c0.933,0,1.644-0.28,1.587-0.622l-0.088-0.544C201.381,141.458,200.594,141.186,199.68,141.186"/>
	<path fill="#7F7F7F" d="M174.085,143.485h-3.739c-0.32,0-0.594,0.096-0.613,0.215l-0.231,1.42c-0.02,0.124,0.228,0.223,0.553,0.223
		h3.811c0.325,0,0.6-0.099,0.614-0.223l0.16-1.42C174.652,143.582,174.405,143.485,174.085,143.485"/>
	<path fill="#7F7F7F" d="M180.398,143.485h-3.74c-0.319,0-0.588,0.096-0.6,0.215l-0.139,1.42c-0.012,0.124,0.241,0.223,0.566,0.223
		h3.811c0.325,0,0.594-0.099,0.6-0.223l0.068-1.42C180.972,143.582,180.718,143.485,180.398,143.485"/>
	<path fill="#7F7F7F" d="M186.711,143.485h-3.74c-0.318,0-0.582,0.096-0.585,0.215l-0.05,1.42c-0.004,0.124,0.256,0.223,0.582,0.223
		h3.812c0.325,0,0.587-0.099,0.585-0.223l-0.022-1.42C187.291,143.582,187.029,143.485,186.711,143.485"/>
	<path fill="#7F7F7F" d="M200.014,143.484h-8.171c-0.938,0-1.685,0.285-1.669,0.637l0.025,0.569
		c0.016,0.359,0.804,0.652,1.759,0.652h8.323c0.955,0,1.683-0.293,1.625-0.652l-0.093-0.569
		C201.756,143.769,200.95,143.484,200.014,143.484"/>
	<path fill="#7F7F7F" d="M173.8,145.895h-3.832c-0.326,0-0.608,0.101-0.628,0.227l-0.242,1.49c-0.021,0.13,0.232,0.235,0.566,0.235
		h3.905c0.334,0,0.616-0.105,0.63-0.235l0.167-1.49C174.381,145.996,174.126,145.895,173.8,145.895"/>
	<path fill="#7F7F7F" d="M180.268,145.895h-3.832c-0.326,0-0.602,0.101-0.615,0.227l-0.146,1.49
		c-0.012,0.13,0.248,0.235,0.581,0.235h3.905c0.333,0,0.608-0.105,0.616-0.235l0.072-1.49
		C180.855,145.996,180.594,145.895,180.268,145.895"/>
	<path fill="#7F7F7F" d="M186.734,145.895h-3.832c-0.326,0-0.595,0.101-0.6,0.227l-0.051,1.49c-0.004,0.13,0.263,0.235,0.596,0.235
		h3.906c0.333,0,0.602-0.105,0.6-0.235l-0.023-1.49C187.328,145.996,187.061,145.895,186.734,145.895"/>
	<path fill="#7F7F7F" d="M200.361,145.895h-8.369c-0.96,0-1.726,0.298-1.708,0.668l0.026,0.599c0.017,0.377,0.824,0.686,1.803,0.686
		h8.531c0.979,0,1.723-0.308,1.662-0.686l-0.098-0.599C202.149,146.193,201.322,145.895,200.361,145.895"/>
	<rect x="136.291" y="149.43" fill="#202020" width="98.897" height="3.745"/>
	<rect x="136.291" y="153.175" fill="#363636" width="98.897" height="25.011"/>
	<rect x="167.607" y="160.111" fill="#202020" width="36.262" height="11.137"/>
	<rect x="169.321" y="165.48" fill="#161616" width="32.835" height="4.053"/>
	<rect x="136.291" y="178.184" fill="#344D4B" width="1.92" height="111.461"/>
	<rect x="233.267" y="178.184" fill="#344D4B" width="1.921" height="111.461"/>
	<rect x="153.102" y="200.732" fill="#638C8A" width="65.273" height="88.912"/>
	<path fill="#344D4B" d="M189.55,207.188c0,2.105-1.706,3.813-3.812,3.813s-3.811-1.707-3.811-3.813
		c0-2.104,1.705-3.811,3.811-3.811S189.55,205.084,189.55,207.188"/>
</g>
</svg>
